<svg xmlns="http://www.w3.org/2000/svg" width="17.982" height="17.13" viewBox="0 0 17.982 17.13">
  <g id="bill" transform="translate(0.1 0.1)">
    <path id="Path_1524" data-name="Path 1524" d="M347.047,40.619h.023l.04,0a.644.644,0,0,1,.631.643.288.288,0,0,0,.576,0,1.222,1.222,0,0,0-.959-1.191v-.277a.288.288,0,1,0-.576,0v.29a1.22,1.22,0,0,0,.315,2.4.644.644,0,1,1-.644.644.288.288,0,1,0-.576,0,1.222,1.222,0,0,0,.9,1.178v.316a.288.288,0,1,0,.576,0v-.3A1.22,1.22,0,0,0,347.1,41.9a.643.643,0,0,1-.05-1.285Zm0,0" transform="translate(-333.422 -38.095)" fill="#4e4e4e" stroke="#4e4e4e" stroke-width="0.2"/>
    <path id="Path_1525" data-name="Path 1525" d="M13.692.39A4.134,4.134,0,0,0,9.84,3.1H2.69a.3.3,0,0,0-.288.3L2.334,13.5H.3a.283.283,0,0,0-.3.275V15.06A2.263,2.263,0,0,0,2.16,17.314v.006h8.895v-.008c.072,0,.1.008.147.008h.006a2.263,2.263,0,0,0,2.259-2.263V8.573c.072,0,.148.006.223.006a4.094,4.094,0,0,0,0-8.188ZM2.27,16.744h0A1.7,1.7,0,0,1,.576,15.057v-.978H8.931v.974a2.26,2.26,0,0,0,.667,1.6c.03.03.068.054.1.09Zm10.622-1.687a1.687,1.687,0,0,1-1.683,1.687H11.2a1.7,1.7,0,0,1-1.7-1.691V13.777a.266.266,0,0,0-.275-.275H2.91l.066-9.831h6.7a4.329,4.329,0,0,0-.079.8A4.063,4.063,0,0,0,9.949,6.12H7.228a.288.288,0,0,0,0,.576h3.034a4.066,4.066,0,0,0,2.63,1.8ZM13.692,8a3.514,3.514,0,1,1,3.514-3.514A3.514,3.514,0,0,1,13.692,8Zm0,0" transform="translate(0 -0.39)" fill="#4e4e4e" stroke="#4e4e4e" stroke-width="0.2"/>
    <path id="Path_1526" data-name="Path 1526" d="M124.684,212.746a.893.893,0,1,0,.922.893A.909.909,0,0,0,124.684,212.746Zm0,1.209a.318.318,0,1,1,.346-.317A.333.333,0,0,1,124.684,213.955Zm0,0" transform="translate(-119.305 -205.099)" fill="#4e4e4e" stroke="#4e4e4e" stroke-width="0.2"/>
    <path id="Path_1527" data-name="Path 1527" d="M192.719,229.792a.288.288,0,0,0,.288.288h3.841a.288.288,0,0,0,0-.576h-3.841A.288.288,0,0,0,192.719,229.792Zm0,0" transform="translate(-185.779 -221.253)" fill="#4e4e4e" stroke="#4e4e4e" stroke-width="0.2"/>
    <path id="Path_1528" data-name="Path 1528" d="M124.684,143.2a.893.893,0,1,0,.922.893A.909.909,0,0,0,124.684,143.2Zm0,1.21a.318.318,0,1,1,.346-.317.333.333,0,0,1-.346.317Zm0,0" transform="translate(-119.305 -138.06)" fill="#4e4e4e" stroke="#4e4e4e" stroke-width="0.2"/>
    <path id="Path_1529" data-name="Path 1529" d="M124.684,282.281a.893.893,0,1,0,.922.893A.909.909,0,0,0,124.684,282.281Zm0,1.21a.318.318,0,1,1,.346-.317A.332.332,0,0,1,124.684,283.491Zm0,0" transform="translate(-119.305 -272.13)" fill="#4e4e4e" stroke="#4e4e4e" stroke-width="0.2"/>
    <path id="Path_1530" data-name="Path 1530" d="M196.848,299.5h-3.841a.288.288,0,1,0,0,.576h3.841a.288.288,0,0,0,0-.576Zm0,0" transform="translate(-185.779 -288.732)" fill="#4e4e4e" stroke="#4e4e4e" stroke-width="0.2"/>
  </g>
</svg>
