<svg xmlns="http://www.w3.org/2000/svg" width="15.276" height="14.141" viewBox="0 0 15.276 14.141">
  <path id="Path_1521" data-name="Path 1521" d="M3.4,13.855a.293.293,0,0,0,.414,0l.9-.9a1.356,1.356,0,0,0,.393-1.1l.323-.312a1.359,1.359,0,0,1,.948-.383h3.857a2.622,2.622,0,0,0,1.839-.747l.021-.022,2.625-3.152A1.172,1.172,0,0,0,12.94,5.72l-.283.293V.292A.293.293,0,0,0,12.364,0H4.834a.293.293,0,0,0-.293.293V6.856A3.524,3.524,0,0,0,2.022,8.828a1.353,1.353,0,0,0-1.032.4l-.9.9a.293.293,0,0,0,0,.415ZM12.071.585V6.619l-.848.877a1.177,1.177,0,0,0-.91-.435h-3.4a.162.162,0,0,1-.06-.013,3.786,3.786,0,0,0-1.436-.28c-.1,0-.2,0-.293.01V.585ZM4.876,7.392a3.329,3.329,0,0,1,1.76.2.745.745,0,0,0,.28.056h3.4a.586.586,0,0,1,0,1.172H7.764a.293.293,0,1,0,0,.586h2.549a1.173,1.173,0,0,0,1.172-1.172,1.185,1.185,0,0,0-.01-.154l1.893-1.958.013-.014a.586.586,0,1,1,.894.758l-2.616,3.141a2.039,2.039,0,0,1-1.42.571H6.382a1.942,1.942,0,0,0-1.354.547l-.129.125a1.364,1.364,0,0,0-.18-.222l-1.8-1.8A1.368,1.368,0,0,0,2.6,8.987a2.933,2.933,0,0,1,2.28-1.6ZM1.4,9.641a.777.777,0,0,1,1.1,0l1.8,1.8a.777.777,0,0,1,0,1.1l-.693.693-2.9-2.9Zm0,0" transform="translate(0.1 0.1)" fill="#4e4e4e" stroke="#707070" stroke-width="0.2"/>
</svg>
