<svg xmlns="http://www.w3.org/2000/svg" xmlns:xlink="http://www.w3.org/1999/xlink" width="185.734" height="55.4" viewBox="0 0 185.734 55.4">
  <defs>
    <linearGradient id="linear-gradient" x1="1.155" y1="0.612" x2="-0.285" y2="0.606" gradientUnits="objectBoundingBox">
      <stop offset="0" stop-color="#00a7e6"/>
      <stop offset="1" stop-color="#03557d"/>
    </linearGradient>
  </defs>
  <g id="Logo_SVG" data-name="Logo SVG" transform="translate(-8.688 3.566)">
    <g id="Group_977" data-name="Group 977" transform="translate(-238.276 -330.58)">
      <g id="Group_984" data-name="Group 984" transform="translate(58.478 -101.647)">
        <g id="Group_983" data-name="Group 983" transform="translate(317.086 435.039)">
          <path id="Path_1552" data-name="Path 1552" d="M354.73,440.752H333.8a1.8,1.8,0,1,0,0,3.592H354.73a5.861,5.861,0,0,1,5.853,5.854v2.545a9.191,9.191,0,0,0-5.657-1.948h-8.672a9.256,9.256,0,0,0-9.245,9.245,1.8,1.8,0,0,0,3.592,0,5.66,5.66,0,0,1,5.653-5.653h8.672a5.663,5.663,0,0,1,5.657,5.657,5.857,5.857,0,0,1-5.851,5.851H339.805a5.848,5.848,0,0,1-5.681-4.437L329.5,442.922a9.43,9.43,0,0,0-9.165-7.158h-1.455a1.8,1.8,0,1,0,0,3.592h1.455a5.844,5.844,0,0,1,5.68,4.436l4.623,18.534a9.433,9.433,0,0,0,9.165,7.159h14.927a9.453,9.453,0,0,0,9.442-9.442V450.2A9.455,9.455,0,0,0,354.73,440.752Z" transform="translate(-317.086 -435.764)" fill="url(#linear-gradient)"/>
          <path id="Path_1553" data-name="Path 1553" d="M342.163,474.954a3.729,3.729,0,1,0,3.73,3.729A3.733,3.733,0,0,0,342.163,474.954Z" transform="translate(-319.266 -439.766)" fill="url(#linear-gradient)"/>
          <path id="Path_1554" data-name="Path 1554" d="M358.567,474.953a3.729,3.729,0,1,0,3.73,3.73A3.734,3.734,0,0,0,358.567,474.953Zm1.768,4.479a1.9,1.9,0,0,0,.165-.749,1.931,1.931,0,0,0-.852-1.6,1.931,1.931,0,0,1,.853,1.6A1.9,1.9,0,0,1,360.335,479.432Z" transform="translate(-320.941 -439.766)" fill="url(#linear-gradient)"/>
        </g>
        <path id="Path_1555" data-name="Path 1555" d="M346.716,428.66a27.619,27.619,0,0,0-19.6,8.144,10.031,10.031,0,0,1,2.326,2.739,24.03,24.03,0,1,1-3.825,5.136l-.269-1.1a4.889,4.889,0,0,0-1.652-2.613,27.694,27.694,0,1,0,23.022-12.31Z" transform="translate(-0.196 0)" fill="url(#linear-gradient)"/>
      </g>
      <g id="Group_995" data-name="Group 995" transform="translate(73.879 -101.609)">
        <g id="Group_990" data-name="Group 990" transform="translate(240.234 435.567)">
          <g id="Group_985" data-name="Group 985" transform="translate(0 10.424)">
            <path id="Path_1556" data-name="Path 1556" d="M253.937,467.069a4.029,4.029,0,0,1-.336,1.64,4.222,4.222,0,0,1-2.242,2.234,4.094,4.094,0,0,1-1.649.336.7.7,0,0,1,0-1.409,2.737,2.737,0,0,0,1.1-.223,2.837,2.837,0,0,0,1.5-1.487,2.672,2.672,0,0,0,.223-1.091V449.3a.7.7,0,1,1,1.409,0Z" transform="translate(-247.652 -447.264)" fill="#2e2e2e"/>
            <path id="Path_1557" data-name="Path 1557" d="M249.563,472.487a2.058,2.058,0,1,1,0-4.115,1.389,1.389,0,0,0,.562-.111,1.5,1.5,0,0,0,.475-.318,1.522,1.522,0,0,0,.319-.474,1.322,1.322,0,0,0,.108-.545V449.158a2.043,2.043,0,0,1,.6-1.455,2.107,2.107,0,0,1,2.911,0,2.047,2.047,0,0,1,.6,1.455v17.766a5.406,5.406,0,0,1-.449,2.184,5.589,5.589,0,0,1-2.945,2.932A5.464,5.464,0,0,1,249.563,472.487Z" transform="translate(-247.505 -447.119)" fill="#2e2e2e"/>
          </g>
          <g id="Group_986" data-name="Group 986" transform="translate(10.172 4.325)">
            <path id="Path_1558" data-name="Path 1558" d="M260.984,465a.705.705,0,0,1-.7-.7V442.542a.7.7,0,0,1,1.409,0V464.3a.705.705,0,0,1-.7.7Z" transform="translate(-258.926 -440.505)" fill="#2e2e2e"/>
            <path id="Path_1559" data-name="Path 1559" d="M260.837,466.209a2.058,2.058,0,0,1-2.058-2.058V442.4a2.046,2.046,0,0,1,.6-1.454,2.109,2.109,0,0,1,2.911,0,2.043,2.043,0,0,1,.6,1.454v21.753a2.058,2.058,0,0,1-2.058,2.058Z" transform="translate(-258.779 -440.36)" fill="#2e2e2e"/>
          </g>
          <g id="Group_987" data-name="Group 987" transform="translate(14.116)">
            <path id="Path_1560" data-name="Path 1560" d="M269.581,465.942a4.03,4.03,0,0,1-.336,1.64A4.222,4.222,0,0,1,267,469.817a4.094,4.094,0,0,1-1.649.336.7.7,0,0,1,0-1.409,2.737,2.737,0,0,0,1.1-.223,2.837,2.837,0,0,0,1.5-1.487,2.672,2.672,0,0,0,.223-1.091V448.176a.7.7,0,1,1,1.409,0Zm-2.457-26.231a2,2,0,0,0,.412.6,1.889,1.889,0,0,0,3.23-1.34,1.952,1.952,0,0,0-.146-.748,1.86,1.86,0,0,0-.4-.61,1.9,1.9,0,0,0-2.68,0,1.972,1.972,0,0,0-.412.61,1.833,1.833,0,0,0-.155.748A1.766,1.766,0,0,0,267.124,439.711Z" transform="translate(-263.296 -435.714)" fill="#2e2e2e"/>
            <path id="Path_1561" data-name="Path 1561" d="M265.207,471.358a2.058,2.058,0,1,1,0-4.115,1.389,1.389,0,0,0,.562-.111,1.506,1.506,0,0,0,.475-.318,1.522,1.522,0,0,0,.319-.474,1.322,1.322,0,0,0,.108-.545V448.029a2.047,2.047,0,0,1,.6-1.455,2.107,2.107,0,0,1,2.911,0,2.047,2.047,0,0,1,.6,1.455V465.8a5.4,5.4,0,0,1-.449,2.184,5.591,5.591,0,0,1-2.944,2.932A5.471,5.471,0,0,1,265.207,471.358Zm3.523-29.289a3.23,3.23,0,0,1-2.3-.946,3.364,3.364,0,0,1-.689-1,3.118,3.118,0,0,1-.274-1.293,3.187,3.187,0,0,1,.269-1.291,3.342,3.342,0,0,1,.695-1.024,3.257,3.257,0,0,1,1.027-.691,3.312,3.312,0,0,1,2.536,0,3.261,3.261,0,0,1,1.031.693,3.225,3.225,0,0,1,.7,1.048,3.3,3.3,0,0,1,.25,1.268,3.23,3.23,0,0,1-3.244,3.243Zm0-3.8a.519.519,0,0,0-.211.04.548.548,0,0,0-.172.114.643.643,0,0,0-.13.2.484.484,0,0,0-.041.2.443.443,0,0,0,.035.183.665.665,0,0,0,.135.2.5.5,0,0,0,.172.114.569.569,0,0,0,.419,0,.515.515,0,0,0,.176-.115.532.532,0,0,0,.115-.174.515.515,0,0,0,.039-.208.57.57,0,0,0-.044-.231.5.5,0,0,0-.109-.171.559.559,0,0,0-.176-.115A.521.521,0,0,0,268.73,438.272Z" transform="translate(-263.149 -435.567)" fill="#2e2e2e"/>
          </g>
          <g id="Group_988" data-name="Group 988" transform="translate(24.571 4.325)">
            <path id="Path_1562" data-name="Path 1562" d="M283.2,465h-2.732a4.093,4.093,0,0,1-1.649-.336,4.238,4.238,0,0,1-2.243-2.233,4.051,4.051,0,0,1-.335-1.641V442.542a.7.7,0,0,1,1.409,0V460.79a2.68,2.68,0,0,0,.223,1.092,3.007,3.007,0,0,0,.6.893,2.8,2.8,0,0,0,.893.61,2.737,2.737,0,0,0,1.1.223H283.2a.7.7,0,0,1,.7.7.652.652,0,0,1-.206.49A.694.694,0,0,1,283.2,465Z" transform="translate(-274.884 -440.505)" fill="#2e2e2e"/>
            <path id="Path_1563" data-name="Path 1563" d="M283.05,466.209h-2.732a5.47,5.47,0,0,1-2.186-.446,5.6,5.6,0,0,1-2.945-2.932,5.422,5.422,0,0,1-.449-2.186V442.4a2.046,2.046,0,0,1,.6-1.454,2.109,2.109,0,0,1,2.911,0,2.043,2.043,0,0,1,.6,1.454v18.248a1.326,1.326,0,0,0,.108.546,1.652,1.652,0,0,0,.331.494,1.438,1.438,0,0,0,.463.314,1.39,1.39,0,0,0,.562.111h2.732a2.058,2.058,0,0,1,2.057,2.058,2.015,2.015,0,0,1-.621,1.465A2.042,2.042,0,0,1,283.05,466.209Z" transform="translate(-274.737 -440.36)" fill="#2e2e2e"/>
          </g>
          <g id="Group_989" data-name="Group 989" transform="translate(30.517 9.255)">
            <path id="Path_1564" data-name="Path 1564" d="M293.96,465.534h-10.43a.693.693,0,0,1-.5-.2.65.65,0,0,1-.207-.49.705.705,0,0,1,.7-.7h10.43a2.736,2.736,0,0,0,1.1-.223,2.8,2.8,0,0,0,.893-.61,3.005,3.005,0,0,0,.6-.893,2.665,2.665,0,0,0,.224-1.092V448.008a.7.7,0,1,1,1.409,0v13.316a4.038,4.038,0,0,1-.336,1.641,4.241,4.241,0,0,1-2.242,2.233A4.1,4.1,0,0,1,293.96,465.534Zm-5.189,6.633a1.928,1.928,0,0,1,.146-.747,1.855,1.855,0,0,1,.4-.61,1.9,1.9,0,0,1,2.681,0,1.951,1.951,0,0,1,.412.61,1.841,1.841,0,0,1,.155.747,1.785,1.785,0,0,1-.155.739,1.985,1.985,0,0,1-.412.6,1.889,1.889,0,0,1-3.23-1.34Z" transform="translate(-281.473 -445.969)" fill="#2e2e2e"/>
            <path id="Path_1565" data-name="Path 1565" d="M290.515,475.266a3.23,3.23,0,0,1-2.99-1.978,3.2,3.2,0,0,1-.254-1.266,3.27,3.27,0,0,1,.251-1.269,3.2,3.2,0,0,1,.7-1.046,3.253,3.253,0,0,1,1.03-.694,3.312,3.312,0,0,1,2.536,0,3.235,3.235,0,0,1,1.028.692,3.325,3.325,0,0,1,.695,1.025,3.181,3.181,0,0,1,.269,1.289,3.136,3.136,0,0,1-.274,1.294,3.364,3.364,0,0,1-.689,1,3.229,3.229,0,0,1-2.3.946Zm0-3.8a.53.53,0,0,0-.383.153.5.5,0,0,0-.109.17.58.58,0,0,0-.044.231.508.508,0,0,0,.038.208.543.543,0,0,0,.115.176.529.529,0,0,0,.176.115.569.569,0,0,0,.419,0,.517.517,0,0,0,.172-.114.675.675,0,0,0,.134-.2.429.429,0,0,0,.036-.184.49.49,0,0,0-.041-.2.647.647,0,0,0-.13-.2.5.5,0,0,0-.172-.114A.522.522,0,0,0,290.515,471.468Zm3.3-4.725h-10.43a2.039,2.039,0,0,1-1.433-.572,2.019,2.019,0,0,1-.625-1.469,2.058,2.058,0,0,1,2.058-2.058h10.43a1.389,1.389,0,0,0,.562-.111,1.428,1.428,0,0,0,.464-.316,1.629,1.629,0,0,0,.33-.493,1.319,1.319,0,0,0,.108-.545V447.863a2.043,2.043,0,0,1,.6-1.455,2.107,2.107,0,0,1,2.911,0,2.047,2.047,0,0,1,.6,1.455v13.316a5.414,5.414,0,0,1-.448,2.184A5.6,5.6,0,0,1,296,466.3,5.471,5.471,0,0,1,293.814,466.743Z" transform="translate(-281.326 -445.825)" fill="#2e2e2e"/>
          </g>
        </g>
        <g id="Group_994" data-name="Group 994" transform="translate(173.085 435.568)">
          <g id="Group_991" data-name="Group 991" transform="translate(0 4.53)">
            <path id="Path_1566" data-name="Path 1566" d="M196.493,464.042a.68.68,0,0,1,.206.5.652.652,0,0,1-.206.49.693.693,0,0,1-.5.2h-2.956a4.218,4.218,0,0,1-1.589-.3,3.842,3.842,0,0,1-1.3-.851,7.716,7.716,0,0,1-.739,2.311,7.426,7.426,0,0,1-1.443,1.968,8.06,8.06,0,0,1-2.517,1.693,7.543,7.543,0,0,1-2.964.593h-.171a7.545,7.545,0,0,1-2.965-.593,7.841,7.841,0,0,1-2.5-1.693,7.688,7.688,0,0,1-1.684-2.5,7.611,7.611,0,0,1-.585-2.964v-2.113a.7.7,0,0,1,1.409,0v2.113a6.118,6.118,0,0,0,.5,2.457,6.527,6.527,0,0,0,1.357,2.019,6.354,6.354,0,0,0,2.01,1.366,6.125,6.125,0,0,0,2.458.5h.171a6.12,6.12,0,0,0,2.457-.5,6.344,6.344,0,0,0,2.01-1.366,6.53,6.53,0,0,0,1.358-2.019,6.118,6.118,0,0,0,.5-2.457v-20.12a.711.711,0,0,1,1.212-.5.7.7,0,0,1,.2.5v18.248a2.675,2.675,0,0,0,.224,1.091,2.92,2.92,0,0,0,1.5,1.5,2.676,2.676,0,0,0,1.091.224h2.956A.678.678,0,0,1,196.493,464.042Z" transform="translate(-173.232 -440.734)" fill="#2e2e2e"/>
            <path id="Path_1567" data-name="Path 1567" d="M182.343,471.849h-.172a8.909,8.909,0,0,1-3.491-.7,9.217,9.217,0,0,1-2.93-1.982,8.979,8.979,0,0,1-2.664-6.422v-2.113a2.043,2.043,0,0,1,.6-1.455,2.109,2.109,0,0,1,2.911,0,2.046,2.046,0,0,1,.6,1.455v2.113a4.743,4.743,0,0,0,.387,1.919,5.224,5.224,0,0,0,1.078,1.606,5.009,5.009,0,0,0,1.585,1.075,4.726,4.726,0,0,0,1.919.387h.172a4.726,4.726,0,0,0,1.919-.387,5.01,5.01,0,0,0,1.586-1.076,5.223,5.223,0,0,0,1.077-1.605,4.743,4.743,0,0,0,.387-1.919v-20.12a2.043,2.043,0,0,1,.6-1.455,2.119,2.119,0,0,1,2.937.019,2.038,2.038,0,0,1,.576,1.436v18.247a1.33,1.33,0,0,0,.109.547,1.555,1.555,0,0,0,.809.809,1.325,1.325,0,0,0,.546.108h2.955a2.058,2.058,0,0,1,2.058,2.059,2.012,2.012,0,0,1-.622,1.465,2.041,2.041,0,0,1-1.436.575h-2.955a5.6,5.6,0,0,1-2.061-.384q-.158.408-.356.8a8.817,8.817,0,0,1-1.7,2.325,9.419,9.419,0,0,1-2.937,1.972A8.907,8.907,0,0,1,182.343,471.849Z" transform="translate(-173.085 -440.589)" fill="#2e2e2e"/>
          </g>
          <g id="Group_992" data-name="Group 992" transform="translate(20.395)">
            <path id="Path_1568" data-name="Path 1568" d="M225.9,463.554a.68.68,0,0,1,.206.5.652.652,0,0,1-.206.49.7.7,0,0,1-.5.2H197.894a.693.693,0,0,1-.5-.2.649.649,0,0,1-.207-.49.7.7,0,0,1,.7-.7h18.375a2.68,2.68,0,0,0,1.091-.224,2.848,2.848,0,0,0,1.486-1.486,2.675,2.675,0,0,0,.224-1.091v-6.289a6.1,6.1,0,0,0-.5-2.457,6.524,6.524,0,0,0-1.357-2.019,6.344,6.344,0,0,0-2.01-1.366,6.122,6.122,0,0,0-2.457-.5h-11.1a4.1,4.1,0,0,1-1.649-.336,4.232,4.232,0,0,1-2.242-2.233,4.036,4.036,0,0,1-.335-1.641v-.91a.7.7,0,1,1,1.408,0v.91a2.673,2.673,0,0,0,.224,1.091,2.879,2.879,0,0,0,.6.885,2.85,2.85,0,0,0,.893.6,2.737,2.737,0,0,0,1.1.223h11.1a7.543,7.543,0,0,1,2.964.593,7.855,7.855,0,0,1,2.5,1.693,7.727,7.727,0,0,1,1.684,2.5,7.633,7.633,0,0,1,.584,2.964v6.289a4.133,4.133,0,0,1-.283,1.538,4.006,4.006,0,0,1-.8,1.263h6A.682.682,0,0,1,225.9,463.554ZM205.367,439.7a1.882,1.882,0,0,0,.4.6,2,2,0,0,0,.6.412,1.837,1.837,0,0,0,1.478,0,1.985,1.985,0,0,0,.6-.412,1.889,1.889,0,1,0-3.084-.6Z" transform="translate(-195.836 -435.715)" fill="#2e2e2e"/>
            <path id="Path_1569" data-name="Path 1569" d="M225.254,465.947H197.747a2.042,2.042,0,0,1-1.434-.571,2.022,2.022,0,0,1-.624-1.469,2.058,2.058,0,0,1,2.058-2.059h18.374a1.316,1.316,0,0,0,.545-.108,1.494,1.494,0,0,0,.794-.793,1.321,1.321,0,0,0,.108-.545v-6.289a4.748,4.748,0,0,0-.386-1.92,5.154,5.154,0,0,0-1.078-1.6,5.026,5.026,0,0,0-1.585-1.076,4.732,4.732,0,0,0-1.919-.387H201.5a5.464,5.464,0,0,1-2.188-.447,5.6,5.6,0,0,1-2.944-2.933,5.4,5.4,0,0,1-.448-2.183v-.911a2.045,2.045,0,0,1,.6-1.455,2.107,2.107,0,0,1,2.911,0,2.041,2.041,0,0,1,.6,1.455v.911a1.314,1.314,0,0,0,.108.544,1.537,1.537,0,0,0,.319.475,1.517,1.517,0,0,0,.475.317,1.389,1.389,0,0,0,.562.111h11.1a8.9,8.9,0,0,1,3.49.7,9.2,9.2,0,0,1,2.931,1.982,8.978,8.978,0,0,1,2.664,6.421V460.4a5.613,5.613,0,0,1-.184,1.446h3.753a2.058,2.058,0,0,1,2.058,2.059,2.015,2.015,0,0,1-.622,1.465A2.041,2.041,0,0,1,225.254,465.947Zm-18.29-23.877a3.136,3.136,0,0,1-1.295-.272,3.374,3.374,0,0,1-1-.69,3.246,3.246,0,0,1,1.03-5.287,3.311,3.311,0,0,1,2.536,0,3.25,3.25,0,0,1,1.027,5.286,3.374,3.374,0,0,1-1,.69A3.134,3.134,0,0,1,206.964,442.07Zm0-3.8a.516.516,0,0,0-.208.038.533.533,0,0,0-.176.115.545.545,0,0,0-.115.174.529.529,0,0,0-.038.209.516.516,0,0,0,.038.209.55.55,0,0,0,.115.174.657.657,0,0,0,.2.134.744.744,0,0,0,.367,0,.646.646,0,0,0,.2-.134.527.527,0,0,0,.116-.176.52.52,0,0,0,.037-.208.521.521,0,0,0-.153-.384.53.53,0,0,0-.383-.153Z" transform="translate(-195.689 -435.568)" fill="#2e2e2e"/>
          </g>
          <g id="Group_993" data-name="Group 993" transform="translate(47.593)">
            <path id="Path_1570" data-name="Path 1570" d="M234.857,464.739h-6.82a.7.7,0,0,1-.5-.2.652.652,0,0,1-.206-.49.7.7,0,0,1,.7-.7h6.82a2.737,2.737,0,0,0,1.1-.224,2.8,2.8,0,0,0,.894-.61,2.992,2.992,0,0,0,.6-.893,2.675,2.675,0,0,0,.224-1.091V447.213a.7.7,0,1,1,1.408,0V460.53a4.05,4.05,0,0,1-.335,1.64,4.239,4.239,0,0,1-2.242,2.234A4.116,4.116,0,0,1,234.857,464.739Zm-5.189-25.766a1.919,1.919,0,0,1,.146-.748,1.855,1.855,0,0,1,.4-.609,1.9,1.9,0,0,1,2.681,0,2,2,0,0,1,.412.609,1.848,1.848,0,0,1,.154.748,1.784,1.784,0,0,1-.154.739,2.019,2.019,0,0,1-.412.6,1.878,1.878,0,0,1-1.341.55,1.878,1.878,0,0,1-1.889-1.89Z" transform="translate(-225.979 -435.715)" fill="#2e2e2e"/>
            <path id="Path_1571" data-name="Path 1571" d="M234.71,465.947h-6.82a2.05,2.05,0,1,1,0-4.1h6.82a1.389,1.389,0,0,0,.562-.111,1.444,1.444,0,0,0,.465-.315,1.637,1.637,0,0,0,.329-.493,1.322,1.322,0,0,0,.108-.546V447.068a2.049,2.049,0,0,1,.6-1.456,2.109,2.109,0,0,1,2.911,0,2.045,2.045,0,0,1,.6,1.456v13.315a5.41,5.41,0,0,1-.448,2.184A5.592,5.592,0,0,1,236.9,465.5,5.478,5.478,0,0,1,234.71,465.947Zm-3.3-23.877a3.232,3.232,0,0,1-3.244-3.243,3.3,3.3,0,0,1,.25-1.268,3.209,3.209,0,0,1,1.728-1.74,3.311,3.311,0,0,1,2.536,0,3.223,3.223,0,0,1,1.027.691,3.34,3.34,0,0,1,.695,1.022,3.2,3.2,0,0,1,.269,1.292,3.118,3.118,0,0,1-.274,1.294,3.354,3.354,0,0,1-.689,1,3.22,3.22,0,0,1-2.3.946Zm0-3.8a.521.521,0,0,0-.207.038.543.543,0,0,0-.176.115.509.509,0,0,0-.109.171.582.582,0,0,0-.044.23.516.516,0,0,0,.038.208.538.538,0,0,0,.115.175.554.554,0,0,0,.176.116.59.59,0,0,0,.42,0,.53.53,0,0,0,.171-.115.656.656,0,0,0,.135-.2.443.443,0,0,0,.035-.184.481.481,0,0,0-.042-.2.639.639,0,0,0-.129-.2.538.538,0,0,0-.171-.114A.526.526,0,0,0,231.411,438.273Z" transform="translate(-225.832 -435.568)" fill="#2e2e2e"/>
          </g>
        </g>
      </g>
    </g>
  </g>
</svg>
