<svg xmlns="http://www.w3.org/2000/svg" id="maintenance" width="13.867" height="13.867" viewBox="0 0 13.867 13.867">
    <defs>
        <style>
            .cls-1{fill:#fff}
        </style>
    </defs>
    <g id="Group_1052" data-name="Group 1052" transform="translate(3.277)">
        <g id="Group_1051" data-name="Group 1051">
            <path id="Path_1588" d="M127.094 0h-4.875A1.22 1.22 0 0 0 121 1.219V3.71a1.22 1.22 0 0 0 1.219 1.219h4.875a1.22 1.22 0 0 0 1.219-1.219V1.219A1.22 1.22 0 0 0 127.094 0z" class="cls-1" data-name="Path 1588" transform="translate(-121)"/>
        </g>
    </g>
    <g id="Group_1054" data-name="Group 1054" transform="translate(0 5.742)">
        <g id="Group_1053" data-name="Group 1053">
            <path id="Path_1589" d="M13.054 216.063h-.813v-.406a1.22 1.22 0 0 0-1.219-1.219H7.34v-.815h1.218a.4.4 0 1 0 0-.81h-.406V212H5.715v.813h-.407a.4.4 0 1 0 0 .81h1.219v.815H2.844a1.22 1.22 0 0 0-1.219 1.219v.406H.813a.812.812 0 0 0-.813.813v.813a.813.813 0 0 0 .813.813h.813v.813h-.407a.406.406 0 1 0 0 .813h1.625a.406.406 0 1 0 0-.812h-.406v-.816h.812a.813.813 0 0 0 .813-.812v-.812a.812.812 0 0 0-.813-.812h-.812v-.406a.407.407 0 0 1 .406-.406h3.683v.813h-.812a.812.812 0 0 0-.813.813v.813a.813.813 0 0 0 .813.813h.813v.813h-.407a.406.406 0 1 0 0 .813h1.625a.406.406 0 1 0 0-.812H7.34v-.818h.813a.813.813 0 0 0 .813-.812v-.812a.812.812 0 0 0-.813-.812H7.34v-.812h3.683a.407.407 0 0 1 .406.406v.406h-.813a.812.812 0 0 0-.813.813v.813a.813.813 0 0 0 .813.813h.813v.813h-.406a.406.406 0 1 0 0 .813h1.625a.406.406 0 1 0 0-.812h-.406v-.817h.813a.813.813 0 0 0 .813-.812v-.812a.812.812 0 0 0-.814-.813z" class="cls-1" data-name="Path 1589" transform="translate(0 -212)"/>
        </g>
    </g>
</svg>
