<?xml version="1.0" encoding="utf-8"?>
<!-- Generator: Adobe Illustrator 23.0.3, SVG Export Plug-In . SVG Version: 6.00 Build 0)  -->
<svg version="1.1" id="Layer_1" xmlns="http://www.w3.org/2000/svg" xmlns:xlink="http://www.w3.org/1999/xlink" x="0px" y="0px"
	 viewBox="0 0 16.1 16.8" style="enable-background:new 0 0 16.1 16.8;" xml:space="preserve">
<style type="text/css">
	.st0{fill:#8D97A1;}
	.st1{fill:#8C969F;}
</style>
<path id="Path_1597_1_" class="st0" d="M14.9,1.8h-2.5V1c-0.1-0.4-0.5-0.6-0.8-0.5c-0.2,0.1-0.4,0.3-0.5,0.5v0.8H8.7V1
	C8.6,0.7,8.3,0.4,7.9,0.5C7.6,0.6,7.5,0.8,7.4,1v0.8H5V1C4.9,0.7,4.5,0.4,4.2,0.5C3.9,0.6,3.7,0.8,3.7,1v0.8H1.2
	C0.8,1.7,0.5,2,0.5,2.3v13.5c0,0.3,0.3,0.6,0.7,0.5h13.8c0.3,0,0.6-0.2,0.7-0.5V2.3C15.6,2,15.3,1.7,14.9,1.8z M14.3,15.2H1.8V2.8
	h1.8v0.6C3.8,3.8,4.1,4,4.5,3.9C4.7,3.8,4.9,3.7,5,3.4V2.8h2.4v0.6C7.5,3.8,7.9,4,8.2,3.9c0.2-0.1,0.4-0.3,0.5-0.5V2.8h2.4v0.6
	c0.1,0.4,0.5,0.6,0.8,0.5c0.2-0.1,0.4-0.3,0.5-0.5V2.8h1.8L14.3,15.2z"/>
<path class="st1" d="M1.1,16.8c-0.5,0-1-0.4-1-1L0,2.3c0.1-0.7,0.6-1.1,1.2-1l2,0l0-0.4C3.3,0.5,3.6,0.1,4,0C4.4,0,4.7,0,4.9,0.2
	c0.3,0.2,0.5,0.4,0.5,0.7l0,0.1v0.3h1.4l0-0.4C7,0.5,7.3,0.1,7.8,0C8.1,0,8.4,0,8.7,0.2c0.3,0.2,0.5,0.4,0.5,0.7l0,0.1v0.3h1.4
	l0-0.4c0.1-0.4,0.4-0.8,0.9-0.9c0.6-0.2,1.3,0.2,1.4,0.9l0,0.1v0.3h2c0.6,0,1.1,0.4,1.2,1l0,13.5c-0.1,0.7-0.6,1.1-1.2,1l-13.7,0
	C1.1,16.8,1.1,16.8,1.1,16.8z M1,15.7c0,0,0.1,0,0.1,0l13.8,0c0.1,0,0.2,0,0.2-0.1l0-13.4c0,0,0,0-0.1,0c0,0,0,0,0,0l-0.1,0h-3V1.1
	C11.9,1,11.8,1,11.7,1c-0.1,0-0.1,0-0.1,0.1v1.2H8.2V1.1C8.2,1,8.1,1,8,1C8,1,7.9,1.1,7.9,1.1v1.2H4.5V1.1c0,0-0.1-0.1-0.1-0.1
	c0,0-0.1,0-0.1,0c-0.1,0-0.1,0-0.1,0.1v1.2h-3C1.1,2.3,1,2.3,1,2.4L1,15.7C1,15.7,1,15.7,1,15.7z M14.8,15.7H1.3V2.3h2.8v1
	c0,0.1,0.1,0.1,0.2,0.1c0.1,0,0.1,0,0.1-0.1v-1h3.4v1c0,0.1,0.1,0.1,0.2,0.1c0.1,0,0.1,0,0.1-0.1v-1h3.4v1c0,0.1,0.1,0.1,0.2,0.1
	c0.1,0,0.1,0,0.1-0.1v-1h2.8V15.7z M2.3,14.7h11.5V3.3h-0.8l0,0.2c-0.1,0.4-0.4,0.7-0.9,0.9c-0.6,0.2-1.3-0.2-1.4-0.9l0-0.2H9.2
	l0,0.2C9.1,4,8.8,4.3,8.3,4.4C7.7,4.6,7.1,4.2,6.9,3.5l0-0.2H5.5l0,0.2C5.4,4,5.1,4.3,4.6,4.4C4,4.6,3.3,4.2,3.2,3.5l0-0.2H2.3V14.7
	z"/>
<path id="Path_1598_1_" class="st0" d="M12,6.9H4.1c-0.4,0-0.7,0.3-0.7,0.7s0.3,0.7,0.7,0.7H12c0.4,0,0.7-0.3,0.7-0.7
	S12.4,6.9,12,6.9z"/>
<path class="st1" d="M12,8.8H4.1C3.5,8.8,3,8.2,3,7.6c0-0.6,0.5-1.2,1.2-1.2H12c0.6,0,1.2,0.5,1.2,1.2C13.2,8.2,12.6,8.8,12,8.8z
	 M4.1,7.4C4,7.4,4,7.5,4,7.6S4,7.8,4.1,7.8H12c0.1,0,0.2-0.1,0.2-0.2S12.1,7.4,12,7.4H4.1z"/>
<path id="Path_1599_1_" class="st0" d="M12,10.6H4.1c-0.4,0-0.7,0.3-0.7,0.7S3.8,12,4.1,12H12c0.4,0,0.7-0.3,0.7-0.7
	S12.4,10.6,12,10.6z"/>
<path class="st1" d="M12,12.5H4.1c-0.6,0-1.2-0.5-1.2-1.2s0.5-1.2,1.2-1.2H12c0.6,0,1.2,0.5,1.2,1.2S12.6,12.5,12,12.5z M4.1,11.1
	C4,11.1,4,11.2,4,11.3s0.1,0.2,0.2,0.2H12c0.1,0,0.2-0.1,0.2-0.2s-0.1-0.2-0.2-0.2H4.1z"/>
</svg>
