<svg id="Group_123" data-name="Group 123" xmlns="http://www.w3.org/2000/svg" width="14.192" height="10.8" viewBox="0 0 14.192 10.8">
  <path id="Path_1522" data-name="Path 1522" d="M12.459,57.75H1.735A1.737,1.737,0,0,0,0,59.485v7.329A1.737,1.737,0,0,0,1.735,68.55H12.456a1.737,1.737,0,0,0,1.735-1.735V59.488A1.735,1.735,0,0,0,12.459,57.75Zm.943,9.065a.944.944,0,0,1-.943.943H1.735a.944.944,0,0,1-.943-.943V59.488a.944.944,0,0,1,.943-.943H12.456a.944.944,0,0,1,.943.943v7.326Z" transform="translate(0 -57.75)" fill="#4e4e4e"/>
  <path id="Path_1523" data-name="Path 1523" d="M63.065,112.709l3.471-3.113a.4.4,0,1,0-.531-.59l-4.786,4.3-.934-.834s-.006-.006-.006-.009a.587.587,0,0,0-.065-.056l-3.8-3.4a.4.4,0,1,0-.529.593l3.512,3.139-3.5,3.274a.4.4,0,0,0-.018.561.406.406,0,0,0,.291.126.4.4,0,0,0,.27-.106l3.55-3.321.963.86a.4.4,0,0,0,.529,0l.99-.887L66,116.594a.4.4,0,0,0,.561-.015.4.4,0,0,0-.015-.561Z" transform="translate(-54.115 -107.4)" fill="#4e4e4e"/>
</svg>
