<svg xmlns="http://www.w3.org/2000/svg" xmlns:xlink="http://www.w3.org/1999/xlink" width="70.2" height="104.4" viewBox="0 0 70.2 104.4">
  <defs>
    <filter id="Path_7" x="0" y="0" width="70.2" height="104.4" filterUnits="userSpaceOnUse">
      <feOffset dx="-5" input="SourceAlpha"/>
      <feGaussianBlur stdDeviation="6" result="blur"/>
      <feFlood flood-opacity="0.129"/>
      <feComposite operator="in" in2="blur"/>
      <feComposite in="SourceGraphic"/>
    </filter>
  </defs>
  <g id="Group_12" data-name="Group 12" transform="translate(23 18)">
    <g transform="matrix(1, 0, 0, 1, -23, -18)" filter="url(#Path_7)">
      <path id="Path_7-2" data-name="Path 7" d="M34.2,0V68.4A34.2,34.2,0,0,1,34.2,0Z" transform="translate(23 18)" fill="#fff"/>
    </g>
    <g id="next" transform="translate(13.734 24.19)">
      <path id="Chevron_Right_1_" d="M65.211,9.614,55.9.306a1.045,1.045,0,1,0-1.48,1.477l8.573,8.569L54.42,18.921A1.046,1.046,0,1,0,55.9,20.4l9.311-9.308A1.055,1.055,0,0,0,65.211,9.614Z" transform="translate(-54.113 0)" fill="#303030"/>
    </g>
  </g>
</svg>
