<svg xmlns="http://www.w3.org/2000/svg" width="19.503" height="16.884" viewBox="0 0 19.503 16.884">
  <path id="order" d="M9.093-.8,6.125-1.229,6.69.721,9.564.8,9.435.056A4,4,0,0,1,9.093-.8Zm3.419,8.9a1.45,1.45,0,1,1-1.45,1.45A1.45,1.45,0,0,1,12.512,8.1Zm.217,1.233a.307.307,0,1,0,0,.435A.308.308,0,0,0,12.73,9.333ZM5.745,8.1a1.45,1.45,0,1,1-1.45,1.45A1.45,1.45,0,0,1,5.745,8.1Zm.217,1.233a.307.307,0,1,0,0,.435A.308.308,0,0,0,5.962,9.333Zm4.893-7.769L11.226,3.7a3.776,3.776,0,0,0,2.165-1.549,4.018,4.018,0,0,1-2.536-.583Zm4.031.124a4.909,4.909,0,0,1-4.011,3.236l-6.068.794a.471.471,0,0,0-.289.711.477.477,0,0,0,.425.231H13.9a.572.572,0,0,1,0,1.143H4.943A1.625,1.625,0,0,1,3.461,5.489a1.665,1.665,0,0,1,.25-.383L.761-2.154.046-2.672a1.4,1.4,0,0,1-1.829-.457A1.406,1.406,0,0,1-1.4-5.079,1.406,1.406,0,0,1,.551-4.7a1.414,1.414,0,0,1,.2,1.124l.7.507,7.5,1.095a4.026,4.026,0,0,1,4.024-3.914A4.013,4.013,0,0,1,15.825-4.7l.681-.681a.572.572,0,0,1,.808,0,.571.571,0,0,1,0,.808l-.8.8a4.029,4.029,0,0,1-1.63,5.466ZM11.3-1.652a.572.572,0,0,1,0-.808.571.571,0,0,1,.808,0l.739.739,2.173-2.173a2.892,2.892,0,0,0-4.078,0,2.883,2.883,0,0,0,0,4.077,2.883,2.883,0,0,0,4.077,0,2.884,2.884,0,0,0,.642-3.1l-2.41,2.41a.571.571,0,0,1-.808,0ZM-.395-4.061a.266.266,0,0,0-.481.1.266.266,0,0,0,.409.273.27.27,0,0,0,.072-.37ZM4.728,4.578c.6-.062,1.223-.158,1.825-.237l-.726-2.5L3.589,1.774ZM7.023,1.869,7.7,4.191l2.4-.315L9.763,1.945ZM3.121.621,5.495.687l-.607-2.1-2.755-.4Zm0,0" transform="translate(2.022 5.883)" fill="#fff" fill-rule="evenodd"/>
</svg>
