<?xml version="1.0" encoding="utf-8"?>
<!-- Generator: Adobe Illustrator 23.0.3, SVG Export Plug-In . SVG Version: 6.00 Build 0)  -->
<svg version="1.1" id="Layer_1" xmlns="http://www.w3.org/2000/svg" xmlns:xlink="http://www.w3.org/1999/xlink" x="0px" y="0px"
	 viewBox="0 0 15.9 17.2" style="enable-background:new 0 0 15.9 17.2;" xml:space="preserve">
<style type="text/css">
	.st0{fill:#8C969F;}
</style>
<g id="package" transform="translate(0.5 0.505)">
	<g>
		<path id="Path_1592_1_" class="st0" d="M14.9,3.8c0-0.1,0-0.1,0-0.2c-0.1-0.1-0.2-0.2-0.3-0.2L7.6,0C7.5,0,7.4,0,7.3,0l-7,3.4
			C0.1,3.5,0,3.7,0,3.8v8.6c0,0.2,0.1,0.3,0.2,0.4l7,3.4c0,0,0,0,0,0c0,0,0,0,0,0c0,0,0,0,0,0l0,0c0,0,0,0,0,0s0,0,0,0h0
			c0,0,0,0,0,0c0,0,0,0,0,0h0c0,0,0,0,0,0c0,0,0,0,0,0l0,0c0,0,0,0,0,0c0,0,0,0,0,0c0,0,0,0,0,0l7.1-3.4c0.1-0.1,0.2-0.2,0.2-0.4
			L14.9,3.8C14.9,3.8,14.9,3.8,14.9,3.8z M7.4,0.9l6.1,3l-2.2,1.1L5.2,2L7.4,0.9z M7.4,6.8l-6.1-3l2.9-1.4l6.1,3L7.4,6.8z M0.8,4.5
			l6.2,3v7.6l-6.2-3V4.5z M7.9,15.1V7.5l2.9-1.4v2c0,0.2,0.2,0.4,0.4,0.4s0.4-0.2,0.4-0.4V5.7l2.5-1.2v7.6L7.9,15.1z"/>
		<path class="st0" d="M7.5,16.7L7,16.6l-7-3.4c-0.3-0.1-0.5-0.5-0.5-0.8V3.8C-0.5,3.4-0.3,3.1,0,3l7-3.4c0.3-0.1,0.5-0.1,0.8,0
			l6.9,3.4C15,3,15.2,3.2,15.3,3.4c0,0,0,0,0,0l0.1,0v8.9c0,0.4-0.2,0.7-0.5,0.8l-7.3,3.5C7.6,16.7,7.6,16.7,7.5,16.7L7.5,16.7z
			 M7,16.6C7.1,16.6,7.1,16.6,7,16.6L7,16.6z M1.3,11.8l5.2,2.5V7.8L1.3,5.3V11.8z M8.4,7.8v6.5l5.2-2.5V5.3L12.1,6v2.1
			c0,0.5-0.4,0.9-0.9,0.9s-0.9-0.4-0.9-0.9V6.9L8.4,7.8z M2.5,3.8l5,2.4l1.8-0.9L4.3,3L2.5,3.8z M6.3,2l5,2.4l1.1-0.5l-5-2.4L6.3,2z
			 M14.9,3.8L14.9,3.8z"/>
	</g>
</g>
</svg>
