<svg xmlns="http://www.w3.org/2000/svg" width="15.772" height="13.801" viewBox="0 0 15.772 13.801">
  <path id="shopping-basket" d="M15.772,34.635H13.094l-2.814-4.69a.493.493,0,1,0-.845.507l2.509,4.182H3.828l2.509-4.182a.493.493,0,1,0-.845-.507l-2.814,4.69H0v.986H1.07L2.322,42.3a1.479,1.479,0,0,0,1.454,1.207H12A1.479,1.479,0,0,0,13.45,42.3l1.253-6.68h1.07S15.772,34.635,15.772,34.635Zm-3.291,7.484a.492.492,0,0,1-.484.4H3.776a.493.493,0,0,1-.485-.4l-1.219-6.5H13.7l-1.219,6.5Z" transform="translate(0 -29.706)" fill="#4e4e4e"/>
</svg>
