<svg xmlns="http://www.w3.org/2000/svg" width="20.615" height="26" viewBox="0 0 20.615 26">
  <g id="shopping-bag2" transform="translate(-53.02)">
    <g id="Group_970" data-name="Group 970" transform="translate(53.02)">
      <g id="Group_969" data-name="Group 969">
        <path id="Path_1533" data-name="Path 1533" d="M73.623,21.441,72.462,6.81a1.829,1.829,0,0,0-1.815-1.681H68.353v-.1a5.026,5.026,0,1,0-10.052,0v.1H56.009a1.828,1.828,0,0,0-1.815,1.679L53.032,21.443A4.234,4.234,0,0,0,57.253,26H69.4a4.234,4.234,0,0,0,4.221-4.559ZM59.825,5.026a3.5,3.5,0,0,1,7.006,0v.1H59.825ZM71.391,23.608a2.683,2.683,0,0,1-1.989.869H57.254a2.71,2.71,0,0,1-2.7-2.916L55.712,6.926a.3.3,0,0,1,.3-.275H58.3V8.527a.761.761,0,0,0,1.523,0V6.652h7.006V8.527a.761.761,0,1,0,1.523,0V6.652h2.293a.3.3,0,0,1,.3.277L72.1,21.559A2.683,2.683,0,0,1,71.391,23.608Z" transform="translate(-53.02)" fill="#fff"/>
      </g>
    </g>
    <path id="Union_3" data-name="Union 3" d="M-10164.152-4840.5h0v0h0v0Z" transform="translate(10227.5 4857)" fill="none" stroke="#fff" stroke-linecap="round" stroke-linejoin="round" stroke-width="1.5"/>
  </g>
</svg>
