<svg xmlns="http://www.w3.org/2000/svg" width="11.855" height="11.337" viewBox="0 0 11.855 11.337">
    <defs>
        <style>
            .cls-1{fill:#fff}
        </style>
    </defs>
    <path id="star" d="M6.5 1.4l1.338 2.712a.638.638 0 0 0 .481.349l2.99.434a.638.638 0 0 1 .354 1.089L9.5 8.093a.638.638 0 0 0-.183.565l.511 2.978a.639.639 0 0 1-.926.673L6.225 10.9a.639.639 0 0 0-.594 0l-2.674 1.409a.638.638 0 0 1-.926-.673l.511-2.978a.638.638 0 0 0-.183-.565L.194 5.984A.638.638 0 0 1 .548 4.9l2.99-.434a.638.638 0 0 0 .481-.349L5.356 1.4a.638.638 0 0 1 1.144 0z" class="cls-1" transform="translate(-.001 -1.047)"/>
</svg>
