<svg xmlns="http://www.w3.org/2000/svg" xmlns:xlink="http://www.w3.org/1999/xlink" width="358.637" height="234.537" viewBox="0 0 358.637 234.537">
  <defs>
    <linearGradient id="linear-gradient" x1="-1.474" y1="1.13" x2="-2.026" y2="0.119" gradientUnits="objectBoundingBox">
      <stop offset="0" stop-color="#fff"/>
      <stop offset="1" stop-color="#e5e3fd"/>
    </linearGradient>
  </defs>
  <g id="Layer_2" data-name="Layer 2" transform="translate(0 0.026)">
    <g id="_ëîé_1" data-name="‘ëîé_1" transform="translate(0 -0.026)">
      <path id="Path_1673" data-name="Path 1673" d="M436.308,226.3l6.678-13.114c16.965-33.307,37.585-62.007,35.779-101.143C477.1,75.988,460.931,40.9,430.905,19.853,396.369-4.354,343.279-8.48,309.08,18.825c-14.509,11.59-24.137,28.428-37.7,41.067-15.4,14.354-35.465,21.281-55.3,27.048-13.99,4.069-27.942,8.938-40.089,16.977-44.106,29.213-29.376,78.828-18.275,121.36Z" transform="translate(-122.473 0.026)" fill="url(#linear-gradient)"/>
      <g id="Group_1360" data-name="Group 1360" transform="translate(141.962 182.705)">
        <path id="Path_1674" data-name="Path 1674" d="M931.35,1258.358a32.74,32.74,0,0,1,4.763.533l5.82-4.651,4.145,1.794,5.38,5.13,7.541-.272.793-8.479,5.535-.693-4.436,24.222-25.868-.266S927.749,1258.715,931.35,1258.358Z" transform="translate(-921.689 -1231.769)" fill="#b7adfb"/>
        <rect id="Rectangle_800" data-name="Rectangle 800" width="1.619" height="40.612" transform="translate(6.707 19.363) rotate(-58.18)" fill="#9d92fb"/>
        <rect id="Rectangle_801" data-name="Rectangle 801" width="1.619" height="44.3" transform="matrix(0.98, -0.2, 0.2, 0.98, 2.639, 0.652)" fill="#9d92fb"/>
        <rect id="Rectangle_802" data-name="Rectangle 802" width="1.619" height="29.509" transform="matrix(0.527, -0.85, 0.85, 0.527, 8.839, 29.821)" fill="#9d92fb"/>
        <rect id="Rectangle_803" data-name="Rectangle 803" width="1.619" height="9.309" transform="translate(10.966 40.229) rotate(-58.18)" fill="#9d92fb"/>
        <rect id="Rectangle_804" data-name="Rectangle 804" width="44.3" height="1.619" transform="matrix(0.2, -0.98, 0.98, 0.2, 38.421, 44.022)" fill="#9d92fb"/>
        <rect id="Rectangle_805" data-name="Rectangle 805" width="51.069" height="1.619" fill="#9d92fb"/>
        <rect id="Rectangle_806" data-name="Rectangle 806" width="41.935" height="1.619" transform="matrix(0.967, -0.254, 0.254, 0.967, 6.374, 15.201)" fill="#9d92fb"/>
        <rect id="Rectangle_807" data-name="Rectangle 807" width="38.571" height="1.619" transform="matrix(0.967, -0.254, 0.254, 0.967, 7.913, 22.745)" fill="#9d92fb"/>
        <rect id="Rectangle_808" data-name="Rectangle 808" width="35.268" height="1.622" transform="translate(8.995 31.528) rotate(-14.452)" fill="#9d92fb"/>
        <rect id="Rectangle_809" data-name="Rectangle 809" width="31.845" height="1.619" transform="matrix(0.967, -0.254, 0.254, 0.967, 11.005, 37.81)" fill="#9d92fb"/>
      </g>
      <circle id="Ellipse_151" data-name="Ellipse 151" cx="3.815" cy="3.815" r="3.815" transform="matrix(0.16, -0.987, 0.987, 0.16, 240.089, 54.61)" fill="#e9a527"/>
      <path id="Path_1675" data-name="Path 1675" d="M1230.541,574.327c-11.657-.256-23.475-7.841-30.218-13.018-3.52-2.7-5.655-4.748-5.655-4.748l-10.138-17.715,4.285-1.755L1212.8,556.1l.58.46,14.231,4.12a7.552,7.552,0,0,1,2.239.044C1237.9,562.021,1246.749,574.683,1230.541,574.327Z" transform="translate(-992.757 -450.132)" fill="#74cdfc"/>
      <path id="Path_1676" data-name="Path 1676" d="M1317.061,666.584l-4.763,6.152c-11.657-.256-23.475-7.841-30.218-13.018l12.482-5.208.58.46,14.231,4.12a7.547,7.547,0,0,1,2.239.044Z" transform="translate(-1074.514 -548.542)" fill="#4980ee"/>
      <path id="Path_1677" data-name="Path 1677" d="M1413.683,630.869l-11.109,9.115s-1.261-1.731-2.718-3.686c-1.039-1.4-2.179-2.914-3.032-3.987a14.336,14.336,0,0,0-1.227-1.441c-.855-.712,7.9-3.989,7.9-3.989Z" transform="translate(-1169.602 -525.385)" fill="#eaaaab"/>
      <rect id="Rectangle_810" data-name="Rectangle 810" width="115.459" height="3.886" transform="matrix(0.127, -0.992, 0.992, 0.127, 98.577, 226.727)" fill="#3a2887"/>
      <path id="Path_1678" data-name="Path 1678" d="M1408.249,577.421a9.845,9.845,0,0,1,1.692.089c2.428.358,4.187,2.08,3.751,4.613-.34,1.969,1.765,3.4,1.264,5.288-.346,1.31-1.907,2.174-3.076,2.624a4.513,4.513,0,0,1-2.718.223c-3.152-.81-5.076-5.223-5.519-8.113a4.2,4.2,0,0,1,.534-3.2C1404.986,577.855,1406.7,577.463,1408.249,577.421Z" transform="translate(-1176.322 -483.929)" fill="#272440"/>
      <rect id="Rectangle_811" data-name="Rectangle 811" width="3.886" height="115.458" transform="matrix(0.992, -0.127, 0.127, 0.992, 205.262, 112.465)" fill="#3a2887"/>
      <g id="Group_1361" data-name="Group 1361" transform="translate(54.729 67.69)">
        <path id="Path_1679" data-name="Path 1679" d="M458.168,467.962s-.389-6.476,1.417-10.119,3.178-4.481,5.254-4.441,2.569,3.423,1.53,5.382S463.177,463.86,458.168,467.962Z" transform="translate(-438.691 -447.682)" fill="#e5e3fc"/>
        <path id="Path_1680" data-name="Path 1680" d="M407.425,433.766s-4.632-4.533-5.733-8.451-.648-5.456.92-6.818,4.2.81,4.744,2.968S408.394,427.374,407.425,433.766Z" transform="translate(-390.881 -418.074)" fill="#e5e3fc"/>
        <path id="Path_1681" data-name="Path 1681" d="M471.59,516.2s1.554-7.109,4.611-10.488,4.794-3.868,7.022-3.193,1.731,4.476.011,6.274S478.242,513.3,471.59,516.2Z" transform="translate(-449.97 -488.627)" fill="#e5e3fc"/>
        <path id="Path_1682" data-name="Path 1682" d="M488.78,559.042s4.255-5.9,8.4-7.786,5.937-1.638,7.711-.133-.194,4.8-2.48,5.76S496.035,559.034,488.78,559.042Z" transform="translate(-464.377 -528.574)" fill="#e5e3fc"/>
        <path id="Path_1683" data-name="Path 1683" d="M484.76,621.254s4.277-.971,6.9-.162,3.338,1.619,3.541,3.016-2,2.09-3.423,1.619A20.873,20.873,0,0,1,484.76,621.254Z" transform="translate(-461.008 -587.954)" fill="#e5e3fc"/>
        <path id="Path_1684" data-name="Path 1684" d="M372.979,495.392s-2.869-5.82-6.241-8.095-4.98-2.318-6.762-1.258-.538,4.247,1.336,5.435S366.6,494.312,372.979,495.392Z" transform="translate(-355.702 -474.474)" fill="#e5e3fc"/>
        <path id="Path_1685" data-name="Path 1685" d="M365.434,553.227s-4.87-5.406-9.2-6.829-6.079-.986-7.68.7.712,4.747,3.1,5.458S358.22,554,365.434,553.227Z" transform="translate(-346.409 -524.906)" fill="#e5e3fc"/>
        <path id="Path_1686" data-name="Path 1686" d="M356.091,603.325s-6.618-3.021-11.156-2.6-5.969,1.517-6.766,3.7,2.543,4.07,5.019,3.774S349.784,606.913,356.091,603.325Z" transform="translate(-338.049 -571.119)" fill="#e5e3fc"/>
        <path id="Path_1687" data-name="Path 1687" d="M420.726,630.23s-4.2,1.274-6.081,3.274-2.095,3.068-1.582,4.371,2.773.826,3.771-.293A20.951,20.951,0,0,0,420.726,630.23Z" transform="translate(-400.717 -595.882)" fill="#e5e3fc"/>
        <path id="Path_1688" data-name="Path 1688" d="M435.283,497.42c.152.578.382,1.41.678,2.459.423,1.486.981,3.4,1.642,5.653l.256.874c.028.091.053.178.079.267l.092.314c.521,1.765,1.1,3.695,1.71,5.751.042.147.086.295.131.444.024.083.05.162.074.251h0c.016.053.031.105.045.162.295.979.6,1.988.9,3.016l.049.162v.018c.028.091.055.183.084.274s.061.212.094.324c.008.023.015.045.021.071,3.215,10.7,7.124,23.538,10.216,33.513.052.162.1.338.162.507,2.244,7.25,4.034,12.913,4.77,15.021l.562-.248c-.714-2.053-2.446-7.53-4.629-14.571-.053-.162-.105-.338-.162-.508-3.1-10.015-7.064-23.032-10.316-33.864l-.068-.23q-.053-.17-.1-.34c-.016-.05-.032-.1-.047-.152a.221.221,0,0,0-.018-.062c-.039-.13-.078-.262-.118-.392q-.429-1.433-.842-2.807c-.066-.225-.134-.452-.2-.675-.636-2.132-1.229-4.132-1.766-5.948-.1-.324-.191-.648-.285-.971-.881-2.993-1.587-5.428-2.04-7.062-.152-.546-.275-1-.368-1.355S435.183,497.036,435.283,497.42Z" transform="translate(-419.532 -484.293)" fill="#e5e3fc"/>
        <path id="Path_1689" data-name="Path 1689" d="M436.224,539.433c.589.745,1.42,1.232,2.022,1.962.251.306.733-.076.486-.38-.6-.732-1.433-1.221-2.02-1.962a.309.309,0,0,0-.486.38Z" transform="translate(-420.276 -519.37)" fill="#e5e3fc"/>
        <path id="Path_1690" data-name="Path 1690" d="M453.1,532.393l-1.439,3.693a.307.307,0,0,0,.573.22q.722-1.846,1.439-3.69A.308.308,0,0,0,453.1,532.393Z" transform="translate(-433.248 -513.727)" fill="#e5e3fc"/>
        <path id="Path_1691" data-name="Path 1691" d="M465.1,580.947a4.629,4.629,0,0,1-1.318,2.179c-.316.241.066.722.382.486a5.189,5.189,0,0,0,1.509-2.438c.118-.376-.455-.6-.573-.223Z" transform="translate(-443.324 -554.417)" fill="#e5e3fc"/>
        <path id="Path_1692" data-name="Path 1692" d="M446.572,588.494a10.009,10.009,0,0,0,1.261.547c.254.1,1.111.366,1.177.539.144.369.706.121.563-.248s-.725-.538-1.049-.674a15.082,15.082,0,0,1-1.583-.657c-.342-.193-.712.3-.369.486Z" transform="translate(-428.888 -560.454)" fill="#e5e3fc"/>
        <path id="Path_1693" data-name="Path 1693" d="M474.366,600.857a16.072,16.072,0,0,0-2.2,1.09c-.63.4-1.143.971-1.815,1.3-.356.173-.11.737.248.563a11.381,11.381,0,0,0,1.619-1.156,12.02,12.02,0,0,1,2.4-1.239.308.308,0,0,0-.246-.563Z" transform="translate(-448.786 -571.242)" fill="#e5e3fc"/>
        <path id="Path_1694" data-name="Path 1694" d="M439.8,615.7a12.435,12.435,0,0,1,2.841.209,10.621,10.621,0,0,1,1.965.382c.4.1.469-.528.079-.609a14.583,14.583,0,0,0-4.983-.591A.308.308,0,0,0,439.8,615.7Z" transform="translate(-423.035 -583.134)" fill="#e5e3fc"/>
        <path id="Path_1695" data-name="Path 1695" d="M473.041,617.752c-.971-.324-1.977-.562-2.94-.926a.308.308,0,0,0-.223.573c.963.363,1.964.6,2.938.926C473.191,618.449,473.416,617.878,473.041,617.752Z" transform="translate(-448.375 -584.63)" fill="#e5e3fc"/>
        <path id="Path_1696" data-name="Path 1696" d="M455.1,620.272a4.189,4.189,0,0,1,1.187-1.444,5.443,5.443,0,0,1,1.444-1.036.308.308,0,0,0-.246-.563,6.23,6.23,0,0,0-1.711,1.239,4.526,4.526,0,0,0-1.247,1.582A.308.308,0,0,0,455.1,620.272Z" transform="translate(-435.65 -584.968)" fill="#e5e3fc"/>
      </g>
      <g id="Group_1362" data-name="Group 1362" transform="translate(39.568 112.3)">
        <path id="Path_1697" data-name="Path 1697" d="M302.862,713.517s-4.086-2.339-5.577-4.881-1.457-3.711-.607-4.954,3.1-.2,3.874,1.211A22.512,22.512,0,0,1,302.862,713.517Z" transform="translate(-287.722 -701.588)" fill="#e5e3fc"/>
        <path id="Path_1698" data-name="Path 1698" d="M255.594,741.016s-4.6,1-7.41.117-3.562-1.781-3.771-3.267,2.165-2.226,3.686-1.7A22.611,22.611,0,0,1,255.594,741.016Z" transform="translate(-244.4 -729.136)" fill="#e5e3fc"/>
        <path id="Path_1699" data-name="Path 1699" d="M344.755,710.809s-3.7-3.767-4.533-6.962-.44-4.446.855-5.529,3.4.729,3.811,2.487S345.646,705.622,344.755,710.809Z" transform="translate(-324.34 -697.285)" fill="#e5e3fc"/>
        <path id="Path_1700" data-name="Path 1700" d="M380.586,706.611s-1.889-4.928-1.383-8.194,1.366-4.248,2.984-4.734,2.833,2.024,2.508,3.8S383.469,702.205,380.586,706.611Z" transform="translate(-357.306 -693.622)" fill="#e5e3fc"/>
        <path id="Path_1701" data-name="Path 1701" d="M397.22,755.115a12.357,12.357,0,0,1,2.644-4.256c1.533-1.274,2.314-1.378,3.238-.949s.473,2.045-.382,2.718A15.3,15.3,0,0,1,397.22,755.115Z" transform="translate(-372.479 -740.606)" fill="#e5e3fc"/>
        <path id="Path_1702" data-name="Path 1702" d="M278.774,776.37s-4.671-.571-7.389.572-3.387,2.1-3.452,3.6,2.364,2.014,3.829,1.35A22.5,22.5,0,0,0,278.774,776.37Z" transform="translate(-264.122 -762.854)" fill="#e5e3fc"/>
        <path id="Path_1703" data-name="Path 1703" d="M312.293,788.71s-5.216.809-7.8,2.869-3.015,3.3-2.626,4.94,3.164,1.457,4.541.291S309.9,793.4,312.293,788.71Z" transform="translate(-292.459 -773.315)" fill="#e5e3fc"/>
        <path id="Path_1704" data-name="Path 1704" d="M341.871,802s-4.464,2.809-6.006,5.73-1.457,4.226-.444,5.577,3.481.074,4.282-1.543S341.539,807.245,341.871,802Z" transform="translate(-320.064 -784.454)" fill="#e5e3fc"/>
        <path id="Path_1705" data-name="Path 1705" d="M389.078,799.84a12.364,12.364,0,0,0-.431,4.991c.465,1.938,1.028,2.49,2.025,2.7s1.6-1.355,1.321-2.406A15.246,15.246,0,0,0,389.078,799.84Z" transform="translate(-365.182 -782.643)" fill="#e5e3fc"/>
        <path id="Path_1706" data-name="Path 1706" d="M301.3,761.461c.41.138,1.005.324,1.761.565,1.069.335,2.454.759,4.081,1.253l.633.191h0l.189.057h0l.227.068h0c1.276.385,2.676.81,4.167,1.25l.324.094h0l.18.053.117.034,2.192.648h0l.115.034h.013l.2.06.23.068h0l.052.015c4.272,1.266,9.018,2.66,13.635,4.007,3.385.988,6.7,1.943,9.714,2.814l.7.2c-.053-.162-.105-.338-.162-.508l-.7-.2c-3.12-.9-6.559-1.894-10.057-2.914-4.409-1.3-8.912-2.61-12.983-3.816l-.162-.05-.246-.073-.112-.032h0l-.04-.013h0l-.283-.084h0l-2.045-.6-.486-.147h0c-1.548-.461-2.993-.894-4.31-1.3l-.7-.21c-2.165-.648-3.923-1.195-5.095-1.567h0c-.39-.125-.716-.232-.971-.324S301.024,761.369,301.3,761.461Z" transform="translate(-291.979 -750.116)" fill="#e5e3fc"/>
        <path id="Path_1707" data-name="Path 1707" d="M327.289,775.385c.686-.062,1.313-.371,1.995-.445a.224.224,0,1,0-.04-.445c-.683.074-1.31.385-1.995.447a.223.223,0,0,0,.04.444Z" transform="translate(-313.68 -761.401)" fill="#e5e3fc"/>
        <path id="Path_1708" data-name="Path 1708" d="M332.6,760.171l1.668,2.341a.223.223,0,0,0,.363-.261l-1.672-2.339a.223.223,0,0,0-.363.259Z" transform="translate(-318.286 -749.112)" fill="#e5e3fc"/>
        <path id="Path_1709" data-name="Path 1709" d="M366.741,772.224a3.376,3.376,0,0,1,.8,1.666.223.223,0,0,0,.444-.04,3.776,3.776,0,0,0-.879-1.885C366.922,771.745,366.558,772,366.741,772.224Z" transform="translate(-346.892 -759.211)" fill="#e5e3fc"/>
        <path id="Path_1710" data-name="Path 1710" d="M361.139,785.326a7.463,7.463,0,0,0,.834-.547c.162-.115.664-.528.795-.5.282.06.355-.38.073-.44s-.614.227-.826.369a10.952,10.952,0,0,1-1.028.7c-.253.129-.1.55.152.419Z" transform="translate(-342.003 -769.225)" fill="#e5e3fc"/>
        <path id="Path_1711" data-name="Path 1711" d="M386.781,766.412a11.367,11.367,0,0,0-.214,1.766,14.678,14.678,0,0,1,.07,1.619c-.036.285.4.359.44.074a7.913,7.913,0,0,0-.06-1.439,8.692,8.692,0,0,1,.2-1.943.222.222,0,0,0-.439-.073Z" transform="translate(-363.551 -754.476)" fill="#e5e3fc"/>
        <path id="Path_1712" data-name="Path 1712" d="M375.094,791.9a9.383,9.383,0,0,1,1.256-1.642,7.8,7.8,0,0,1,1.013-1.041c.22-.2-.133-.486-.338-.29a10.619,10.619,0,0,0-2.338,2.788.223.223,0,0,0,.406.185Z" transform="translate(-353.581 -773.443)" fill="#e5e3fc"/>
        <path id="Path_1713" data-name="Path 1713" d="M389.342,779.133c-.584.463-1.133.971-1.729,1.415a.224.224,0,0,0,.259.364c.6-.439,1.145-.954,1.729-1.415C389.827,779.319,389.569,778.955,389.342,779.133Z" transform="translate(-364.349 -765.249)" fill="#e5e3fc"/>
        <path id="Path_1714" data-name="Path 1714" d="M389.334,789.634a3.045,3.045,0,0,1-.4-1.3,4.107,4.107,0,0,1-.055-1.3.223.223,0,0,0-.439-.074,4.6,4.6,0,0,0,.071,1.531,3.315,3.315,0,0,0,.465,1.384.223.223,0,0,0,.363-.259Z" transform="translate(-365.088 -771.717)" fill="#e5e3fc"/>
      </g>
      <g id="Group_1363" data-name="Group 1363" transform="translate(263.305 37.868)">
        <path id="Path_1715" data-name="Path 1715" d="M1685.915,303.148s-1.57-6.3-4.384-9.228-4.371-3.322-6.342-2.663-1.426,4.036.152,5.594S1679.912,300.74,1685.915,303.148Z" transform="translate(-1666.222 -281.736)" fill="#d4d2fc"/>
        <path id="Path_1716" data-name="Path 1716" d="M1738.056,250.035s3.056-5.723,2.935-9.787-1.018-5.4-2.914-6.228-3.764,2.038-3.638,4.253S1735.214,244.223,1738.056,250.035Z" transform="translate(-1716.936 -233.874)" fill="#d4d2fc"/>
        <path id="Path_1717" data-name="Path 1717" d="M1665.756,358.846s-3.612-6.314-7.541-8.624-5.733-2.252-7.656-.937-.311,4.789,1.868,5.99S1658.542,358.077,1665.756,358.846Z" transform="translate(-1645.922 -329.836)" fill="#d4d2fc"/>
        <path id="Path_1718" data-name="Path 1718" d="M1644.411,408.976s-5.828-4.357-10.352-4.909-6.152.215-7.4,2.184,1.619,4.517,4.1,4.75S1637.487,411.142,1644.411,408.976Z" transform="translate(-1626.362 -376.367)" fill="#d4d2fc"/>
        <path id="Path_1719" data-name="Path 1719" d="M1699.48,450.78s-4.371.355-6.638,1.91-2.7,2.553-2.474,3.937,2.535,1.4,3.75.513A20.962,20.962,0,0,0,1699.48,450.78Z" transform="translate(-1679.962 -415.663)" fill="#d4d2fc"/>
        <path id="Path_1720" data-name="Path 1720" d="M1762.15,298.691s.994-6.413,3.531-9.588,4.047-3.706,6.074-3.227,1.781,3.886.354,5.584S1767.914,295.749,1762.15,298.691Z" transform="translate(-1740.166 -277.329)" fill="#d4d2fc"/>
        <path id="Path_1721" data-name="Path 1721" d="M1765.55,352.661s3.024-6.617,6.729-9.272,5.5-2.762,7.54-1.632.741,4.742-1.32,6.136S1772.664,351.241,1765.55,352.661Z" transform="translate(-1743.016 -323.721)" fill="#d4d2fc"/>
        <path id="Path_1722" data-name="Path 1722" d="M1778.54,401.26s5.411-4.865,9.865-5.828,6.152-.342,7.565,1.506-1.208,4.645-3.653,5.1S1785.633,402.792,1778.54,401.26Z" transform="translate(-1753.903 -368.899)" fill="#d4d2fc"/>
        <path id="Path_1723" data-name="Path 1723" d="M1770.91,450s4.387-.04,6.783,1.3,2.914,2.3,2.82,3.7-2.4,1.619-3.687.852A20.887,20.887,0,0,1,1770.91,450Z" transform="translate(-1747.508 -415.009)" fill="#d4d2fc"/>
        <path id="Path_1724" data-name="Path 1724" d="M1753.5,315.78c.029.6.06,1.457.091,2.55.042,1.545.086,3.544.128,5.887,0,.3.011.6.018.91v.6c.031,1.839.062,3.853.092,6v.724h0v.162c.013,1.025.029,2.077.041,3.151v.881c.141,11.171.257,24.592.3,35.035v.529c.032,7.59.02,13.53-.049,15.761l-.61-.068c.066-2.173.078-7.917.05-15.288v-.533c-.042-10.478-.162-24.086-.3-35.393v-1.23q-.02-1.5-.039-2.93c0-.236,0-.473-.01-.7-.032-2.226-.065-4.31-.1-6.206,0-.342-.011-.675-.016-1-.057-3.121-.113-5.655-.162-7.349-.018-.565-.037-1.035-.055-1.4S1753.48,315.384,1753.5,315.78Z" transform="translate(-1732.395 -302.31)" fill="#d4d2fc"/>
        <path id="Path_1725" data-name="Path 1725" d="M1758.371,356.2c-.338.886-.986,1.6-1.341,2.477a.308.308,0,0,1-.575-.22c.356-.878,1-1.593,1.341-2.477a.308.308,0,1,1,.575.22Z" transform="translate(-1735.374 -336.043)" fill="#d4d2fc"/>
        <path id="Path_1726" data-name="Path 1726" d="M1739.947,356.73l2.48,3.091a.309.309,0,1,1-.486.382l-2.479-3.087a.31.31,0,0,1,.486-.385Z" transform="translate(-1721.094 -336.745)" fill="#d4d2fc"/>
        <path id="Path_1727" data-name="Path 1727" d="M1743.266,406.573a4.627,4.627,0,0,0,1.912,1.684.308.308,0,0,1-.22.575,5.2,5.2,0,0,1-2.171-1.873c-.225-.324.254-.711.486-.385Z" transform="translate(-1723.888 -378.51)" fill="#d4d2fc"/>
        <path id="Path_1728" data-name="Path 1728" d="M1759.417,406.139a10.372,10.372,0,0,1-1.039.9c-.212.172-.949.682-.962.866-.026.4-.638.324-.61-.066s.529-.732.8-.958a15.044,15.044,0,0,0,1.315-1.1C1759.184,405.493,1759.685,405.849,1759.417,406.139Z" transform="translate(-1735.686 -377.859)" fill="#d4d2fc"/>
        <path id="Path_1729" data-name="Path 1729" d="M1727.647,432.431a15.863,15.863,0,0,1,2.428.38,21.307,21.307,0,0,0,2.124.7c.39.058.324.67-.066.61a11,11,0,0,1-1.888-.618,12.082,12.082,0,0,0-2.66-.463.307.307,0,0,1,.066-.61Z" transform="translate(-1710.977 -400.284)" fill="#d4d2fc"/>
        <path id="Path_1730" data-name="Path 1730" d="M1761.722,430.309a12.936,12.936,0,0,0-2.649,1.051,10.811,10.811,0,0,0-1.76.954c-.353.217-.605-.361-.259-.557a14.622,14.622,0,0,1,4.577-2.056A.308.308,0,0,1,1761.722,430.309Z" transform="translate(-1735.757 -397.994)" fill="#d4d2fc"/>
        <path id="Path_1731" data-name="Path 1731" d="M1740.584,441.925c.834-.6,1.718-1.133,2.527-1.765a.31.31,0,0,1,.384.486c-.809.636-1.693,1.162-2.526,1.765C1740.645,442.642,1740.263,442.165,1740.584,441.925Z" transform="translate(-1721.99 -406.706)" fill="#d4d2fc"/>
        <path id="Path_1732" data-name="Path 1732" d="M1757.79,443.28a4.192,4.192,0,0,0-1.566-1.022,5.643,5.643,0,0,0-1.689-.557.307.307,0,0,1,.066-.61,6.293,6.293,0,0,1,2,.669,4.593,4.593,0,0,1,1.663,1.133.31.31,0,0,1-.486.385Z" transform="translate(-1733.564 -407.542)" fill="#d4d2fc"/>
      </g>
      <g id="Group_1364" data-name="Group 1364" transform="translate(284.516 76.526)">
        <path id="Path_1733" data-name="Path 1733" d="M1926.593,484.158s3.2-3.456,3.858-6.329.277-3.976-.905-4.907-3.016.738-3.335,2.315S1925.672,479.557,1926.593,484.158Z" transform="translate(-1898.646 -472.654)" fill="#d4d2fc"/>
        <path id="Path_1734" data-name="Path 1734" d="M1953.21,497.145s4.7-.421,7.1-2.1,2.871-2.764,2.62-4.248-2.733-1.473-4.026-.516A22.394,22.394,0,0,0,1953.21,497.145Z" transform="translate(-1921.505 -486.864)" fill="#d4d2fc"/>
        <path id="Path_1735" data-name="Path 1735" d="M1885.661,494.9s2.4-4.7,2.234-8-.912-4.371-2.471-5.019-3.029,1.716-2.891,3.515S1883.26,490.221,1885.661,494.9Z" transform="translate(-1862.264 -480.289)" fill="#d4d2fc"/>
        <path id="Path_1736" data-name="Path 1736" d="M1847.365,503.63s.324-5.268-1.133-8.233-2.577-3.649-4.266-3.622-2.095,2.78-1.253,4.371S1843.3,500.293,1847.365,503.63Z" transform="translate(-1826.865 -488.68)" fill="#d4d2fc"/>
        <path id="Path_1737" data-name="Path 1737" d="M1839.682,557.123a12.351,12.351,0,0,0-3.8-3.269c-1.844-.756-2.623-.622-3.374.065s.162,2.093,1.179,2.479A15.228,15.228,0,0,0,1839.682,557.123Z" transform="translate(-1820.117 -540.28)" fill="#d4d2fc"/>
        <path id="Path_1738" data-name="Path 1738" d="M1935.84,543.382s4.287-1.943,7.222-1.669,3.86.989,4.371,2.4-1.651,2.631-3.249,2.428A22.56,22.56,0,0,1,1935.84,543.382Z" transform="translate(-1906.948 -530.511)" fill="#d4d2fc"/>
        <path id="Path_1739" data-name="Path 1739" d="M1908.79,571.487s5.218-.795,8.3.4,3.865,2.242,3.986,3.926-2.59,2.335-4.247,1.638S1912.478,575.238,1908.79,571.487Z" transform="translate(-1884.277 -555.269)" fill="#d4d2fc"/>
        <path id="Path_1740" data-name="Path 1740" d="M1901.13,589.12s5.1,1.349,7.447,3.669,2.652,3.6,2.093,5.189-3.3,1.114-4.548-.188S1903.019,594.03,1901.13,589.12Z" transform="translate(-1877.857 -570.264)" fill="#d4d2fc"/>
        <path id="Path_1741" data-name="Path 1741" d="M1882.008,590.94a12.365,12.365,0,0,1,1.907,4.634c.138,1.988-.235,2.684-1.124,3.181s-1.943-.809-1.98-1.9A15.382,15.382,0,0,1,1882.008,590.94Z" transform="translate(-1860.824 -571.79)" fill="#d4d2fc"/>
        <path id="Path_1742" data-name="Path 1742" d="M1790.712,527.522c-.351.253-.861.615-1.512,1.065-.919.648-2.114,1.457-3.52,2.419l-.546.372h0l-.162.112h0l-.194.131h0c-1.1.751-2.312,1.569-3.6,2.441l-.277.186h0l-.162.1c-.034.023-.066.047-.1.068l-1.9,1.279h0c-.032.024-.066.045-.1.068h-.01l-.173.117c-.065.044-.133.087-.2.134h0l-.044.031c-3.7,2.487-7.807,5.241-11.807,7.909-2.935,1.956-5.811,3.866-8.419,5.594l-.609.4v-.533l.609-.4c2.709-1.792,5.689-3.774,8.72-5.8,3.822-2.55,7.721-5.161,11.244-7.531.045-.032.1-.065.144-.1l.212-.144.1-.063h0l.034-.024h0c.079-.055.162-.109.243-.162h0l1.763-1.188.424-.287h0c1.337-.9,2.59-1.75,3.724-2.522l.6-.411c1.87-1.273,3.384-2.315,4.391-3.021h0c.335-.235.614-.434.829-.593S1790.943,527.352,1790.712,527.522Z" transform="translate(-1757.38 -518.319)" fill="#d4d2fc"/>
        <path id="Path_1743" data-name="Path 1743" d="M1930.988,550.668c-.674.146-1.363.037-2.037.162a.223.223,0,0,1-.1-.435c.674-.133,1.365-.024,2.037-.172a.224.224,0,0,1,.1.437Z" transform="translate(-1900.958 -537.66)" fill="#d4d2fc"/>
        <path id="Path_1744" data-name="Path 1744" d="M1926.469,535.579l-.889,2.733a.223.223,0,0,1-.424-.139l.889-2.733a.223.223,0,0,1,.424.139Z" transform="translate(-1897.987 -525.154)" fill="#d4d2fc"/>
        <path id="Path_1745" data-name="Path 1745" d="M1900.432,557.392a3.341,3.341,0,0,0-.262,1.828.224.224,0,0,1-.437.1,3.768,3.768,0,0,1,.275-2.063C1900.115,556.989,1900.539,557.125,1900.432,557.392Z" transform="translate(-1876.641 -543.437)" fill="#d4d2fc"/>
        <path id="Path_1746" data-name="Path 1746" d="M1902.9,570.709a7.345,7.345,0,0,1-.958-.274c-.189-.058-.792-.3-.908-.238-.251.141-.452-.256-.2-.4s.648.031.9.1a10.642,10.642,0,0,0,1.192.361C1903.2,570.311,1903.179,570.75,1902.9,570.709Z" transform="translate(-1877.509 -554.028)" fill="#d4d2fc"/>
        <path id="Path_1747" data-name="Path 1747" d="M1880.23,558.166a11.69,11.69,0,0,1,.733,1.619,15.211,15.211,0,0,0,.418,1.567c.12.259-.277.463-.4.2a8.076,8.076,0,0,1-.376-1.392,9.2,9.2,0,0,0-.776-1.8.223.223,0,0,1,.4-.2Z" transform="translate(-1859.995 -544.23)" fill="#d4d2fc"/>
        <path id="Path_1748" data-name="Path 1748" d="M1888.584,582.174a8.991,8.991,0,0,0-1.692-1.19,7.769,7.769,0,0,0-1.277-.69c-.27-.128-.021-.51.235-.377a10.639,10.639,0,0,1,3.068,1.959.224.224,0,1,1-.333.3Z" transform="translate(-1864.756 -562.528)" fill="#d4d2fc"/>
        <path id="Path_1749" data-name="Path 1749" d="M1874.118,573.4c.7.266,1.368.593,2.076.831a.223.223,0,0,1-.139.424c-.708-.238-1.378-.565-2.074-.831C1873.713,573.719,1873.849,573.293,1874.118,573.4Z" transform="translate(-1854.982 -557.073)" fill="#d4d2fc"/>
        <path id="Path_1750" data-name="Path 1750" d="M1885.62,580.726a3.087,3.087,0,0,0,0-1.355,4.1,4.1,0,0,0-.333-1.247.223.223,0,0,1,.4-.2,4.645,4.645,0,0,1,.39,1.483,3.325,3.325,0,0,1-.027,1.457.223.223,0,0,1-.424-.139Z" transform="translate(-1864.561 -560.781)" fill="#d4d2fc"/>
      </g>
      <path id="Path_1751" data-name="Path 1751" d="M1913.008,153.24a26.62,26.62,0,1,1,26.616-26.624A26.649,26.649,0,0,1,1913.008,153.24Zm0-50.595a23.977,23.977,0,1,0,23.977,23.977A24,24,0,0,0,1913.008,102.645Z" transform="translate(-1580.987 -83.806)" fill="#fff"/>
      <path id="Path_1752" data-name="Path 1752" d="M26.616,879.044a26.617,26.617,0,1,1,26.618-26.618A26.647,26.647,0,0,1,26.616,879.044Zm0-50.593a23.976,23.976,0,1,0,23.977,23.975A24,24,0,0,0,26.616,828.451Z" transform="translate(0 -692.109)" fill="#fff"/>
      <circle id="Ellipse_152" data-name="Ellipse 152" cx="14.028" cy="14.028" r="14.028" transform="translate(315.131 53.241) rotate(-76.72)" fill="#fff"/>
      <circle id="Ellipse_153" data-name="Ellipse 153" cx="14.028" cy="14.028" r="14.028" transform="translate(107.391 90.765) rotate(-80.87)" fill="#fff"/>
      <path id="Path_1753" data-name="Path 1753" d="M2101.6,620.907a3.609,3.609,0,1,1-2.764-.015A3.611,3.611,0,0,1,2101.6,620.907Z" transform="translate(-1757.159 -520.143)" fill="#d4d2fc"/>
      <path id="Path_1754" data-name="Path 1754" d="M764.833,1115.957a2.147,2.147,0,1,1-2.812,1.148A2.147,2.147,0,0,1,764.833,1115.957Z" transform="translate(-638.511 -935.14)" fill="#d4d2fc"/>
      <path id="Path_1755" data-name="Path 1755" d="M2074.943,602.721a7.157,7.157,0,1,0,3.912-3.9A7.2,7.2,0,0,0,2074.943,602.721Zm11.846-1.481a6.732,6.732,0,0,1-7.808,10.48,6.637,6.637,0,0,1-2.395-1.7,6.732,6.732,0,0,1,7.609-10.709,6.66,6.66,0,0,1,2.59,1.935Z" transform="translate(-1738.543 -501.421)" fill="#d4d2fc"/>
      <path id="Path_1756" data-name="Path 1756" d="M797.035,799.563a7.206,7.206,0,0,0,.847,7.067A7.1,7.1,0,0,0,800.888,809a7.211,7.211,0,1,0-3.853-9.439Zm11.846-1.481a6.732,6.732,0,0,1-7.808,10.475,6.639,6.639,0,0,1-2.394-1.7,6.732,6.732,0,0,1,7.609-10.71,6.662,6.662,0,0,1,2.594,1.94Z" transform="translate(-667.526 -666.405)" fill="#d4d2fc"/>
      <path id="Path_1757" data-name="Path 1757" d="M1109.681,349.917a3.238,3.238,0,1,1,3.957-2.3A3.238,3.238,0,0,1,1109.681,349.917Z" transform="translate(-928.004 -287.923)" fill="#fff"/>
      <path id="Path_1758" data-name="Path 1758" d="M1208.341,351.4a3.238,3.238,0,1,1,3.957-2.3,3.238,3.238,0,0,1-3.957,2.3Z" transform="translate(-1010.691 -289.164)" fill="#fff"/>
      <path id="Path_1759" data-name="Path 1759" d="M1277.944,213.143a1.609,1.609,0,1,1,1.967-1.146A1.609,1.609,0,0,1,1277.944,213.143Z" transform="translate(-1070.043 -175.978)" fill="#fff"/>
      <path id="Path_1760" data-name="Path 1760" d="M1100.1,331.816a6.421,6.421,0,1,0-2.987,3.954A6.458,6.458,0,0,0,1100.1,331.816Zm-10.332,2.794a6.036,6.036,0,0,1,5.623-10.281,5.934,5.934,0,0,1,2.338,1.216,6.034,6.034,0,1,1-7.961,9.065Z" transform="translate(-911.349 -271.304)" fill="#fff"/>
      <path id="Path_1761" data-name="Path 1761" d="M1262.918,275.985a1.159,1.159,0,1,1,1.417-.826A1.159,1.159,0,0,1,1262.918,275.985Z" transform="translate(-1057.73 -229.388)" fill="#fff"/>
      <path id="Path_1762" data-name="Path 1762" d="M1250.147,258.551a4.5,4.5,0,0,0-.063-2.524,4.57,4.57,0,0,0-1.083-1.8,4.474,4.474,0,0,0-2.08-1.214,4.534,4.534,0,1,0,3.227,5.539Zm-7.247,1.962a4.234,4.234,0,0,1,3.944-7.211,4.173,4.173,0,0,1,1.64.853,4.232,4.232,0,1,1-5.584,6.358Z" transform="translate(-1040.278 -211.92)" fill="#fff"/>
      <circle id="Ellipse_154" data-name="Ellipse 154" cx="1.609" cy="1.609" r="1.609" transform="matrix(0.602, -0.799, 0.799, 0.602, 186.408, 39.522)" fill="#fff"/>
      <path id="Path_1763" data-name="Path 1763" d="M1210.92,848.537a3.238,3.238,0,1,1-3.581-2.854A3.238,3.238,0,0,1,1210.92,848.537Z" transform="translate(-1009.464 -708.746)" fill="#fff"/>
      <circle id="Ellipse_155" data-name="Ellipse 155" cx="3.238" cy="3.238" r="3.238" transform="translate(189.026 127.933) rotate(-82.06)" fill="#fff"/>
      <circle id="Ellipse_156" data-name="Ellipse 156" cx="1.609" cy="1.609" r="1.609" transform="translate(164.957 124.749) rotate(-51.44)" fill="#fff"/>
      <path id="Path_1764" data-name="Path 1764" d="M1190.36,825.764a6.424,6.424,0,1,0,4.766,1.354A6.458,6.458,0,0,0,1190.36,825.764Zm6.346,8.621a6.037,6.037,0,0,1-11.62-1.522,5.932,5.932,0,0,1,.287-2.62,6.035,6.035,0,1,1,11.333,4.141Z" transform="translate(-992.845 -692.032)" fill="#fff"/>
      <path id="Path_1765" data-name="Path 1765" d="M1091.182,757.134a1.158,1.158,0,1,1-1.281-1.022A1.158,1.158,0,0,1,1091.182,757.134Z" transform="translate(-912.587 -633.689)" fill="#fff"/>
      <path id="Path_1766" data-name="Path 1766" d="M1072.034,735.278a4.5,4.5,0,0,0-2.331.971,4.566,4.566,0,0,0-1.286,1.661,4.476,4.476,0,0,0-.379,2.378,4.534,4.534,0,1,0,4-5.011Zm4.451,6.045a4.234,4.234,0,0,1-8.148-1.067,4.179,4.179,0,0,1,.2-1.838,4.232,4.232,0,0,1,8.213.889A4.168,4.168,0,0,1,1076.485,741.323Z" transform="translate(-895.101 -616.209)" fill="#fff"/>
      <circle id="Ellipse_157" data-name="Ellipse 157" cx="1.609" cy="1.609" r="1.609" transform="matrix(0.745, -0.667, 0.667, 0.745, 175.42, 141.405)" fill="#fff"/>
      <path id="Path_1767" data-name="Path 1767" d="M1043.643,1331.915l-6.115,7.873-15.738.094s.879-7.447,12.868-7.316l5.487-4.666Z" transform="translate(-856.364 -1112.911)" fill="#221b41"/>
      <g id="Group_1365" data-name="Group 1365" transform="translate(287.102 107.383)">
        <path id="Path_1768" data-name="Path 1768" d="M1937.128,732.77a1.943,1.943,0,0,0,2.238-1.556,1.893,1.893,0,0,0-1.619-2.16,1.943,1.943,0,0,0-2.237,1.557,1.891,1.891,0,0,0,1.619,2.158Z" transform="translate(-1909.238 -718.377)" fill="#fff"/>
        <path id="Path_1769" data-name="Path 1769" d="M1924.084,1061.351c-.45-.593-1.013-1.056-1.5-1.619a11.656,11.656,0,0,1-1-1.548c-.147-.235.233-.448.381-.215a8.688,8.688,0,0,0,1.211,1.752,12.444,12.444,0,0,1,1.285,1.409c.162.22-.215.434-.38.215Z" transform="translate(-1897.56 -993.98)" fill="#6949f9"/>
        <path id="Path_1770" data-name="Path 1770" d="M1884.644,991.625s9.492-3.531-1.755-12.73c0,0-3.207-2.113-5.289-1.666C1876.938,977.37,1874.444,993.232,1884.644,991.625Z" transform="translate(-1860.092 -926.344)" fill="#846dfa"/>
        <path id="Path_1771" data-name="Path 1771" d="M1954.339,1132.164s6.429-7.761,12.269,3.3a8.317,8.317,0,0,1,.422,6.876l-.035.094a1.277,1.277,0,0,0-.071.253,3.431,3.431,0,0,0,.07,1.684.387.387,0,0,1-.324.528c-2.628.324-12.23,1.051-14.972-5.667C1949.42,1133.665,1954.339,1132.164,1954.339,1132.164Z" transform="translate(-1922.319 -1054.03)" fill="#6949f9"/>
        <path id="Path_1772" data-name="Path 1772" d="M1856.573,1085.43s3.492-3.427-1.133-5.462c-4.3-1.889-5.945,1.392-8.291,1.271a.3.3,0,0,0-.324.424C1847.824,1083.735,1851.867,1091.089,1856.573,1085.43Z" transform="translate(-1834.908 -1012.01)" fill="#6949f9"/>
        <path id="Path_1773" data-name="Path 1773" d="M1952.671,1052.711s-3.06-11.466,17.907-9.86C1970.579,1042.852,1970.875,1060.16,1952.671,1052.711Z" transform="translate(-1923.509 -981.266)" fill="#db3256"/>
        <path id="Path_1774" data-name="Path 1774" d="M1931.1,776.46l-1.781,75.564a1.433,1.433,0,1,0,2.864.021c-.1-10.361-.647-72.87.015-75.585Z" transform="translate(-1904.071 -758.131)" fill="#6949f9"/>
        <path id="Path_1775" data-name="Path 1775" d="M1909,681.854c.364.068.581.091.581.091s11.98,1.93,7.985-15.9a10.3,10.3,0,0,1,.288-2.267c.047-.176.1-.346.162-.516,0,0-13.761.266-16.088,8.94C1899.94,679.6,1906.9,681.464,1909,681.854Z" transform="translate(-1880.817 -663.258)" fill="#edc73b"/>
        <path id="Path_1776" data-name="Path 1776" d="M1983.191,726.09s-13.146,2.571-11.98,11.89C1971.209,737.98,1976.868,745.531,1983.191,726.09Z" transform="translate(-1939.116 -715.916)" fill="#5d3abb"/>
        <path id="Path_1777" data-name="Path 1777" d="M1905.567,1112.927a8.671,8.671,0,0,0-2.184-3.3c-.926-.774-2.116-.971-3.05-1.687-.224-.162.091-.468.311-.3a10.659,10.659,0,0,0,1.781.827,6.735,6.735,0,0,1,1.523,1.082,9.433,9.433,0,0,1,2,3.168c.112.248-.269.465-.38.214Z" transform="translate(-1879.71 -1035.65)" fill="#6949f9"/>
        <path id="Path_1778" data-name="Path 1778" d="M1944.44,1140c-1.026-1.379-4.41-1.975-5.7-.706-.2.2-.51-.105-.311-.3,1.514-1.491,5.2-.809,6.392.793C1944.982,1140.011,1944.6,1140.225,1944.44,1140Z" transform="translate(-1911.649 -1061.28)" fill="#6949f9"/>
        <path id="Path_1779" data-name="Path 1779" d="M1886.831,1176.856a5.333,5.333,0,0,0-8.7.486c-.152.23-.534.016-.38-.215a5.792,5.792,0,0,1,9.39-.578c.181.207-.13.51-.312.3Z" transform="translate(-1860.822 -1091.662)" fill="#6949f9"/>
        <path id="Path_1780" data-name="Path 1780" d="M1941.863,989.471a8.732,8.732,0,0,0-1.457.81,6.668,6.668,0,0,1-1.043.85c-.246.134-.469-.233-.222-.367a11.272,11.272,0,0,0,1.153-.944,12.535,12.535,0,0,1,1.344-.716c.246-.138.468.23.222.367Z" transform="translate(-1912.21 -936.323)" fill="#6949f9"/>
        <path id="Path_1781" data-name="Path 1781" d="M1915.851,953.45a9.479,9.479,0,0,0-4.34-2.356c-.266-.091-.151-.5.118-.411a9.978,9.978,0,0,1,4.533,2.466c.183.207-.128.508-.312.3Z" transform="translate(-1889.017 -904.137)" fill="#6949f9"/>
        <path id="Path_1782" data-name="Path 1782" d="M1950.853,843.613c-3.361,2.077-9.274,3.733-10.716,7.8-.091.257-.516.147-.424-.113,1.49-4.209,7.447-5.911,10.917-8.053a.215.215,0,0,1,.223.367Z" transform="translate(-1912.768 -814.083)" fill="#6949f9"/>
        <path id="Path_1783" data-name="Path 1783" d="M1902.3,833.36c-.486-1.635-2.121-3.479-3.265-4.706a16.545,16.545,0,0,0-3.733-3.254c-.246-.134-.024-.5.223-.366a17.07,17.07,0,0,1,4.219,3.758,13.615,13.615,0,0,1,2.982,4.455C1902.808,833.51,1902.384,833.622,1902.3,833.36Z" transform="translate(-1875.471 -798.816)" fill="#6949f9"/>
        <path id="Path_1784" data-name="Path 1784" d="M1948.7,796.571a18.226,18.226,0,0,1-2.744,1.831,12.556,12.556,0,0,1-2.854,1.082c-.279.042-.4-.368-.118-.41a13.428,13.428,0,0,0,2.778-1.062,17.888,17.888,0,0,0,2.717-1.808C1948.712,796.042,1948.934,796.416,1948.7,796.571Z" transform="translate(-1915.387 -774.645)" fill="#5d3abb"/>
        <path id="Path_1785" data-name="Path 1785" d="M1773.386,855.87a18.252,18.252,0,0,1,12.72-2.9,18.841,18.841,0,0,1,5.254,1.619s-4.659-7.716-11.757-4.93c-.436.17-.84.346-1.218.516C1772.6,852.852,1773.386,855.87,1773.386,855.87Z" transform="translate(-1773.351 -818.972)" fill="#846dfa"/>
        <path id="Path_1786" data-name="Path 1786" d="M2004.49,818.6a25.1,25.1,0,0,1,11.352.353,20.278,20.278,0,0,1,10.277,6.393s4-5.14-6.546-10.711c-5.841-3.086-9.842-1.532-12.246.465A11.617,11.617,0,0,0,2004.49,818.6Z" transform="translate(-1967.069 -788.665)" fill="#89f2ff"/>
        <path id="Path_1787" data-name="Path 1787" d="M1778.34,937.32a21.97,21.97,0,0,1,5.323-5.258,23.006,23.006,0,0,1,18.2-3.738,23.932,23.932,0,0,0-7.609-4.574,11.4,11.4,0,0,0-7.028-.351C1780.114,925.537,1778.563,931.964,1778.34,937.32Z" transform="translate(-1777.532 -880.94)" fill="#6949f9"/>
        <path id="Path_1788" data-name="Path 1788" d="M1951,958.134c22.18-3.643,33.281,8.783,33.281,8.783a14.983,14.983,0,0,0-.04-3.638q-.058-.429-.136-.84a13.146,13.146,0,0,0-10.018-10.115c-11.137-2.7-17.4.311-20.519,2.914A11.21,11.21,0,0,0,1951,958.134Z" transform="translate(-1922.239 -904.636)" fill="#846dfa"/>
        <path id="Path_1789" data-name="Path 1789" d="M1908.913,893.464a47.98,47.98,0,0,0,10.614-.988c4.363-1.124,6.359,3.695-3.458,12.531,0,0-.685-2.089-9.651-4.379S1897.932,890.435,1908.913,893.464Z" transform="translate(-1879.617 -855.23)" fill="#89f2ff"/>
        <path id="Path_1790" data-name="Path 1790" d="M1843.74,1186.7s.359.062.952.125c2.838.283,11.053.521,10.865-6.371a2.443,2.443,0,0,0-1.674-2.22,11.443,11.443,0,0,0-2.849-.549,14.731,14.731,0,0,0-4.857.5C1840.41,1179.708,1847.23,1184.285,1843.74,1186.7Z" transform="translate(-1832.344 -1094.372)" fill="#edc73b"/>
        <path id="Path_1791" data-name="Path 1791" d="M1982.565,1152.882a.607.607,0,0,0,1.069-.324,6.558,6.558,0,0,0-.971-3.962c-1.046-1.823-2.438-4.022-4.48-4.967a1.939,1.939,0,0,0-2.571.4c-.861.738-1.833.537-2.718,1.133-.986.659-.787,2.249-.146,3.076.821,1.049,2.506.913,3.724,1.185A12.889,12.889,0,0,1,1982.565,1152.882Z" transform="translate(-1940.015 -1065.593)" fill="#846dfa"/>
        <path id="Path_1792" data-name="Path 1792" d="M1990.828,1062.42a.416.416,0,0,1,.638.512,26.676,26.676,0,0,1-1.676,2.451,10.074,10.074,0,0,1-4.608,3.529c-1.232.463-5.213,1.517-5.129-.782.078-2.147,2.948-2.393,4.517-2.862A18.347,18.347,0,0,0,1990.828,1062.42Z" transform="translate(-1946.587 -997.712)" fill="#a02a50"/>
        <path id="Path_1793" data-name="Path 1793" d="M1860.458,1094.261a.594.594,0,0,1,.81-.3c1.63.733,4.433.743,4.655,2.976.162,1.572-1.721,1.3-2.733,1.077S1859.657,1096.516,1860.458,1094.261Z" transform="translate(-1846.226 -1024.175)" fill="#846dfa"/>
        <path id="Path_1794" data-name="Path 1794" d="M1937.645,904.7a22.057,22.057,0,0,1-5.328.711c-1.943-.094-3.853-.38-5.778-.567-1.1-.107-4.833-.589-3.584,1.619.829,1.457,4.034,1.967,5.584,2.339,1.057.254,2.122.411,3.157.745.789.254,1.506.7,2.284.952a5.813,5.813,0,0,1,2.388-3C1936.775,907.242,1939.612,905.474,1937.645,904.7Z" transform="translate(-1898.522 -865.61)" fill="#fff"/>
        <path id="Path_1795" data-name="Path 1795" d="M1991.97,753.59a43.726,43.726,0,0,1-2.718,5.9c-.44.686-1.7,2.1-2.527,1.015-.648-.845.062-2.051.618-2.731A20.332,20.332,0,0,1,1991.97,753.59Z" transform="translate(-1951.963 -738.964)" fill="#846dfa"/>
        <path id="Path_1796" data-name="Path 1796" d="M1909,681.845c.423-1.713-2.246-2.785-3.274-3.607a4.2,4.2,0,0,1-1.6-4.544c.971-3.654,4.782-5.7,7.88-7.523,1.9-.748,3.343-1.271,4.836-1.985.3-.142.647-.278,1.01-.419.047-.177.1-.346.162-.516,0,0-13.761.266-16.088,8.94C1899.94,679.589,1906.9,681.455,1909,681.845Z" transform="translate(-1880.817 -663.25)" fill="#e9a527"/>
        <path id="Path_1797" data-name="Path 1797" d="M2004.49,828.648a25.1,25.1,0,0,1,11.352.353,4.516,4.516,0,0,1,.523-.312,2.654,2.654,0,0,1,1.58-.108c1.24.176,2.463.625,3.7.913.429.1,1.475.466,1.357-.261-.065-.358-1.093-1.072-1.386-1.3a17.39,17.39,0,0,0-8.6-2.8,29.173,29.173,0,0,0-4.183-.249,6.857,6.857,0,0,0-1.51.254A11.617,11.617,0,0,0,2004.49,828.648Z" transform="translate(-1967.069 -798.711)" fill="#6dc1d5"/>
        <path id="Path_1798" data-name="Path 1798" d="M1820,795.475c.593.118,1.245.162,1.674.261a16.546,16.546,0,0,1,6.047,2.535,18.778,18.778,0,0,1,5.253,1.619s-4.661-7.716-11.759-4.93C1820.782,795.128,1820.377,795.3,1820,795.475Z" transform="translate(-1812.448 -773.128)" fill="#6949f9"/>
        <path id="Path_1799" data-name="Path 1799" d="M1951,978.654c22.18-3.643,33.281,8.783,33.281,8.783a14.983,14.983,0,0,0-.04-3.638,22.21,22.21,0,0,0-3-2.2,45.377,45.377,0,0,0-7.7-4.1,22.03,22.03,0,0,0-7.944-1.2,51.9,51.9,0,0,0-7.345.374c-1.493.215-4.23.743-4.695-.924A11.346,11.346,0,0,0,1951,978.654Z" transform="translate(-1922.239 -925.157)" fill="#6949f9"/>
        <path id="Path_1800" data-name="Path 1800" d="M1811.22,935.972a23.007,23.007,0,0,1,18.2-3.738,23.935,23.935,0,0,0-7.609-4.574,1.755,1.755,0,0,1,.576.947c.181.858-.5,1.051-1.282,1.311-1.591.533-3.283.448-4.857,1.026-1.619.584-2.4,1.826-3.524,2.995A6.5,6.5,0,0,0,1811.22,935.972Z" transform="translate(-1805.089 -884.852)" fill="#5d3abb"/>
        <path id="Path_1801" data-name="Path 1801" d="M1843.74,1186.7s.359.062.952.125a9.069,9.069,0,0,0,1.951-1.164,14.81,14.81,0,0,0,2.239-2.66c.67-.81,1.435-1.425,1.088-2.519-.288-.884-.623-1.8.347-2.456a2.944,2.944,0,0,1,.717-.34,14.732,14.732,0,0,0-4.857.5C1840.41,1179.708,1847.23,1184.285,1843.74,1186.7Z" transform="translate(-1832.344 -1094.372)" fill="#e9a527"/>
        <path id="Path_1802" data-name="Path 1802" d="M1944.265,1099.648c-.524.257-.986.61-1.5.874a8.711,8.711,0,0,0-1.669.971c-.214.177-.528-.123-.311-.3a7.92,7.92,0,0,1,1.573-.94c.584-.29,1.1-.68,1.687-.971C1944.294,1099.158,1944.518,1099.524,1944.265,1099.648Z" transform="translate(-1913.613 -1028.668)" fill="#6949f9"/>
        <path id="Path_1803" data-name="Path 1803" d="M1859.82,1243.12l7.646,25.523h11.142l2.349-7.847.123-.409,5.174-17.266Z" transform="translate(-1845.821 -1149.24)" fill="#846dfa"/>
        <path id="Path_1804" data-name="Path 1804" d="M1859.82,1243.12l7.646,25.523h11.142l2.349-7.847c-8.176-3.076-12.12-10.847-14.027-17.676Z" transform="translate(-1845.821 -1149.24)" fill="#5d3abb"/>
        <rect id="Rectangle_812" data-name="Rectangle 812" width="26.435" height="1.619" transform="translate(13.999 93.07)" fill="#221b41"/>
      </g>
      <g id="Group_1366" data-name="Group 1366" transform="translate(94.43 80.5)">
        <path id="Path_1805" data-name="Path 1805" d="M614.646,571.018c-1.237-.068-2.365.565-4.1-.551-.424-1.519-1.03-3.152-1.58-4.752l.741.377-.942-.958c-.045-.141-.092-.278-.138-.418l.434.094-.648-.774c-.236-.759-.439-1.5-.584-2.2,1.17,1.468,2.428,3.006,3.641,4.585l-.081.648.406-.217A46.536,46.536,0,0,1,614.646,571.018Z" transform="translate(-603.854 -551.375)" fill="#fff"/>
        <path id="Path_1806" data-name="Path 1806" d="M657.484,575.183l-.607.274.387.087a11.752,11.752,0,0,0-1.6,4.936c-.85-.039-1.724-.557-2.639-2.307,1.53-1.894,3.494-4.005,5.935-4.8a9.251,9.251,0,0,0-1.472,1.813Z" transform="translate(-641.728 -561.038)" fill="#921c48"/>
        <path id="Path_1807" data-name="Path 1807" d="M644.319,500.263l-.406.628.346-.136c-.287,2.208-.863,4.489-1.23,6.223-.045.225-.091.44-.128.648-.083.426-.139.85-.18,1.276l-.688,1.035-.565.845,1.119-.516.063-.036a.338.338,0,0,0,0,.057c-.021,1.362.086,2.713.149,4.059.028.583.047,1.166.045,1.745a2.2,2.2,0,0,1-.6,1.5,2.026,2.026,0,0,1-1.467.648,2.433,2.433,0,0,1-.384-.031,2.1,2.1,0,0,1-1.638-1.587,9.241,9.241,0,0,1-.206-3.076,13.76,13.76,0,0,1,.738-3.3,20.017,20.017,0,0,1,1.005-2.354c.162-.311.312-.633.469-.963.933-.429.6-.7.38-.81.037-.084.076-.162.115-.254.544.039.936,0,.162-.374.081-.176.162-.356.238-.537.4-.91.777-1.842,1.133-2.752a37.351,37.351,0,0,0,1.6-5A14.884,14.884,0,0,1,644.319,500.263Z" transform="translate(-629.558 -497.2)" fill="#edc73b"/>
        <path id="Path_1808" data-name="Path 1808" d="M591.5,595.71a.741.741,0,0,1-.426-.2,35.084,35.084,0,0,0-3.492-3.32,11.709,11.709,0,0,0-1.671-.936l.648-.351-1.022.162-.23-.11.434-.236-.686.113a7.8,7.8,0,0,1-1.781-1.115,16.116,16.116,0,0,1,5.741,1.528,22.383,22.383,0,0,1,3.427,2.178A1.284,1.284,0,0,1,591.5,595.71Z" transform="translate(-583.27 -574.741)" fill="#db3256"/>
        <path id="Path_1809" data-name="Path 1809" d="M664.421,592.275h-.939l.673.141-.188.1a6.737,6.737,0,0,0-1.711,1.2l-.063.065a4.794,4.794,0,0,0-.954,1.6l-1.056.227.5.162.382.117c-.063.191-.12.385-.175.578A1.6,1.6,0,0,1,659.1,597.6h-.036a1.591,1.591,0,0,1-1.151-2.364,6.177,6.177,0,0,1,1.4-1.63c.178-.146.361-.283.552-.413.091-.065.185-.123.277-.183s.2-.128.309-.186l.262.84.4-1.1.039-.107a9.488,9.488,0,0,1,4.48-.891C665.261,591.82,664.842,592.045,664.421,592.275Z" transform="translate(-645.655 -576.28)" fill="#5d3abb"/>
        <path id="Path_1810" data-name="Path 1810" d="M593.106,614.5c-.81.843-1.844-.248-2.846-.584-.445-.147-.936-.291-1.457-.408l.476-.686-.984.573a9.433,9.433,0,0,0-2.895-.173,13.586,13.586,0,0,1,1.566-.648l.358.2-.086-.29a7.26,7.26,0,0,1,4.023-.439C593.382,612.5,593.895,613.685,593.106,614.5Z" transform="translate(-585.055 -593.328)" fill="#5d3abb"/>
        <path id="Path_1811" data-name="Path 1811" d="M618.973,589.586h-.029c-1.264.032-2.935-.541-2.775-1.523a4.337,4.337,0,0,0-.115-1.841l.737.4-.923-.963a13.158,13.158,0,0,0-1.957-3.222,17.877,17.877,0,0,1,2.412,1.726l.3.648v-.4c.207.185.411.372.605.567l.162,1.2.283-.737a12.72,12.72,0,0,1,2.09,2.989C620.046,589.02,619.733,589.564,618.973,589.586Z" transform="translate(-608.949 -568.64)" fill="#921c48"/>
        <path id="Path_1812" data-name="Path 1812" d="M663.74,577.686l.063-.036a.338.338,0,0,0,0,.057Z" transform="translate(-650.712 -564.625)" fill="#921c48"/>
        <path id="Path_1813" data-name="Path 1813" d="M652.291,561.917a25.328,25.328,0,0,1,1.4-12.537s-2.527,3.589-1.815,12.583A.784.784,0,0,0,652.291,561.917Z" transform="translate(-640.662 -540.932)" fill="#fff"/>
        <path id="Path_1814" data-name="Path 1814" d="M663.34,609.058a6.124,6.124,0,0,1,2.527-3.758,4.813,4.813,0,0,0-2.848,3.627A.429.429,0,0,0,663.34,609.058Z" transform="translate(-650.108 -587.799)" fill="#fff"/>
        <path id="Path_1815" data-name="Path 1815" d="M627.17,596.1s2.59,3.123,2.535,4.93a3.274,3.274,0,0,1-.512-.058C628.923,600.92,629.743,599.67,627.17,596.1Z" transform="translate(-620.063 -580.088)" fill="#db3256"/>
        <path id="Path_1816" data-name="Path 1816" d="M620.7,627.424a6.44,6.44,0,1,1-12.155-2.974c.053-.1.11-.2.162-.3h11.1A6.409,6.409,0,0,1,620.7,627.424Z" transform="translate(-603.845 -603.597)" fill="#5ca1d3"/>
        <path id="Path_1817" data-name="Path 1817" d="M616.214,629.495c0,2.017-2.985,3.654-6.69,3.678a6.447,6.447,0,0,1-.971-7.331c.288-.021.586-.032.886-.032C613.18,625.81,616.214,627.46,616.214,629.495Z" transform="translate(-603.851 -604.988)" fill="#74cdfc"/>
        <rect id="Rectangle_813" data-name="Rectangle 813" width="12.026" height="1.619" transform="translate(4.381 19.745)" fill="#221b41"/>
      </g>
      <path id="Path_1818" data-name="Path 1818" d="M898.53,1432.9l14.134-.274,14.132-.251,28.266-.4,7.067-.113,7.065-.136q7.067-.125,14.134-.013l7.065.162c2.356.079,4.711.131,7.067.236,4.711.183,9.422.416,14.132.792v.262c-4.71.377-9.421.61-14.132.793-2.356.105-4.711.162-7.067.235l-7.065.162q-7.067.115-14.134-.015l-7.065-.134-7.067-.115L926.8,1433.7l-14.132-.253-14.134-.274Z" transform="translate(-753.06 -1199.876)" fill="#221b41"/>
      <path id="Path_1819" data-name="Path 1819" d="M175.17,1393.282l43.3-.525,43.3-.4,21.649-.251,10.824-.066,5.414.013,5.412.04,10.824.162c3.609.078,7.216.13,10.824.235,7.216.183,14.433.416,21.649.792v.264c-7.216.376-14.433.609-21.649.792-3.609.105-7.216.162-10.824.236l-10.824.162-5.412.04-5.414.013-10.824-.066-21.649-.261-43.3-.395-43.3-.525Z" transform="translate(-146.81 -1166.667)" fill="#221b41"/>
      <rect id="Rectangle_814" data-name="Rectangle 814" width="49.395" height="5.218" transform="translate(240.334 169.39)" fill="#3a2887"/>
      <path id="Path_1820" data-name="Path 1820" d="M1284.812,911.49s-18.942.68-41.629,10.606a5.676,5.676,0,0,0-3.282,6.434c.981,4.321,4.676,11.477,16.46,21.591l23.841,31.662,6.521-1.593s-14.773-37.776-15.7-38.065,23.668-23.1,23.668-23.1Z" transform="translate(-1039.051 -763.917)" fill="#303072"/>
      <path id="Path_1821" data-name="Path 1821" d="M1406.512,652.884c-1.039-1.4-2.179-2.914-3.032-3.988l2.537-2.226C1406.13,646.869,1408.023,649.9,1406.512,652.884Z" transform="translate(-1176.259 -541.971)" fill="#e59193"/>
      <path id="Path_1822" data-name="Path 1822" d="M1595.033,995.679H1557.45V985.91C1578.283,986.027,1595.033,990.356,1595.033,995.679Z" transform="translate(-1305.302 -826.289)" fill="#846dfa"/>
      <rect id="Rectangle_815" data-name="Rectangle 815" width="163.951" height="3.546" transform="translate(72.075 110.671)" fill="#3a2887"/>
      <path id="Path_1823" data-name="Path 1823" d="M1207.809,934.6c.06-.04,6.686,6.921,0,15.651a19.2,19.2,0,0,1-16.724,7.42s-12.366,7.564-34.042,12.366c0,0,2.182,8.705-35.723,34.348l-4.8-4.946,36.228-42.192a13.638,13.638,0,0,1,3.2-2.726l28.046-17.228Z" transform="translate(-935.758 -783.285)" fill="#5653df"/>
      <path id="Path_1824" data-name="Path 1824" d="M1129.4,1019.555l-.461-.667a186.331,186.331,0,0,0,14.954-11.8c10.272-9.01,17.066-17.224,19.645-23.754l.125-.324,2.59.541,1.457-2.458.162-.04a115.876,115.876,0,0,0,18.035-6.413c8.521-3.885,19.316-10.374,22.363-19.188l.766.266c-1.392,4.026-4.426,7.909-9.016,11.537a67.577,67.577,0,0,1-13.789,8.127,117.811,117.811,0,0,1-18,6.416l-1.587,2.663-2.5-.52c-2.752,6.681-9.39,14.671-19.742,23.755A188.886,188.886,0,0,1,1129.4,1019.555Z" transform="translate(-946.167 -800.76)" fill="#303072"/>
      <path id="Path_1825" data-name="Path 1825" d="M1484.347,688.933s-7.8,7.993-25.345,3.9l-2.472-6.432s3.442-12.876-6.5-17.942a10.081,10.081,0,0,1-1.19-.707c-8.174-5.632-1.852-19.528-1.852-19.528s1.619-5.495,9.542-5.3S1484.538,656.57,1484.347,688.933Z" transform="translate(-1210.768 -538.827)" fill="#74cdfc"/>
      <path id="Path_1826" data-name="Path 1826" d="M1108.383,495.774l-1.094-.5a1.145,1.145,0,0,0-1.107.086l-3.772,2.483a2.826,2.826,0,0,0-1.226,1.839l-.683,3.615,3.941-2.093Z" transform="translate(-922.331 -414.998)" fill="#e59193"/>
      <path id="Path_1827" data-name="Path 1827" d="M1480.662,712.059l-2.472-6.432s3.442-12.876-6.5-17.942a10.081,10.081,0,0,1-1.19-.708l3.177-21.118s12.77,3.686,13.347,16.417S1480.662,712.059,1480.662,712.059Z" transform="translate(-1232.429 -558.054)" fill="#4980ee"/>
      <path id="Path_1828" data-name="Path 1828" d="M1106.65,502.285l-3-4.444a4.253,4.253,0,0,0-1.985-1.577l-2.641-1.023a1.245,1.245,0,0,0-1.175.147l-4.575,3.254-5.969,7.222s1.689.957,4.561-1.407,4.619-3.6,4.619-3.6l-.162,3.209s-.338,2.252,1.3,2.872l1.457-3.661,1.3-1.52,3.372,1.721Z" transform="translate(-911.268 -414.987)" fill="#eaaaab"/>
      <path id="Path_1829" data-name="Path 1829" d="M1396.228,668.81s1.171-17.433,10.918-16.622c5.32.442,5.667,8.182,5.722,12.11a59.919,59.919,0,0,1-2.429,18.605c-1.68,5.181-3.949,10.247-5.99,15.3,0,0-2.179,17.84-6.476,31.625h-5.653Z" transform="translate(-1166.906 -546.573)" fill="#74cdfc"/>
      <path id="Path_1830" data-name="Path 1830" d="M1403.694,1138.32l-1.039,2.689a1.9,1.9,0,0,1-.518.741l-3.525,3.076a1.749,1.749,0,0,1-1.6.372l-2.927-.79a2.208,2.208,0,0,1-1.59-1.7l-.878-4.387a2.086,2.086,0,0,1,0-.809l1.146-5.744h3.562l.787,2.556c2.972,1.967,1.005,6.076,1.005,6.076l2.492-.525,1.2-1.417a1.724,1.724,0,0,1,1.281-.61h.282a.34.34,0,0,1,.322.469Z" transform="translate(-1166.282 -948.534)" fill="#eaaaab"/>
      <path id="Path_1831" data-name="Path 1831" d="M1325.149,578.08a11.48,11.48,0,0,1-10.781,1.08,6.192,6.192,0,0,1-1.222-.924,11.771,11.771,0,0,1-2.966-6.091,17.761,17.761,0,0,1-.324-4.8q.146-.868.333-1.721c.123-.568.259-1.133.4-1.682a14.81,14.81,0,0,1,1.065-2.043c.088-.139.175-.274.261-.4,1.043-1.6,1.873-2.608,1.873-2.608,4.63-.685,8.071.18,10.5,1.865l.042.031h0a10.431,10.431,0,0,1,2.428,2.37,10.828,10.828,0,0,1,1.538,2.955,11.135,11.135,0,0,1,.419,1.642C1329.358,571.442,1328.548,575.652,1325.149,578.08Z" transform="translate(-1097.758 -468.206)" fill="#eaaaab"/>
      <rect id="Rectangle_816" data-name="Rectangle 816" width="3.848" height="33.814" transform="translate(262.503 173.598)" fill="#3a2887"/>
      <path id="Path_1832" data-name="Path 1832" d="M1734.991,681.009l-1.891-55.447,7.637-20.852,6.172,2.26-7.195,19.648,2.532,52.427Z" transform="translate(-1452.515 -506.804)" fill="#3a2887"/>
      <path id="Path_1833" data-name="Path 1833" d="M1645.18,1281.1l17.161,16.229,3.238.868c1.133.3.944,2.224-.222,2.224h-5.169l-15.006-12.678Z" transform="translate(-1378.829 -1073.688)" fill="#3a2887"/>
      <path id="Path_1834" data-name="Path 1834" d="M1512.95,1281.1l-17.161,16.229-3.01.81c-1.167.312-.971,2.286.228,2.286h4.933l15-12.678Z" transform="translate(-1250.447 -1073.688)" fill="#3a2887"/>
      <path id="Path_1835" data-name="Path 1835" d="M1625.258,1283.091h-3.848v-6.638l1.039-.9,2.809.9s.2,3.149.28,3.332S1625.258,1283.091,1625.258,1283.091Z" transform="translate(-1358.907 -1069.037)" fill="#3a2887"/>
      <path id="Path_1836" data-name="Path 1836" d="M1443.375,1337.08l2.016,2.836a1.137,1.137,0,0,1-.324,1.632l-7.216,5.731-10.421-.013s.648-3.83,8.165-4.314l2.728-4.637Z" transform="translate(-1196.332 -1120.605)" fill="#221b41"/>
      <path id="Path_1837" data-name="Path 1837" d="M1327.051,577.578c-.016.283-4.353-1.033-7.255,2.194a9.55,9.55,0,0,1-9.617,3.238,17.771,17.771,0,0,1-.324-4.8q.146-.868.334-1.721c.123-.568.259-1.133.4-1.682a14.817,14.817,0,0,1,1.065-2.043c.087-.139.175-.274.261-.4l12.372-.743h.013l.029.031h0C1324.65,571.979,1327.221,574.758,1327.051,577.578Z" transform="translate(-1097.758 -479.072)" fill="#e59193"/>
      <path id="Path_1838" data-name="Path 1838" d="M1322,1393.324l15.829-.273,15.829-.253,31.656-.393,7.914-.113,7.915-.136q7.915-.126,15.829-.013l7.914.154c2.637.078,5.276.129,7.913.235,5.276.183,10.553.416,15.829.793v.262c-5.276.376-10.552.61-15.829.792-2.637.105-5.276.162-7.913.236l-7.914.162q-7.914.113-15.829-.013l-7.915-.136-7.914-.113-31.656-.395-15.829-.251-15.829-.274Z" transform="translate(-1107.971 -1166.708)" fill="#221b41"/>
      <path id="Path_1839" data-name="Path 1839" d="M837.417,520.488H800.59L787.41,490.5h36.827Z" transform="translate(-659.93 -411.085)" fill="#2e2264"/>
      <path id="Path_1840" data-name="Path 1840" d="M825.127,520.488H788.3L775.12,490.5h36.827Z" transform="translate(-649.63 -411.085)" fill="#7052fa"/>
      <path id="Path_1841" data-name="Path 1841" d="M920.208,569.165l-4.358-3.028,1.7-3.027,4.357,3.027Z" transform="translate(-767.576 -471.939)" fill="#aa9ceb"/>
      <path id="Path_1842" data-name="Path 1842" d="M907.5,567.7l-4.76-3.306,1.943-3.453,4.758,3.306Zm-4.12-3.453L907.336,567l1.457-2.6-3.957-2.752Z" transform="translate(-756.588 -470.121)" fill="#aa9ceb"/>
      <rect id="Rectangle_817" data-name="Rectangle 817" width="62.425" height="2.161" transform="translate(138.386 108.745)" fill="#2e2264"/>
      <path id="Path_1843" data-name="Path 1843" d="M1439.947,572.048c-.015.06-.018.042-.024.05s-.01,0-.015,0-.015-.019-.021-.032a.266.266,0,0,1-.023-.092.458.458,0,0,1,.037-.228.936.936,0,0,1,.5-.439,2.658,2.658,0,0,1,.845-.2,6.587,6.587,0,0,1,.945,0,7.344,7.344,0,0,0-.85-.549,3.508,3.508,0,0,0-1-.366,2,2,0,0,0-1.26.162,2.037,2.037,0,0,0-.628.486,2.169,2.169,0,0,0-.257.359,2.277,2.277,0,0,0-.109.211c-.016.04-.032.071-.049.121a.961.961,0,0,0-.05.178Z" transform="translate(-1205.182 -477.844)" fill="#272440"/>
      <path id="Path_1844" data-name="Path 1844" d="M1251.475,489.061c2.731,4.786,5.453,6.662,8.631,6.716a16.7,16.7,0,0,0,7.242-2.079,10.789,10.789,0,0,1,2.249-.81,8.2,8.2,0,0,1,7.135,1.645h0a1.283,1.283,0,0,0,.209,0,3.037,3.037,0,0,1,2.338-.141l1.886-2.328c-3.308-17.239-12.4-9.092-12.4-9.092l-3.34-4.381C1255.02,466.617,1246.906,481.039,1251.475,489.061Z" transform="translate(-1047.771 -397.272)" fill="#272440"/>
      <path id="Path_1845" data-name="Path 1845" d="M1430.846,560.329a13.16,13.16,0,0,0,.672-1.242,11.45,11.45,0,0,0,.531-1.3,6.894,6.894,0,0,0,.338-1.373,3.444,3.444,0,0,0-.062-1.389,3.146,3.146,0,0,1-.293,1.268,5.9,5.9,0,0,1-.631,1.083,9.723,9.723,0,0,1-.779.958,10.038,10.038,0,0,1-.853.834Z" transform="translate(-1198.293 -465.168)" fill="#272440"/>
      <path id="Path_1846" data-name="Path 1846" d="M1273.54,562.607a9.474,9.474,0,0,0-2.1-.648,8.772,8.772,0,0,0-2.1-.162,6.366,6.366,0,0,0-3.9,1.53l-.41.364-.337.324c-.232.206-.476.4-.729.588a10.46,10.46,0,0,1-1.6.96,10.687,10.687,0,0,1-3.562,1.036,10.048,10.048,0,0,1-1.872,0,8.99,8.99,0,0,1-1.863-.416,9.765,9.765,0,0,1-3.431-2.1,19.735,19.735,0,0,1-4.6-7.519,20.282,20.282,0,0,0,4.344,7.889,10.643,10.643,0,0,0,3.533,2.428,9.953,9.953,0,0,0,1.985.57,10.8,10.8,0,0,0,2.014.131,11.451,11.451,0,0,0,3.886-.865,11.194,11.194,0,0,0,1.8-.929,10.32,10.32,0,0,0,.85-.605l.406-.345.353-.275a5.165,5.165,0,0,1,3.27-1.038,7.7,7.7,0,0,1,1.781.248,8.286,8.286,0,0,1,1.7.635l.032.016a.756.756,0,0,0,1.09-.486,1.124,1.124,0,0,0-.5-1.315Z" transform="translate(-1045.13 -466.45)" fill="#272440"/>
      <path id="Path_1847" data-name="Path 1847" d="M1260.221,495.67a7.267,7.267,0,0,0-2.466,4.485,11.139,11.139,0,0,0,.711,5.589,10.118,10.118,0,0,0,1.344,2.5,8,8,0,0,0,.937,1.015c.172.149.338.311.515.448l.555.369a8.607,8.607,0,0,0,4.821,1.224,17.02,17.02,0,0,0,4.753-.818c.761-.257,1.528-.5,2.266-.824a22.459,22.459,0,0,1,2.2-.834l.552-.151c.185-.044.374-.062.56-.094a6.877,6.877,0,0,1,1.124-.081,5.462,5.462,0,0,1,2.182.536,7.167,7.167,0,0,1,3.172,3.677l.989-.546a8.379,8.379,0,0,0-3.848-4.2,6.239,6.239,0,0,0-2.556-.542,7.59,7.59,0,0,0-1.248.131c-.2.042-.41.071-.609.125l-.589.183a24,24,0,0,0-2.237.936c-.714.343-1.457.607-2.189.886a16.57,16.57,0,0,1-4.572.954,8.079,8.079,0,0,1-4.595-1l-.529-.324c-.162-.125-.324-.272-.486-.406a7.355,7.355,0,0,1-.908-.929,9.6,9.6,0,0,1-1.341-2.349,10.822,10.822,0,0,1-.826-5.43A7.286,7.286,0,0,1,1260.221,495.67Z" transform="translate(-1054.036 -415.418)" fill="#504c65"/>
      <path id="Path_1848" data-name="Path 1848" d="M1409.054,587.809s-.062-5.181,3.434-3.905.923,5.99-2,5.99S1409.054,587.809,1409.054,587.809Z" transform="translate(-1180.616 -489.197)" fill="#eaaaab"/>
      <rect id="Rectangle_818" data-name="Rectangle 818" width="1.133" height="29.542" transform="translate(243.791 13.991)" fill="#3a2887"/>
      <rect id="Rectangle_819" data-name="Rectangle 819" width="1.133" height="50.303" transform="translate(268.675 17.624)" fill="#3a2887"/>
      <path id="Path_1849" data-name="Path 1849" d="M1467.5,270.4h-20.03l10.015-10.015h0Z" transform="translate(-1213.127 -218.221)" fill="#3a2887"/>
      <circle id="Ellipse_158" data-name="Ellipse 158" cx="3.805" cy="3.805" r="3.805" transform="translate(127.786 55.016) rotate(-76.85)" fill="#e9a527"/>
      <rect id="Rectangle_820" data-name="Rectangle 820" width="1.133" height="29.542" transform="translate(131.785 13.991)" fill="#3a2887"/>
      <path id="Path_1850" data-name="Path 1850" d="M775.67,270.4H755.64l10.015-10.015h0Z" transform="translate(-633.303 -218.221)" fill="#3a2887"/>
      <path id="Path_1851" data-name="Path 1851" d="M494.965,64.521c-25.01,0-47.582-11.1-57.5-28.274l.981-.567c9.725,16.837,31.912,27.707,56.523,27.707a76.684,76.684,0,0,0,34.941-8.095c10.038-5.165,17.713-12.333,22.209-20.723l1,.536c-4.606,8.6-12.452,15.932-22.688,21.209A77.98,77.98,0,0,1,494.965,64.521Z" transform="translate(-366.636 -28.969)" fill="#3a2887"/>
      <path id="Path_1852" data-name="Path 1852" d="M1323.52,83.285c-15.529,0-29.527-11.135-35.66-28.366l1.067-.38c5.971,16.776,19.549,27.613,34.593,27.613a33.046,33.046,0,0,0,21.324-8.033A45.21,45.21,0,0,0,1358.5,53.41l1.077.355a46.377,46.377,0,0,1-14.007,21.225A34.16,34.16,0,0,1,1323.52,83.285Z" transform="translate(-1079.358 -44.759)" fill="#3a2887"/>
      <path id="Path_1853" data-name="Path 1853" d="M1033.72,24.8c-13.261,0-25.467-8.05-32.65-21.532l1-.533c6.983,13.114,18.814,20.932,31.649,20.932a32.726,32.726,0,0,0,18.987-6.23A42.919,42.919,0,0,0,1066.244,1l1.02.486a43.948,43.948,0,0,1-13.9,16.858A33.779,33.779,0,0,1,1033.72,24.8Z" transform="translate(-838.999 -0.834)" fill="#3a2887"/>
      <g id="Group_1367" data-name="Group 1367" transform="translate(45.444 120.158)">
        <path id="Path_1854" data-name="Path 1854" d="M538.475,772.849a57.99,57.99,0,0,1,1.791,12.337c.146-.133.29-.261.431-.393,9.5-8.733,14.509-16.7,17.108-23.119-11.8,7.816-2.914-.055,1.276-3.644,2.04-6.858,1.247-11.323,1.078-12.087l-.024-.121s-2.972,4.533-5.205,5.056a13.764,13.764,0,0,0-6.337,2.8c-1.991,1.669-1.3,6.408-4.857,7.9,0,5.028-.217,15.4-2.344,1.046C538.536,764.445,537.128,768.113,538.475,772.849Z" transform="translate(-496.309 -745.227)" fill="#87f0fd"/>
        <path id="Path_1855" data-name="Path 1855" d="M374.88,857.62s2.322,15.79,16.19,22.067C391.065,879.687,403.144,878.8,374.88,857.62Z" transform="translate(-359.631 -838.927)" fill="#6949f7"/>
        <path id="Path_1856" data-name="Path 1856" d="M563.147,963.464a13.744,13.744,0,0,0,6.238-10.585s2.458-5.171,6.542-4.483,9.348-7.041,14.44-11.255a13.409,13.409,0,0,1,10.46-3.133s-6.079-1.972-14.046,2.882a102.16,102.16,0,0,0-11.611,7.933l-7.088,4.88S561.839,960.087,563.147,963.464Z" transform="translate(-517.267 -902.616)" fill="#e7a327"/>
        <path id="Path_1857" data-name="Path 1857" d="M553.661,980.484l2.382-5.213c2.382-5.21,2.365-8.838,7.663-11.561,5.213-2.675,13.331-9.581,13.585-9.8-2.647,1.506-7.285,2.037-10.8,2.8-.266,2.132-1.133,6.581-3.436,1.083-.737.393-1.179.876-1.195,1.493-.081,3.076-3.061,4.488-3.061,4.488C546.65,971.389,553.661,980.484,553.661,980.484Z" transform="translate(-507.781 -919.628)" fill="#ebc53b"/>
        <path id="Path_1858" data-name="Path 1858" d="M355.4,780.278a37.564,37.564,0,0,0,5.921,7.378c12.068,11.867,10.258,14.682,10.258,14.682a14.669,14.669,0,0,0,6.034,9.05s4.224-13.475-7.24-23.028c-1.75-1.457-3.367-2.639-4.857-3.657.591,3.186.729,6.335-3.508-2.276-6.018-3.793-9.272-5.828-10.141-17.1C351.863,765.33,350.254,771.77,355.4,780.278Z" transform="translate(-340.141 -761.578)" fill="#826df8"/>
        <path id="Path_1859" data-name="Path 1859" d="M341.62,986.83c.008-.121.024-.214.032-.27A1.868,1.868,0,0,0,341.62,986.83Z" transform="translate(-331.756 -946.991)" fill="#6949f7"/>
        <path id="Path_1860" data-name="Path 1860" d="M357.162,1000.45s5.145.536,5.411,5.229S365.657,1016,367.8,1016c0,0,15.019-20.917-6.7-20.781h-.414c2.267,2.506,6.332,7.329-3-.049-15.482-.526-16.3-5.427-16.219-6.822C341.3,990.089,341.542,997.522,357.162,1000.45Z" transform="translate(-331.608 -948.492)" fill="#5d3ab9"/>
        <path id="Path_1861" data-name="Path 1861" d="M487.832,1135.206a189.088,189.088,0,0,0,1.47,21.558.607.607,0,0,1-.606-.554c-.272-3.257-1.727-19.836-3.222-21.437C481.074,1130.054,487.832,1135.206,487.832,1135.206Z" transform="translate(-451.073 -1069.541)" fill="#5d3ab9"/>
        <path id="Path_1862" data-name="Path 1862" d="M529.094,1072.79s-2.385,9.35-1.47,32.757a.9.9,0,1,1-1.8.028c.078-4.752.555-27.341,2.689-32.671Z" transform="translate(-486.141 -1019.261)" fill="#6949f7"/>
        <path id="Path_1863" data-name="Path 1863" d="M552.086,1115.81l-1.862,26.728a.559.559,0,1,1-1.114-.091l2.428-26.276Z" transform="translate(-505.652 -1055.316)" fill="#ebc53b"/>
        <path id="Path_1864" data-name="Path 1864" d="M568.43,742.524a42.742,42.742,0,0,1-5.033,9.5c-2.5,3.437-4.993,6.834-7.211,10.465a57.186,57.186,0,0,0-5.607,11.485c-1.36,4.051-1.7,8.276-2.707,12.39-.092.376-.675.217-.583-.162.971-4,1.319-8.122,2.59-12.045a54.729,54.729,0,0,1,5.019-10.711,117.713,117.713,0,0,1,6.839-10.2,47.636,47.636,0,0,0,6.1-10.886c.144-.356.727-.2.581.162Z" transform="translate(-504.119 -742.156)" fill="#fff"/>
        <path id="Path_1865" data-name="Path 1865" d="M457.859,935.606c-.011-4.114-.4-7.922-2.54-11.529a46.488,46.488,0,0,0-6.759-8.1c-.269-.28.162-.708.426-.427,2.616,2.728,5.328,5.453,7.174,8.785,1.959,3.539,2.291,7.3,2.3,11.275a.3.3,0,0,1-.6,0Z" transform="translate(-421.311 -887.399)" fill="#5d3ab9"/>
        <path id="Path_1866" data-name="Path 1866" d="M564.146,1049.808c.206-4.533,1.091-9.478,4.132-13.009.126-.149.338.066.212.212-2.979,3.463-3.84,8.365-4.047,12.79-.01.194-.311.194-.3,0Z" transform="translate(-518.25 -989.055)" fill="#e7a327"/>
        <path id="Path_1867" data-name="Path 1867" d="M379.3,1134.758s4.533-5.558,8.208-2.877,8.456,12.605,8.456,12.605,1.658-8.581-5.582-13.677-11.666,2.547-11.666,2.547Z" transform="translate(-362.849 -1066.419)" fill="#901c48"/>
        <path id="Path_1868" data-name="Path 1868" d="M282.081,1139.014s-.4-13.847,5.632-13.761a9.391,9.391,0,0,0,3.636-.675c4.967-7.091,4.646-5.169,3.4-2.087a19.761,19.761,0,0,0,2.4-2.454c.008-.013.021-.024.032-.04a39.5,39.5,0,0,0,2.4-3.306c1.679-2.519,6.581-1.251,8.155-.764.269.079.442.139.486.152-.324-.338-7.527-7.771-16.384-2.989,4.047.908,8.037,2.32-2.449,2.929a15.464,15.464,0,0,1-6.094,5.7C278.26,1124.129,282.081,1139.014,282.081,1139.014Z" transform="translate(-280.692 -1051.695)" fill="#d93256"/>
        <path id="Path_1869" data-name="Path 1869" d="M478.945,1202.911a90.471,90.471,0,0,1,2.129,12.142.376.376,0,1,0,.748-.076c-.324-2.089-1.745-11.161-2.877-13.884C477.669,1198,478.945,1202.911,478.945,1202.911Z" transform="translate(-446.373 -1125.936)" fill="#901c48"/>
        <path id="Path_1870" data-name="Path 1870" d="M356.059,1126.785c-1.749-3.511-9.963-3.225-13.005-1.434-2.877,1.7-4.661,4.577-8.132,5.205-.379.068-.542-.513-.162-.581,4.316-.782,6.411-5.5,10.755-6.2,2.914-.466,9.651-.136,11.064,2.7.172.346,1.112,2.192.939,1.844Z" transform="translate(-325.824 -1061.847)" fill="#fff"/>
        <path id="Path_1871" data-name="Path 1871" d="M540.724,932.808s-3.646,6.516-1.436,16.387a65.776,65.776,0,0,1,11.383-27.026S541.657,927.139,540.724,932.808Z" transform="translate(-496.826 -893.026)" fill="#6949f7"/>
        <path id="Path_1872" data-name="Path 1872" d="M595.6,1102.927c4.289-1.731,5.2-4.012,5.2-4.012s.448-.955,6.973-3.8a11.682,11.682,0,0,0,1.388-.709c-5.212.241-.073-1.768,3.076-2.87a8.743,8.743,0,0,0,1.477-5.236c-1.546,1.366-6.5,2.914-6.5,2.914C594.234,1094.022,595.6,1102.927,595.6,1102.927Z" transform="translate(-544.58 -1030.584)" fill="#e7a327"/>
        <path id="Path_1873" data-name="Path 1873" d="M595.635,1129.443c.648-2.618,2.662-4.454,4.635-6.152a91.839,91.839,0,0,1,7.786-5.594c.133-.091.257.125.126.215-2.448,1.7-4.995,3.274-7.285,5.181-2.087,1.731-4.342,3.685-5.019,6.419a.125.125,0,0,1-.241-.066Z" transform="translate(-544.644 -1056.879)" fill="#fff"/>
        <path id="Path_1874" data-name="Path 1874" d="M556.413,1224.9l-1.977,8.722a.283.283,0,1,1-.549-.134c.342-1.26,1.838-6.818,2.1-8.731C556.277,1222.6,556.413,1224.9,556.413,1224.9Z" transform="translate(-509.646 -1145.852)" fill="#901c48"/>
        <path id="Path_1875" data-name="Path 1875" d="M578.231,1187.71s-3.155,9.591-3.463,14.236a.253.253,0,1,1-.5-.053c.249-1.561,1.666-10.1,3.486-13.98Z" transform="translate(-526.735 -1115.576)" fill="#e7a327"/>
        <path id="Path_1876" data-name="Path 1876" d="M565.18,1196.458c1.422-6.34,4.143-4.876,4.143-4.876,8.951.162,11.874-3.44,12.044-3.661-.152.144-2.689,2.532-7.98,1.176-1.088.924-3.886,3.138-1.585-.486-.3-.109-.594-.225-.9-.356C563.712,1185.217,565.18,1196.458,565.18,1196.458Z" transform="translate(-519.018 -1115.595)" fill="#901c48"/>
        <path id="Path_1877" data-name="Path 1877" d="M490.1,1273.74l-5.709,19.739h-8.322l-1.63-5.639-4.075-14.1Z" transform="translate(-439.653 -1187.678)" fill="#826df8"/>
        <path id="Path_1878" data-name="Path 1878" d="M511.19,1273.74l-5.709,19.739H497.16l-1.63-5.639c5.861-2.9,9.21-8.56,11.124-14.1Z" transform="translate(-460.748 -1187.678)" fill="#5d3ab9"/>
        <rect id="Rectangle_821" data-name="Rectangle 821" width="19.735" height="2.02" transform="translate(30.707 85.263)" fill="#221b41"/>
      </g>
      <path id="Path_1879" data-name="Path 1879" d="M1429.359,1169.41l-1.48,2.976-2.914,1.737-2.165-.408,1.481-1.747,2.492-.525,1.2-1.417a1.725,1.725,0,0,1,1.281-.61Z" transform="translate(-1192.452 -980.081)" fill="#e59193"/>
      <path id="Path_1880" data-name="Path 1880" d="M1373.579,624.66a10.147,10.147,0,0,1,.057,2.148,11.267,11.267,0,0,1-.361,2.132,9.551,9.551,0,0,1-.827,2.02,8.576,8.576,0,0,1-1.311,1.77l-.191.2-.206.188c-.139.121-.269.256-.418.364l-.439.343-.463.308a7.889,7.889,0,0,1-2.021.905,10.623,10.623,0,0,1-1.07.254c-.178.039-.359.058-.541.081s-.361.044-.542.062c-.363.026-.725.029-1.085.037-.363-.019-.724-.039-1.081-.076v-.081c.351-.084.7-.147,1.049-.212s.688-.154,1.03-.23a17.9,17.9,0,0,0,1.988-.6,14.219,14.219,0,0,0,1.87-.827,7.592,7.592,0,0,0,1.666-1.174,7.991,7.991,0,0,0,1.313-1.579,9,9,0,0,0,.894-1.873,11.228,11.228,0,0,0,.612-4.148Z" transform="translate(-1142.4 -523.524)" fill="#fff"/>
      <path id="Path_1881" data-name="Path 1881" d="M1420,662.973a22.8,22.8,0,0,1,.5-2.8,23.407,23.407,0,0,1,.827-2.728,16.985,16.985,0,0,1,1.219-2.59,11.41,11.41,0,0,1,1.735-2.3,8.139,8.139,0,0,1,2.357-1.663,7.7,7.7,0,0,1,2.836-.672c.243,0,.486-.011.732,0l.727.058a4.173,4.173,0,0,1,.738.13,4.873,4.873,0,0,1,2.964,2.2,11.618,11.618,0,0,1,.989,2.752,26.432,26.432,0,0,1,.536,2.823c.136.945.227,1.9.288,2.853s.083,1.906.081,2.859a50.7,50.7,0,0,1-.359,5.7c-.109.945-.256,1.885-.418,2.82-.087.468-.178.934-.277,1.4s-.206.926-.314,1.387l-.081-.015c.231-1.881.41-3.761.523-5.642.05-.941.1-1.881.113-2.822s.027-1.881,0-2.82-.055-1.878-.112-2.814-.13-1.872-.243-2.8-.245-1.855-.44-2.765a10.325,10.325,0,0,0-.855-2.6,4.235,4.235,0,0,0-1.92-1.747,4.065,4.065,0,0,0-.625-.23,3.786,3.786,0,0,0-.648-.13l-.686-.07c-.228-.01-.457,0-.687,0a7.18,7.18,0,0,0-2.67.567,7.671,7.671,0,0,0-2.276,1.533,11.1,11.1,0,0,0-1.742,2.173,16.587,16.587,0,0,0-1.269,2.509,23.12,23.12,0,0,0-.9,2.689,22.79,22.79,0,0,0-.576,2.77Z" transform="translate(-1190.105 -544.945)" fill="#fff"/>
      <path id="Path_1882" data-name="Path 1882" d="M1533.2,930.861a35.239,35.239,0,0,0,6.552,1.005,32.629,32.629,0,0,0,6.594-.2c.272-.042.544-.073.809-.125l.81-.147c.534-.12,1.072-.23,1.6-.384s1.049-.3,1.572-.457l.774-.262c.261-.081.515-.18.769-.278a24.764,24.764,0,0,0,2.99-1.336l.725-.39.709-.423.358-.21.345-.23c.23-.152.465-.3.7-.452l.052.062q-.3.293-.607.58l-.309.286-.324.266-.662.523-.695.486c-.118.078-.231.162-.353.235l-.364.215c-.245.139-.486.293-.733.421l-.758.38c-.251.13-.515.23-.774.347-.515.231-1.054.406-1.587.593-.542.162-1.085.324-1.637.432a27.472,27.472,0,0,1-3.333.52,33.248,33.248,0,0,1-6.7-.036q-1.666-.18-3.306-.507a28.546,28.546,0,0,1-3.238-.826Z" transform="translate(-1284.952 -776.891)" fill="#fff"/>
    </g>
  </g>
</svg>
