<svg xmlns="http://www.w3.org/2000/svg" xmlns:xlink="http://www.w3.org/1999/xlink" width="358.64" height="262.458" viewBox="0 0 358.64 262.458">
  <defs>
    <linearGradient id="linear-gradient" x1="-1.473" y1="1.13" x2="-2.024" y2="0.119" gradientUnits="objectBoundingBox">
      <stop offset="0" stop-color="#fff"/>
      <stop offset="1" stop-color="#e5e3fd"/>
    </linearGradient>
  </defs>
  <g id="Layer_3" data-name="Layer 3" transform="translate(0.005 0.006)">
    <g id="_ëîé_1" data-name="‘ëîé_1" transform="translate(-0.005 -0.006)">
      <path id="Path_1883" data-name="Path 1883" d="M45.818,305.559l-7.187-14.117C20.368,255.587-1.831,224.692.114,182.563c1.8-38.811,19.2-76.583,51.523-99.24,37.178-26.059,94.328-30.5,131.144-1.107,15.617,12.47,25.982,30.59,40.582,44.2,16.576,15.454,38.178,22.911,59.528,29.119,15.06,4.38,30.079,9.622,43.156,18.282,47.48,31.44,31.623,84.851,19.673,130.637Z" transform="translate(0.005 -51.131)" fill="url(#linear-gradient)"/>
      <g id="Group_1370" data-name="Group 1370" transform="translate(141.659 59.158)">
        <path id="Path_1884" data-name="Path 1884" d="M830.5,395.873l.068-47.473,75.875.11-.068,47.473c-.017,11.86-5.727,23.18-15.748,31.2l-8.827,7.072c-4.88,3.913-4.9,12.82-.024,16.745l8.808,7.1c10,8.057,15.673,19.385,15.656,31.245l-.068,47.473L830.3,536.7l.068-47.473c.017-11.851,5.727-23.179,15.748-31.2l8.827-7.071c4.88-3.913,4.9-12.82.024-16.745l-8.808-7.1C836.163,419.061,830.486,407.732,830.5,395.873Z" transform="translate(-827.252 -346.837)" fill="#9d92fb"/>
        <rect id="Rectangle_822" data-name="Rectangle 822" width="81.93" height="8.948" transform="translate(81.93 195.14) rotate(-179.92)" fill="#3a2887"/>
        <rect id="Rectangle_823" data-name="Rectangle 823" width="81.93" height="8.948" transform="translate(82.21 9.062) rotate(-179.92)" fill="#3a2887"/>
        <rect id="Rectangle_824" data-name="Rectangle 824" width="4.423" height="70.262" transform="translate(43.231 160.982) rotate(-179.92)" fill="#d4d2fc"/>
        <path id="Path_1885" data-name="Path 1885" d="M920.155,1240.307l-34.712-35.327-34.374,35.226Z" transform="translate(-844.402 -1054.13)" fill="#d4d2fc"/>
        <path id="Path_1886" data-name="Path 1886" d="M909.816,690.765l22.759,23.169,22.57-23.129c3.972-4.07,1.677-12.113-3.458-12.12l-38.408-.056C908.132,678.623,905.823,686.711,909.816,690.765Z" transform="translate(-891.238 -619.514)" fill="#d4d2fc"/>
        <path id="Path_1887" data-name="Path 1887" d="M907.618,390.85l-75.888,8.1.012-8.212Z" transform="translate(-828.433 -381.798)" fill="#6949f9"/>
        <ellipse id="Ellipse_159" data-name="Ellipse 159" cx="14.53" cy="5.812" rx="14.53" ry="5.812" transform="translate(59.576 47.508) rotate(-89.92)" fill="#fff"/>
        <circle id="Ellipse_160" data-name="Ellipse 160" cx="3.075" cy="3.075" r="3.075" transform="translate(49.074 28.157) rotate(-52.326)" fill="#fff"/>
      </g>
      <g id="Group_1371" data-name="Group 1371" transform="translate(221.287 94.334)">
        <path id="Path_1888" data-name="Path 1888" d="M1464.516,567.335s2.517-6.516,1.856-10.84-1.8-5.636-3.935-6.274-3.756,2.67-3.331,5.021S1460.719,561.495,1464.516,567.335Z" transform="translate(-1426.04 -548.593)" fill="#d4d2fc"/>
        <path id="Path_1889" data-name="Path 1889" d="M1516.33,556.267s6.236-3.148,8.644-6.8,2.44-5.384,1.286-7.292-4.577-.537-5.837,1.492S1517.428,549.388,1516.33,556.267Z" transform="translate(-1473.347 -541.266)" fill="#d4d2fc"/>
        <path id="Path_1890" data-name="Path 1890" d="M1416.493,603.15s.732-7.8-1.3-12.264-3.66-5.533-6.156-5.577-3.24,4.024-2.065,6.431S1410.618,598,1416.493,603.15Z" transform="translate(-1382.598 -577.632)" fill="#d4d2fc"/>
        <path id="Path_1891" data-name="Path 1891" d="M1369.927,633.829s-2.44-7.444-6.074-10.732-5.554-3.622-7.865-2.658-1.37,4.981.666,6.72S1362.489,631.448,1369.927,633.829Z" transform="translate(-1339.834 -606.25)" fill="#d4d2fc"/>
        <path id="Path_1892" data-name="Path 1892" d="M1385.107,705.892s-4.07-2.395-7.027-2.428-3.956.577-4.617,1.935,1.368,2.8,2.982,2.773A22.587,22.587,0,0,0,1385.107,705.892Z" transform="translate(-1355.273 -675.195)" fill="#d4d2fc"/>
        <path id="Path_1893" data-name="Path 1893" d="M1502.22,623.779s4.847-5.031,9.047-6.257,5.866-.749,7.348.922-.837,4.531-3.148,5.138S1509.116,624.758,1502.22,623.779Z" transform="translate(-1461.696 -603.664)" fill="#d4d2fc"/>
        <path id="Path_1894" data-name="Path 1894" d="M1478.07,677.987s6.76-3.951,11.665-3.993,6.558.978,7.647,3.233-2.283,4.634-4.96,4.584S1485.212,681.14,1478.07,677.987Z" transform="translate(-1441.755 -650.861)" fill="#d4d2fc"/>
        <path id="Path_1895" data-name="Path 1895" d="M1476.54,720.6s7.775-.934,12.292.979,5.628,3.508,5.729,6.011-3.939,3.343-6.375,2.231S1481.835,726.341,1476.54,720.6Z" transform="translate(-1440.492 -689.157)" fill="#d4d2fc"/>
        <path id="Path_1896" data-name="Path 1896" d="M1460.94,730.58s3.888,2.68,5.167,5.347,1.145,3.834.192,5-3.114-.061-3.771-1.535A22.591,22.591,0,0,1,1460.94,730.58Z" transform="translate(-1427.61 -697.586)" fill="#d4d2fc"/>
        <path id="Path_1897" data-name="Path 1897" d="M1314.337,611.553c-.349.544-.852,1.321-1.5,2.3-.92,1.394-2.119,3.174-3.533,5.262l-.547.812-.174.247-.2.293c-1.112,1.64-2.332,3.432-3.634,5.34-.092.136-.185.274-.281.411l-.157.234h0c-.035.049-.066.1-.1.148l-1.917,2.8c-.033.051-.068.1-.1.15a.023.023,0,0,1-.01.017l-.174.253-.2.3c-.016.021-.03.044-.045.066-6.8,9.934-15,21.811-21.437,31.033l-.326.467c-4.674,6.7-8.366,11.924-9.8,13.847l-.5-.437c1.4-1.874,4.972-6.924,9.512-13.43.108-.153.218-.312.329-.469,6.448-9.254,14.777-21.306,21.654-31.35l.146-.214c.073-.1.145-.209.216-.315l.1-.141.037-.058c.085-.12.174-.242.251-.362l1.793-2.606c.145-.209.287-.42.429-.626,1.349-1.98,2.614-3.834,3.756-5.525l.607-.894c1.884-2.789,3.4-5.054,4.4-6.576.335-.509.608-.934.821-1.271S1314.565,611.191,1314.337,611.553Z" transform="translate(-1269.7 -598.931)" fill="#d4d2fc"/>
        <path id="Path_1898" data-name="Path 1898" d="M1496.333,651.3c-.847.57-1.86.8-2.715,1.351-.349.232-.727-.319-.37-.549.858-.552,1.87-.783,2.715-1.352a.332.332,0,0,1,.37.551Z" transform="translate(-1454.169 -631.625)" fill="#d4d2fc"/>
        <path id="Path_1899" data-name="Path 1899" d="M1488.16,637.186q.132,2.128.27,4.258a.331.331,0,0,1-.661.038q-.136-2.128-.27-4.254a.331.331,0,0,1,.661-.042Z" transform="translate(-1449.541 -620.222)" fill="#d4d2fc"/>
        <path id="Path_1900" data-name="Path 1900" d="M1462.11,679.854a5.03,5.03,0,0,0,.64,2.667c.244.349-.305.718-.549.369a5.577,5.577,0,0,1-.751-2.994C1461.449,679.472,1462.112,679.427,1462.11,679.854Z" transform="translate(-1428.031 -655.454)" fill="#d4d2fc"/>
        <path id="Path_1901" data-name="Path 1901" d="M1470.211,694.859a10.943,10.943,0,0,1-1.473.148c-.293.021-1.258.014-1.384.174-.267.331-.763-.106-.5-.437s.92-.315,1.3-.349a15.83,15.83,0,0,0,1.84-.155c.411-.087.631.539.216.626Z" transform="translate(-1432.434 -667.573)" fill="#d4d2fc"/>
        <path id="Path_1902" data-name="Path 1902" d="M1434.442,691.89a17.183,17.183,0,0,1,1.9,1.837,23.936,23.936,0,0,0,1.436,1.933c.307.293-.129.791-.437.5a11.707,11.707,0,0,1-1.279-1.713,13.032,13.032,0,0,0-2.055-2.057C1433.682,692.108,1434.12,691.611,1434.442,691.89Z" transform="translate(-1405.276 -665.571)" fill="#d4d2fc"/>
        <path id="Path_1903" data-name="Path 1903" d="M1457.827,718.494a13.973,13.973,0,0,0-2.982-.715,11.747,11.747,0,0,0-2.142-.251c-.443-.026-.308-.7.119-.65,1.682.174,3.773.247,5.3,1.025a.331.331,0,0,1-.3.591Z" transform="translate(-1420.583 -686.271)" fill="#d4d2fc"/>
        <path id="Path_1904" data-name="Path 1904" d="M1434.431,714.631c1.107-.016,2.21.07,3.311.01a.331.331,0,0,1,.042.661c-1.107.059-2.21-.026-3.311-.01C1434.048,715.291,1434,714.636,1434.431,714.631Z" transform="translate(-1405.474 -684.415)" fill="#d4d2fc"/>
        <path id="Path_1905" data-name="Path 1905" d="M1452.966,718.388a4.5,4.5,0,0,0-.744-1.87,6.049,6.049,0,0,0-1.143-1.535.331.331,0,0,1,.437-.5,6.806,6.806,0,0,1,1.351,1.83,4.9,4.9,0,0,1,.762,2.03A.332.332,0,0,1,1452.966,718.388Z" transform="translate(-1419.375 -684.228)" fill="#d4d2fc"/>
      </g>
      <g id="Group_1372" data-name="Group 1372" transform="translate(230.803 141.022)">
        <path id="Path_1906" data-name="Path 1906" d="M1537.19,855.6s4.953-1.063,7.32-3.184,2.707-3.327,2.243-4.88-3.113-1.22-4.369-.026S1539.224,850.971,1537.19,855.6Z" transform="translate(-1500.087 -839.98)" fill="#d4d2fc"/>
        <path id="Path_1907" data-name="Path 1907" d="M1560.49,893.96s4.388,2.532,7.562,2.543,4.24-.655,4.936-2.119-1.494-2.989-3.224-2.947S1565.1,891.891,1560.49,893.96Z" transform="translate(-1519.326 -877.095)" fill="#d4d2fc"/>
        <path id="Path_1908" data-name="Path 1908" d="M1503.15,839.845s5.028-2.66,6.924-5.662,1.907-4.416.932-5.952-3.73-.364-4.723,1.3S1503.936,834.235,1503.15,839.845Z" transform="translate(-1471.98 -824.316)" fill="#d4d2fc"/>
        <path id="Path_1909" data-name="Path 1909" d="M1480.858,823.2s3.548-4.435,4.1-7.953-.011-4.81-1.513-5.83-3.567,1.15-3.815,3.076S1479.345,817.737,1480.858,823.2Z" transform="translate(-1452.45 -809.154)" fill="#d4d2fc"/>
        <path id="Path_1910" data-name="Path 1910" d="M1450.966,861.414s-.166-3.423-1.321-5.228-1.917-2.172-3.01-2.032-1.154,1.943-.5,2.912A16.391,16.391,0,0,0,1450.966,861.414Z" transform="translate(-1424.553 -846.289)" fill="#d4d2fc"/>
        <path id="Path_1911" data-name="Path 1911" d="M1537.08,909s4.979.941,7.391,3,2.789,3.261,2.362,4.824-3.081,1.295-4.368.132S1539.227,913.578,1537.08,909Z" transform="translate(-1499.996 -891.599)" fill="#d4d2fc"/>
        <path id="Path_1912" data-name="Path 1912" d="M1503.06,910.36s5.085,2.531,7.062,5.492,2.015,4.368,1.079,5.926-3.721.457-4.754-1.189S1503.984,915.949,1503.06,910.36Z" transform="translate(-1471.905 -892.722)" fill="#d4d2fc"/>
        <path id="Path_1913" data-name="Path 1913" d="M1481.957,919.27s3.66,4.357,4.293,7.843.108,4.808-1.37,5.865-3.594-1.061-3.888-2.982S1480.58,924.765,1481.957,919.27Z" transform="translate(-1453.528 -900.079)" fill="#d4d2fc"/>
        <path id="Path_1914" data-name="Path 1914" d="M1451.612,913.35s-.082,3.425-1.192,5.26-1.868,2.219-2.963,2.105-1.2-1.917-.568-2.9A16.443,16.443,0,0,1,1451.612,913.35Z" transform="translate(-1425.203 -895.191)" fill="#d4d2fc"/>
        <path id="Path_1915" data-name="Path 1915" d="M1367.564,900.008h-1.99c-1.206,0-2.768-.024-4.6-.051l-.711-.01h-.467c-1.436-.021-3.008-.049-4.683-.08h-.694l-2.461-.049h-.7c-4.8-.1-10.119-.22-15.295-.349-3.8-.094-7.51-.193-10.879-.289l-.788-.021c.108-.153.218-.312.329-.469.258,0,.523.016.784.023,3.486.1,7.346.2,11.267.3,4.944.122,10,.239,14.563.333h.957l2.287.044.552.01h0c1.743.033,3.362.063,4.842.085l.784.012c2.44.037,4.415.057,5.737.059h1.1C1367.788,899.553,1367.874,900,1367.564,900.008Z" transform="translate(-1324.3 -883.086)" fill="#d4d2fc"/>
        <path id="Path_1916" data-name="Path 1916" d="M1532.7,906.315c-.685-.288-1.22-.81-1.9-1.11a.241.241,0,0,1,.187-.443c.676.3,1.22.823,1.9,1.11a.241.241,0,0,1-.187.443Z" transform="translate(-1494.697 -888.088)" fill="#d4d2fc"/>
        <path id="Path_1917" data-name="Path 1917" d="M1530.219,893.173l-2.477,1.856a.24.24,0,0,1-.286-.385l2.475-1.856a.241.241,0,0,1,.288.385Z" transform="translate(-1491.982 -878.177)" fill="#d4d2fc"/>
        <path id="Path_1918" data-name="Path 1918" d="M1498.827,894.326a3.618,3.618,0,0,0-1.363,1.448.24.24,0,0,1-.443-.187,4.045,4.045,0,0,1,1.518-1.645C1498.8,893.768,1499.089,894.158,1498.827,894.326Z" transform="translate(-1466.907 -879.129)" fill="#d4d2fc"/>
        <path id="Path_1919" data-name="Path 1919" d="M1498.64,905.919a7.974,7.974,0,0,1-.669-.838c-.129-.174-.507-.758-.652-.774-.307-.03-.239-.505.07-.474s.556.432.727.647a11.548,11.548,0,0,0,.826,1.046c.216.216-.077.6-.294.38Z" transform="translate(-1467 -887.331)" fill="#d4d2fc"/>
        <path id="Path_1920" data-name="Path 1920" d="M1482.74,882.324a12.483,12.483,0,0,1-.359,1.882,14.369,14.369,0,0,0-.6,1.64.241.241,0,0,1-.476-.068,9.058,9.058,0,0,1,.523-1.457,9.445,9.445,0,0,0,.43-2.065.239.239,0,0,1,.474.068Z" transform="translate(-1453.938 -869.346)" fill="#d4d2fc"/>
        <path id="Path_1921" data-name="Path 1921" d="M1480.409,907.171a10.2,10.2,0,0,0-.751-2.091,8.453,8.453,0,0,0-.7-1.394c-.16-.281.3-.464.441-.186a11.424,11.424,0,0,1,1.487,3.625.241.241,0,0,1-.478.054Z" transform="translate(-1451.979 -886.943)" fill="#d4d2fc"/>
        <path id="Path_1922" data-name="Path 1922" d="M1473.494,891.308c.45.666.837,1.37,1.312,2.018a.241.241,0,0,1-.383.288c-.476-.648-.863-1.352-1.312-2.016C1472.936,891.341,1473.321,891.052,1473.494,891.308Z" transform="translate(-1447.139 -876.908)" fill="#d4d2fc"/>
        <path id="Path_1923" data-name="Path 1923" d="M1471.954,904.145a3.248,3.248,0,0,0,.838-1.2,4.331,4.331,0,0,0,.478-1.3.241.241,0,0,1,.476.068,4.949,4.949,0,0,1-.573,1.548,3.59,3.59,0,0,1-.929,1.267.241.241,0,0,1-.289-.383Z" transform="translate(-1446.15 -885.363)" fill="#d4d2fc"/>
      </g>
      <g id="Group_1373" data-name="Group 1373" transform="translate(72.457 78.338)">
        <path id="Path_1924" data-name="Path 1924" d="M514.922,475.535s-2.517-6.516-1.856-10.84,1.8-5.636,3.935-6.274,3.756,2.67,3.33,5.021S518.715,469.7,514.922,475.535Z" transform="translate(-496.013 -456.797)" fill="#d4d2fc"/>
        <path id="Path_1925" data-name="Path 1925" d="M447.827,464.487s-6.236-3.148-8.644-6.8-2.44-5.384-1.286-7.292,4.577-.537,5.837,1.492S446.729,457.608,447.827,464.487Z" transform="translate(-433.425 -449.486)" fill="#d4d2fc"/>
        <path id="Path_1926" data-name="Path 1926" d="M549.921,511.37s-.732-7.8,1.3-12.264,3.66-5.533,6.157-5.577,3.24,4.024,2.065,6.431S555.8,506.225,549.921,511.37Z" transform="translate(-526.43 -485.852)" fill="#d4d2fc"/>
        <path id="Path_1927" data-name="Path 1927" d="M572.34,542.049s2.44-7.444,6.074-10.732,5.554-3.622,7.865-2.658,1.37,4.981-.666,6.72S579.775,539.668,572.34,542.049Z" transform="translate(-545.048 -514.47)" fill="#d4d2fc"/>
        <path id="Path_1928" data-name="Path 1928" d="M573.83,614.112s4.069-2.395,7.027-2.428,3.956.577,4.617,1.935-1.368,2.8-2.982,2.773A22.588,22.588,0,0,1,573.83,614.112Z" transform="translate(-546.278 -583.415)" fill="#d4d2fc"/>
        <path id="Path_1929" data-name="Path 1929" d="M432.6,532.01s-4.847-5.037-9.047-6.257-5.866-.749-7.348.922.837,4.531,3.148,5.138S425.708,532.989,432.6,532.01Z" transform="translate(-415.743 -511.895)" fill="#d4d2fc"/>
        <path id="Path_1930" data-name="Path 1930" d="M444.139,586.2s-6.76-3.951-11.666-3.995-6.558.978-7.648,3.233,2.283,4.634,4.96,4.584S437,589.356,444.139,586.2Z" transform="translate(-423.069 -559.072)" fill="#d4d2fc"/>
        <path id="Path_1931" data-name="Path 1931" d="M452.782,628.82s-7.776-.934-12.292.979-5.628,3.508-5.729,6.009,3.939,3.343,6.375,2.231S447.487,634.561,452.782,628.82Z" transform="translate(-431.445 -597.377)" fill="#d4d2fc"/>
        <path id="Path_1932" data-name="Path 1932" d="M524.865,638.8s-3.888,2.68-5.167,5.347-1.145,3.834-.193,5,3.116-.061,3.773-1.535A22.588,22.588,0,0,0,524.865,638.8Z" transform="translate(-500.809 -605.806)" fill="#d4d2fc"/>
        <path id="Path_1933" data-name="Path 1933" d="M488.653,519.773c.349.544.852,1.321,1.5,2.3.918,1.385,2.119,3.174,3.533,5.262l.547.814.174.246.2.293c1.112,1.64,2.332,3.432,3.634,5.34l.279.411c.054.077.106.155.159.234h0l.1.148c.622.908,1.26,1.844,1.917,2.8.033.051.068.1.1.15a.023.023,0,0,0,.01.017c.058.084.115.174.174.253s.132.2.2.3c.016.021.03.044.044.066,6.8,9.934,15.006,21.811,21.437,31.033l.326.467c4.667,6.7,8.357,11.931,9.8,13.849l.5-.437c-1.4-1.874-4.972-6.924-9.512-13.43-.11-.153-.218-.312-.329-.469-6.448-9.254-14.777-21.306-21.656-31.35l-.145-.214c-.073-.1-.145-.209-.216-.315l-.1-.141-.038-.057-.242-.366q-.91-1.332-1.781-2.6l-.427-.626c-1.349-1.98-2.614-3.834-3.756-5.525l-.607-.894c-1.884-2.789-3.4-5.054-4.4-6.576-.333-.509-.607-.934-.819-1.271S488.425,519.411,488.653,519.773Z" transform="translate(-475.905 -507.151)" fill="#d4d2fc"/>
        <path id="Path_1934" data-name="Path 1934" d="M502.384,559.524c.847.57,1.86.8,2.714,1.351.359.232.728-.319.369-.549-.856-.552-1.868-.783-2.714-1.352a.332.332,0,0,0-.369.551Z" transform="translate(-487.163 -539.845)" fill="#d4d2fc"/>
        <path id="Path_1935" data-name="Path 1935" d="M522.137,545.4q-.136,2.128-.27,4.258a.331.331,0,0,0,.661.038q.136-2.128.27-4.254A.331.331,0,0,0,522.137,545.4Z" transform="translate(-503.37 -528.441)" fill="#d4d2fc"/>
        <path id="Path_1936" data-name="Path 1936" d="M546.15,588.074a5.03,5.03,0,0,1-.64,2.667c-.244.349.3.718.549.369a5.578,5.578,0,0,0,.751-2.994C546.81,587.692,546.148,587.647,546.15,588.074Z" transform="translate(-522.844 -563.674)" fill="#d4d2fc"/>
        <path id="Path_1937" data-name="Path 1937" d="M527.193,603.079a10.944,10.944,0,0,0,1.473.148c.293.021,1.257.014,1.382.174.268.331.765-.106.5-.437s-.918-.315-1.295-.349a15.829,15.829,0,0,1-1.84-.155c-.411-.087-.633.539-.216.626Z" transform="translate(-507.585 -575.793)" fill="#d4d2fc"/>
        <path id="Path_1938" data-name="Path 1938" d="M561.365,600.077a17.18,17.18,0,0,0-1.9,1.83,23.935,23.935,0,0,1-1.436,1.933c-.308.293.129.791.437.5a11.578,11.578,0,0,0,1.278-1.713,13.042,13.042,0,0,1,2.057-2.057.331.331,0,0,0-.437-.5Z" transform="translate(-533.146 -573.758)" fill="#d4d2fc"/>
        <path id="Path_1939" data-name="Path 1939" d="M529.06,626.714a14.01,14.01,0,0,1,2.984-.715,11.734,11.734,0,0,1,2.14-.251c.444-.026.308-.7-.117-.65-1.682.174-3.775.247-5.3,1.025A.331.331,0,0,0,529.06,626.714Z" transform="translate(-508.92 -594.491)" fill="#d4d2fc"/>
        <path id="Path_1940" data-name="Path 1940" d="M561.554,622.851c-1.107-.016-2.212.07-3.311.01a.331.331,0,0,0-.042.661c1.1.059,2.21-.026,3.311-.01C561.938,623.511,561.981,622.856,561.554,622.851Z" transform="translate(-533.126 -592.635)" fill="#d4d2fc"/>
        <path id="Path_1941" data-name="Path 1941" d="M549.128,626.608a4.5,4.5,0,0,1,.746-1.87,6.088,6.088,0,0,1,1.141-1.535.331.331,0,0,0-.437-.5,6.839,6.839,0,0,0-1.349,1.83,4.9,4.9,0,0,0-.762,2.03A.331.331,0,0,0,549.128,626.608Z" transform="translate(-525.335 -592.448)" fill="#d4d2fc"/>
      </g>
      <g id="Group_1374" data-name="Group 1374" transform="translate(66.531 125.035)">
        <path id="Path_1942" data-name="Path 1942" d="M431.377,763.837s-4.955-1.063-7.32-3.184-2.7-3.327-2.241-4.88,3.113-1.22,4.369-.026S429.343,759.208,431.377,763.837Z" transform="translate(-414.684 -748.226)" fill="#d4d2fc"/>
        <path id="Path_1943" data-name="Path 1943" d="M394.37,802.18s-4.4,2.532-7.562,2.543-4.24-.65-4.937-2.119,1.494-2.989,3.226-2.947S389.76,800.111,394.37,802.18Z" transform="translate(-381.738 -785.324)" fill="#d4d2fc"/>
        <path id="Path_1944" data-name="Path 1944" d="M471.3,748.073s-5.023-2.656-6.924-5.661-1.907-4.416-.932-5.952,3.73-.364,4.723,1.3S470.512,742.463,471.3,748.073Z" transform="translate(-448.672 -732.553)" fill="#d4d2fc"/>
        <path id="Path_1945" data-name="Path 1945" d="M507.018,731.467s-3.548-4.435-4.1-7.952.009-4.81,1.513-5.83,3.568,1.15,3.813,3.076S508.53,726,507.018,731.467Z" transform="translate(-481.63 -717.424)" fill="#d4d2fc"/>
        <path id="Path_1946" data-name="Path 1946" d="M538.86,769.634s.166-3.423,1.319-5.228,1.917-2.172,3.01-2.032,1.156,1.943.5,2.912A16.4,16.4,0,0,1,538.86,769.634Z" transform="translate(-511.476 -754.517)" fill="#d4d2fc"/>
        <path id="Path_1947" data-name="Path 1947" d="M430.7,817.24s-4.979.941-7.391,3-2.789,3.261-2.362,4.824,3.081,1.295,4.368.133S428.555,821.815,430.7,817.24Z" transform="translate(-413.99 -799.844)" fill="#d4d2fc"/>
        <path id="Path_1948" data-name="Path 1948" d="M470.268,818.58s-5.086,2.531-7.062,5.492-2.015,4.367-1.079,5.926,3.719.457,4.754-1.189S469.344,824.169,470.268,818.58Z" transform="translate(-447.626 -800.95)" fill="#d4d2fc"/>
        <path id="Path_1949" data-name="Path 1949" d="M505.7,827.49s-3.66,4.357-4.293,7.843-.108,4.808,1.37,5.865,3.594-1.061,3.888-2.982S507.08,832.982,505.7,827.49Z" transform="translate(-480.336 -808.308)" fill="#d4d2fc"/>
        <path id="Path_1950" data-name="Path 1950" d="M538.88,821.57s.082,3.425,1.192,5.26,1.868,2.219,2.963,2.105,1.2-1.917.568-2.9A16.543,16.543,0,0,0,538.88,821.57Z" transform="translate(-511.493 -803.419)" fill="#d4d2fc"/>
        <path id="Path_1951" data-name="Path 1951" d="M441.216,808.227h1.99c1.206,0,2.768-.024,4.6-.051l.711-.01h.467c1.436-.021,3.008-.049,4.683-.08h.694l2.461-.049h.687c4.8-.1,10.119-.22,15.295-.349,3.8-.094,7.51-.193,10.879-.289l.788-.021c-.11-.153-.218-.312-.329-.469l-.784.023c-3.486.1-7.346.2-11.269.3-4.943.122-9.993.239-14.563.333h-.955l-2.287.044-.552.01h0c-1.743.033-3.362.063-4.842.085l-.784.012c-2.44.037-4.415.057-5.739.059h-1.1C440.979,807.773,440.906,808.222,441.216,808.227Z" transform="translate(-430.684 -791.314)" fill="#d4d2fc"/>
        <path id="Path_1952" data-name="Path 1952" d="M470.844,814.575c.683-.288,1.22-.81,1.9-1.11a.241.241,0,0,0-.186-.443c-.676.3-1.22.823-1.9,1.11a.241.241,0,0,0,.186.443Z" transform="translate(-455.049 -796.349)" fill="#d4d2fc"/>
        <path id="Path_1953" data-name="Path 1953" d="M470.576,801.393l2.475,1.856a.241.241,0,0,0,.286-.385l-2.473-1.856a.241.241,0,0,0-.288.385Z" transform="translate(-455.019 -786.406)" fill="#d4d2fc"/>
        <path id="Path_1954" data-name="Path 1954" d="M506.769,802.546a3.611,3.611,0,0,1,1.365,1.448.241.241,0,0,0,.443-.187,4.058,4.058,0,0,0-1.518-1.645C506.8,801.988,506.51,802.378,506.769,802.546Z" transform="translate(-484.895 -787.358)" fill="#d4d2fc"/>
        <path id="Path_1955" data-name="Path 1955" d="M507.115,814.134a7.952,7.952,0,0,0,.674-.833c.129-.174.509-.758.652-.774.308-.03.24-.505-.068-.474s-.556.432-.727.647a11.5,11.5,0,0,1-.826,1.054C506.6,813.97,506.9,814.352,507.115,814.134Z" transform="translate(-484.959 -795.56)" fill="#d4d2fc"/>
        <path id="Path_1956" data-name="Path 1956" d="M525.14,790.586a12.287,12.287,0,0,0,.361,1.882,16.672,16.672,0,0,1,.6,1.64c.056.3.532.237.476-.068a9.365,9.365,0,0,0-.523-1.457,9.441,9.441,0,0,1-.43-2.065.241.241,0,0,0-.476.068Z" transform="translate(-500.148 -777.616)" fill="#d4d2fc"/>
        <path id="Path_1957" data-name="Path 1957" d="M525.006,815.391a10.2,10.2,0,0,1,.751-2.091,8.321,8.321,0,0,1,.7-1.394c.16-.281-.3-.464-.441-.186a11.385,11.385,0,0,0-1.487,3.625.241.241,0,0,0,.478.054Z" transform="translate(-499.641 -795.172)" fill="#d4d2fc"/>
        <path id="Path_1958" data-name="Path 1958" d="M532.8,799.528c-.448.666-.837,1.37-1.311,2.018a.24.24,0,0,0,.383.288c.476-.648.863-1.351,1.312-2.016C533.357,799.561,532.972,799.272,532.8,799.528Z" transform="translate(-505.358 -785.136)" fill="#d4d2fc"/>
        <path id="Path_1959" data-name="Path 1959" d="M533.854,812.366a3.264,3.264,0,0,1-.837-1.2,4.329,4.329,0,0,1-.478-1.3.241.241,0,0,0-.476.068,4.955,4.955,0,0,0,.573,1.548,3.589,3.589,0,0,0,.929,1.267.241.241,0,0,0,.288-.383Z" transform="translate(-505.864 -793.593)" fill="#d4d2fc"/>
      </g>
      <path id="Path_1960" data-name="Path 1960" d="M54.148,69.257a40.573,40.573,0,1,1,57.379,0,40.573,40.573,0,0,1-57.379,0Zm.871-56.516a63533.808,63533.808,0,1,0-.009,0Z" transform="translate(-34.897 0.006)" fill="#fff"/>
      <circle id="Ellipse_161" data-name="Ellipse 161" cx="22.285" cy="22.285" r="22.285" transform="matrix(0.192, -0.981, 0.981, 0.192, 21.79, 58.162)" fill="#fff"/>
      <path id="Path_1961" data-name="Path 1961" d="M1951.21,1283.79a2.459,2.459,0,1,0-1.527-1.1A2.463,2.463,0,0,0,1951.21,1283.79Z" transform="translate(-1609.585 -1056.035)" fill="#d4d2fc"/>
      <circle id="Ellipse_162" data-name="Ellipse 162" cx="2.463" cy="2.463" r="2.463" transform="translate(328.431 221.603) rotate(-75.99)" fill="#d4d2fc"/>
      <path id="Path_1962" data-name="Path 1962" d="M1905.946,1145.861a1.22,1.22,0,1,0-.761-.548A1.22,1.22,0,0,0,1905.946,1145.861Z" transform="translate(-1572.995 -944.168)" fill="#d4d2fc"/>
      <path id="Path_1963" data-name="Path 1963" d="M1939,1274.559a4.915,4.915,0,1,0-3.777-4.609A4.918,4.918,0,0,0,1939,1274.559Zm.077-.317a4.591,4.591,0,0,1,.12-8.958,4.5,4.5,0,0,1,2,.024,4.591,4.591,0,0,1-2.125,8.934Z" transform="translate(-1597.948 -1044.415)" fill="#d4d2fc"/>
      <path id="Path_1964" data-name="Path 1964" d="M1898.221,1190.911a.88.88,0,1,0-.654-1.06A.88.88,0,0,0,1898.221,1190.911Z" transform="translate(-1566.836 -981.922)" fill="#d4d2fc"/>
      <path id="Path_1965" data-name="Path 1965" d="M1885.452,1181.247a3.449,3.449,0,1,0-.233-6.644,3.486,3.486,0,0,0-1.373.819,3.449,3.449,0,0,0,1.607,5.825Zm.054-.223a3.219,3.219,0,0,1,.084-6.274,3.169,3.169,0,0,1,1.406.017,3.219,3.219,0,0,1,.056,6.25,3.175,3.175,0,0,1-1.544.007Z" transform="translate(-1554.664 -969.758)" fill="#d4d2fc"/>
      <path id="Path_1966" data-name="Path 1966" d="M1973.427,1198.236a1.22,1.22,0,1,0,.8-.489A1.22,1.22,0,0,0,1973.427,1198.236Z" transform="translate(-1629.301 -988.989)" fill="#d4d2fc"/>
      <path id="Path_1967" data-name="Path 1967" d="M93.508,660.243a3.914,3.914,0,1,0,1.633-2.515A3.914,3.914,0,0,0,93.508,660.243Z" transform="translate(-77.156 -542.529)" fill="#fff"/>
      <circle id="Ellipse_163" data-name="Ellipse 163" cx="3.914" cy="3.914" r="3.914" transform="translate(23.524 103.822) rotate(-77.33)" fill="#fff"/>
      <path id="Path_1968" data-name="Path 1968" d="M327.184,577.175a1.945,1.945,0,1,0,2.266-1.558A1.945,1.945,0,0,0,327.184,577.175Z" transform="translate(-270.134 -475.269)" fill="#fff"/>
      <path id="Path_1969" data-name="Path 1969" d="M71.17,641.065a7.726,7.726,0,0,0,.247,3.822,7.813,7.813,0,0,0,15.121-.959,7.707,7.707,0,0,0-.349-4.134,7.813,7.813,0,0,0-15.013,1.271Zm.509.094a7.3,7.3,0,0,1,14.234-.509,7.188,7.188,0,0,1,.117,3.184,7.3,7.3,0,1,1-14.35-2.675Z" transform="translate(-58.656 -524.067)" fill="#fff"/>
      <path id="Path_1970" data-name="Path 1970" d="M260.043,568.294a1.394,1.394,0,1,0,.583-.9A1.394,1.394,0,0,0,260.043,568.294Z" transform="translate(-214.702 -468.304)" fill="#fff"/>
      <path id="Path_1971" data-name="Path 1971" d="M236.684,548.213a5.479,5.479,0,1,0,4.925-4.456A5.481,5.481,0,0,0,236.684,548.213Zm.357.066a5.126,5.126,0,0,1,5.971-4.092,5.072,5.072,0,0,1,2.506,1.248,5.118,5.118,0,1,1-8.477,2.844Z" transform="translate(-195.355 -448.973)" fill="#fff"/>
      <circle id="Ellipse_164" data-name="Ellipse 164" cx="1.947" cy="1.947" r="1.947" transform="matrix(0.985, -0.172, 0.172, 0.985, 42.609, 120.278)" fill="#fff"/>
      <path id="Path_1972" data-name="Path 1972" d="M818.907,153.029a3.914,3.914,0,1,0-5.054,2.24,3.914,3.914,0,0,0,5.054-2.24Z" transform="translate(-669.938 -121.957)" fill="#fff"/>
      <path id="Path_1973" data-name="Path 1973" d="M755.261,243.763A3.914,3.914,0,1,0,750.2,246,3.914,3.914,0,0,0,755.261,243.763Z" transform="translate(-617.384 -196.88)" fill="#fff"/>
      <path id="Path_1974" data-name="Path 1974" d="M590.72,212.053a1.943,1.943,0,1,0-1.027,1.08A1.947,1.947,0,0,0,590.72,212.053Z" transform="translate(-484.659 -172.909)" fill="#fff"/>
      <path id="Path_1975" data-name="Path 1975" d="M804.088,135.976a7.815,7.815,0,0,0-14.577-5.64,7.719,7.719,0,0,0-.41,4.13,7.813,7.813,0,0,0,14.99,1.506Zm-.483-.186a7.3,7.3,0,0,1-14.084-2.111,7.165,7.165,0,0,1,.469-3.153,7.3,7.3,0,1,1,13.615,5.264Z" transform="translate(-651.479 -103.496)" fill="#fff"/>
      <path id="Path_1976" data-name="Path 1976" d="M659.8,238.769a1.394,1.394,0,1,0-.738.778A1.394,1.394,0,0,0,659.8,238.769Z" transform="translate(-542.581 -195.593)" fill="#fff"/>
      <path id="Path_1977" data-name="Path 1977" d="M644.227,220.844a5.414,5.414,0,0,0,.322-2.667A5.479,5.479,0,0,0,634,216.891a5.4,5.4,0,0,0-.288,2.9,5.508,5.508,0,0,0,1,2.337,5.43,5.43,0,0,0,2.428,1.853,5.488,5.488,0,0,0,7.09-3.134Zm-.338-.131a5.127,5.127,0,0,1-6.623,2.926,5.072,5.072,0,0,1-2.234-1.685,5.149,5.149,0,0,1-1.023-2.722,5.054,5.054,0,0,1,.329-2.21,5.115,5.115,0,0,1,9.856,1.251,5.054,5.054,0,0,1-.3,2.44Z" transform="translate(-523.201 -176.195)" fill="#fff"/>
      <path id="Path_1978" data-name="Path 1978" d="M687.759,117.048a1.947,1.947,0,1,0-.051-2.752,1.947,1.947,0,0,0,.051,2.752Z" transform="translate(-567.403 -93.883)" fill="#fff"/>
      <g id="Group_1375" data-name="Group 1375" transform="translate(252.013 26.475)">
        <path id="Path_1979" data-name="Path 1979" d="M1863.928,360.766a.349.349,0,0,0,.234-.317q.01-.408,0-.816a.349.349,0,1,0-.687,0v.791a.349.349,0,0,0,.336.349A.39.39,0,0,0,1863.928,360.766Z" transform="translate(-1790.713 -323.093)" fill="#5d3abc"/>
        <path id="Path_1980" data-name="Path 1980" d="M1527.4,187.18a.349.349,0,0,1-.371-.315c-.042-.523-.1-1.046-.174-1.579a.349.349,0,0,1,.682-.1c.08.54.143,1.087.185,1.626a.349.349,0,0,1-.232.349A.325.325,0,0,1,1527.4,187.18Zm-.429-3.191a.349.349,0,0,1-.408-.263c-.111-.512-.24-1.032-.385-1.544a.349.349,0,0,1,.662-.186c.148.523.282,1.06.4,1.586a.349.349,0,0,1-.227.4A.137.137,0,0,1,1526.973,183.989Zm-1.272-3.325c-.174-.5-.366-1-.57-1.485a.349.349,0,1,1,.634-.265c.209.5.406,1.014.586,1.523a.349.349,0,0,1-.65.227Zm-1.22-2.935c-.232-.474-.481-.948-.741-1.41a.349.349,0,0,1,.6-.338c.267.474.523.96.76,1.445a.349.349,0,0,1-.159.46l-.04.017a.348.348,0,0,1-.429-.178Zm-1.568-2.775c-.286-.446-.589-.889-.9-1.316a.349.349,0,1,1,.556-.4c.319.437.629.891.922,1.349a.348.348,0,0,1-.1.474.328.328,0,0,1-.075.037.349.349,0,0,1-.4-.143Zm-1.874-2.578c-.335-.41-.687-.814-1.046-1.2a.349.349,0,0,1,.505-.467c.368.4.727.814,1.072,1.234a.349.349,0,0,1-.533.436Zm-2.159-2.341c-.383-.368-.781-.727-1.182-1.067a.349.349,0,0,1,.444-.523c.411.349.819.718,1.22,1.1a.348.348,0,0,1,.01.486.362.362,0,0,1-.138.087.349.349,0,0,1-.357-.084ZM1501.1,176a.349.349,0,1,1-.174-.666,5.973,5.973,0,0,0,.627-.2,6.767,6.767,0,0,0,.788-.364.349.349,0,0,1,.329.6,7.429,7.429,0,0,1-.871.4c-.091.037-.174.07-.277.1-.133.044-.279.085-.42.124Zm-1.68.225a6.911,6.911,0,0,1-1.682-.193.349.349,0,0,1,.162-.669,6.139,6.139,0,0,0,1.515.174.349.349,0,0,1,.111.669.31.31,0,0,1-.1.016Zm4.139-1.858a.349.349,0,0,1,.019-.485,6.094,6.094,0,0,0,.976-1.166.349.349,0,1,1,.579.371,6.674,6.674,0,0,1-1.088,1.3.325.325,0,0,1-.124.073.349.349,0,0,1-.361-.1Zm-7.4,1.056a6.3,6.3,0,0,1-1.377-1,.349.349,0,1,1,.476-.5,5.577,5.577,0,0,0,1.22.889.344.344,0,0,1-.054.629A.338.338,0,0,1,1496.163,175.425Zm9.281-3.646a.349.349,0,0,1-.209-.439,7.778,7.778,0,0,0,.366-1.5.349.349,0,1,1,.681.1,8.486,8.486,0,0,1-.4,1.628.349.349,0,0,1-.214.211.333.333,0,0,1-.23,0Zm11.011-3.8c-.427-.315-.871-.622-1.307-.906a.349.349,0,1,1,.373-.579c.455.295.906.608,1.344.934a.349.349,0,1,1-.41.551Zm-22.732,5.112a6.489,6.489,0,0,1-.551-1.194c-.042-.125-.078-.249-.111-.373a.349.349,0,0,1,.666-.174c.028.108.061.218.1.328a5.824,5.824,0,0,0,.492,1.067.349.349,0,0,1-.122.471.435.435,0,0,1-.064.03A.349.349,0,0,1,1493.724,173.086Zm20.042-6.835c-.464-.256-.941-.5-1.415-.718a.349.349,0,1,1,.289-.624c.49.227.981.476,1.459.741a.341.341,0,1,1-.321.6Zm-7.742,2.377a.349.349,0,0,1-.349-.335,10.188,10.188,0,0,0-.174-1.548.349.349,0,1,1,.674-.127,10.471,10.471,0,0,1,.174,1.656.348.348,0,0,1-.234.335.314.314,0,0,1-.08.019Zm4.862-3.709c-.495-.186-1-.349-1.5-.5a.349.349,0,1,1,.192-.661c.523.152,1.046.324,1.555.523a.344.344,0,1,1-.242.643Zm-17.674,5.26a.349.349,0,0,1-.316-.369,5.323,5.323,0,0,1,.41-1.666.349.349,0,0,1,.635.268,4.609,4.609,0,0,0-.359,1.45.344.344,0,0,1-.357.317Zm11.883-4.939a9.858,9.858,0,0,0-.633-1.422.336.336,0,0,1-.042-.174c-.432-.01-.871,0-1.3.014a.349.349,0,0,1-.03-.7c.544-.024,1.1-.024,1.64,0a.348.348,0,0,1,.329.357.333.333,0,0,1-.026.119.35.35,0,0,1,.028.044,10.31,10.31,0,0,1,.678,1.523.349.349,0,1,1-.648.228Zm2.75-1.2c-.523-.106-1.046-.193-1.56-.256a.349.349,0,0,1,.082-.683c.539.066,1.082.155,1.617.265a.343.343,0,0,1-.127.674Zm-13.608,3.137a.348.348,0,0,1-.059-.485,8.129,8.129,0,0,1,1.178-1.2.349.349,0,1,1,.439.523,7.334,7.334,0,0,0-1.075,1.1.349.349,0,0,1-.483.059Zm7.32-3.374c-.523.066-1.046.157-1.568.265a.349.349,0,0,1-.143-.673c.535-.113,1.079-.206,1.617-.274a.349.349,0,0,1,.153.667.277.277,0,0,1-.051.007Zm-4.946,1.208a.349.349,0,0,1,.129-.471,10.026,10.026,0,0,1,1.515-.7.335.335,0,0,1,.441.2.349.349,0,0,1-.206.441,9.494,9.494,0,0,0-1.41.654.3.3,0,0,1-.059.028.349.349,0,0,1-.406-.166Zm7.046-2.543c-.293-.441-.6-.871-.924-1.286a.349.349,0,1,1,.542-.422c.333.425.654.871.955,1.33a.349.349,0,0,1-.1.476.33.33,0,0,1-.078.04.349.349,0,0,1-.4-.138Zm-1.945-2.5c-.349-.389-.729-.769-1.112-1.128a.349.349,0,0,1,.47-.5c.4.371.783.763,1.15,1.166a.348.348,0,0,1-.023.486.337.337,0,0,1-.122.071.349.349,0,0,1-.37-.094Zm-2.309-2.163c-.41-.328-.84-.645-1.277-.943a.349.349,0,0,1,.387-.568c.451.307.9.634,1.319.972a.349.349,0,0,1,.054.485.333.333,0,0,1-.159.11.349.349,0,0,1-.329-.056Zm-2.614-1.786c-.453-.261-.925-.512-1.394-.744a.349.349,0,0,1,.3-.617c.491.239.978.495,1.445.765a.349.349,0,0,1-.061.624.336.336,0,0,1-.3-.028Zm-2.851-1.394c-.484-.2-.986-.38-1.49-.549a.349.349,0,1,1,.216-.652q.784.261,1.532.565a.349.349,0,0,1-.019.643.333.333,0,0,1-.251,0Zm-3.013-1.006c-.505-.134-1.027-.258-1.548-.368a.349.349,0,1,1,.141-.673c.533.112,1.067.237,1.584.376a.349.349,0,0,1,.021.659.334.334,0,0,1-.211.01Zm-3.127-.645c-.523-.078-1.046-.146-1.581-.2a.349.349,0,1,1,.071-.683c.542.056,1.086.124,1.614.206a.349.349,0,0,1,.057.666.338.338,0,0,1-.162.014Zm-31.615,9.392a.349.349,0,0,1,.023-.486c.4-.364.81-.725,1.22-1.072a.349.349,0,1,1,.441.523c-.406.34-.81.7-1.2,1.046a.362.362,0,0,1-.122.071A.349.349,0,0,1,1456.183,162.368Zm28.445-9.718c-.523-.03-1.061-.047-1.595-.052a.349.349,0,1,1,0-.688c.542,0,1.089.024,1.626.054a.344.344,0,0,1,.091.669.392.392,0,0,1-.122.017Zm-25.991,7.627a.349.349,0,0,1,.064-.483c.429-.326.871-.65,1.316-.959a.349.349,0,1,1,.392.565c-.436.3-.871.62-1.292.941a.342.342,0,0,1-.481-.064Zm22.8-7.658c-.523.017-1.063.047-1.6.085a.349.349,0,0,1-.051-.685c.542-.04,1.088-.07,1.624-.089a.349.349,0,0,1,.122.671.371.371,0,0,1-.1.017Zm-20.168,5.793a.349.349,0,0,1,.108-.474c.457-.288.926-.568,1.394-.837a.349.349,0,0,1,.34.6c-.46.263-.922.539-1.37.821a.311.311,0,0,1-.073.035.349.349,0,0,1-.4-.145Zm16.979-5.556c-.523.061-1.058.132-1.586.214a.349.349,0,1,1-.1-.68c.535-.084,1.079-.157,1.612-.218a.349.349,0,0,1,.15.667.473.473,0,0,1-.072.014Zm-14.192,3.934a.349.349,0,0,1,.15-.462c.478-.246.971-.484,1.464-.711a.349.349,0,1,1,.286.626c-.483.221-.967.457-1.436.7a.238.238,0,0,1-.049.019.349.349,0,0,1-.415-.171Zm11.022-3.446q-.784.152-1.568.335a.349.349,0,0,1-.157-.671c.523-.122,1.061-.237,1.591-.34a.349.349,0,0,1,.174.664Zm-8.108,2.074a.349.349,0,0,1,.188-.448q.416-.174.835-.329c.227-.085.455-.174.685-.253a.349.349,0,0,1,.234.648c-.227.08-.451.164-.674.247q-.41.157-.819.322l-.019.009a.349.349,0,0,1-.424-.2Zm4.991-1.345c-.523.139-1.03.293-1.535.451a.349.349,0,0,1-.208-.655c.514-.162,1.046-.317,1.569-.46a.349.349,0,0,1,.2.657Z" transform="translate(-1454.336 -151.905)" fill="#5d3abc"/>
        <path id="Path_1981" data-name="Path 1981" d="M1446.449,216.665a.349.349,0,0,0,.138-.089c.183-.192.369-.382.556-.568a.349.349,0,0,0-.486-.486c-.19.19-.38.383-.567.579a.349.349,0,0,0,.359.565Z" transform="translate(-1446.003 -204.381)" fill="#5d3abc"/>
      </g>
      <path id="Path_1982" data-name="Path 1982" d="M1323.191,221.9l-1.051,3.087-29.71-5.307Z" transform="translate(-1067.182 -181.393)" fill="#5d3abc"/>
      <path id="Path_1983" data-name="Path 1983" d="M1324.231,168.94l-1.715,4.545-30.086,4.3Z" transform="translate(-1067.182 -139.496)" fill="#5d3abc"/>
      <path id="Path_1984" data-name="Path 1984" d="M1324.231,143.037l-5.035-5.467-26.766,14.31Z" transform="translate(-1067.182 -113.593)" fill="#74cdfc"/>
      <path id="Path_1985" data-name="Path 1985" d="M1327.49,190.94l7.332,8.294-42.392-3.285Z" transform="translate(-1067.182 -157.662)" fill="#74cdfc"/>
      <g id="Group_1376" data-name="Group 1376" transform="translate(80.179 137.53)">
        <path id="Path_1986" data-name="Path 1986" d="M554.76,1021.508l.42,1.091,1.847,4.782,20.914,9.22,22.4-3.925,7.907-6.02-7.041-21.557s-3.717-5.229-11.949-7.111a26.178,26.178,0,0,0-3.939-.587,34.765,34.765,0,0,0-11.714.836,20.455,20.455,0,0,0-10.075,6.178l-8.036,15.657Z" transform="translate(-538.253 -960.986)" fill="#74cdfc"/>
        <path id="Path_1987" data-name="Path 1987" d="M608.286,813.092a5.07,5.07,0,0,0,4.66,7.062c.16,0,.317-.01.472-.024a5.065,5.065,0,0,0,9.019,2.05,8.743,8.743,0,0,0,14.953-7.344,9.5,9.5,0,0,0-1.621-16.8,5.175,5.175,0,0,0,.054-.7,5.07,5.07,0,0,0-7.478-4.46,5.054,5.054,0,0,0-9.47-.838,5.068,5.068,0,0,0-8.271,3.921,5.171,5.171,0,0,0,.033.572H610.6a9.192,9.192,0,0,0-2.318,16.56Zm6.692-4.8a5.035,5.035,0,0,1,.7-6.7,5.155,5.155,0,0,0-.035-.572h.035a5.065,5.065,0,0,0,4.582-2.912,5.065,5.065,0,0,0,5.612.535,5.066,5.066,0,0,0,4.237,3.7,5.2,5.2,0,0,0-.054.7,8.5,8.5,0,0,1,1.121,8.965,12.073,12.073,0,0,1-8.732,4.076,5.054,5.054,0,0,0-4.049-2.029,4.677,4.677,0,0,0-.472.024,4.089,4.089,0,0,1-2.942-5.791Z" transform="translate(-579.607 -789.115)" fill="#272440"/>
        <path id="Path_1988" data-name="Path 1988" d="M553.579,1236.518c-1.3-4.268-7.531-4.61-10.76-3.864a26.569,26.569,0,0,0-6.117,2.454c-2.172,1.1-4.491,1.889-6.623,3.137a36.46,36.46,0,0,1-17.053,5.134c-5.293.211-11.025-1.384-16-3.029-4.219-1.394-8.508-2.769-12.693-4.326-1.935-.72-4.392-1.8-6.462-1.874-2.5-.085-8.331,1-8.191,3.634.394,7.341,12.827,13.245,18.314,16.433,3.465,2.018,6.971,3.972,10.433,6a19.219,19.219,0,0,0,7.905,2.789c5.479.523,11.281-1.945,15.921-4.643,5.713-3.322,10.631-7.778,16.013-11.647C540.435,1245.18,542.716,1244.119,553.579,1236.518Z" transform="translate(-467.997 -1155.097)" fill="#2e2264"/>
        <path id="Path_1989" data-name="Path 1989" d="M773.815,1122.821a19.291,19.291,0,0,0-.688-4.183,5.048,5.048,0,0,0-.889-2.409s-3.768,5.4-3.515,6.448C768.972,1123.7,772.3,1124.313,773.815,1122.821Z" transform="translate(-714.916 -1059.22)" fill="#4980ee"/>
        <path id="Path_1990" data-name="Path 1990" d="M617.911,1114.082c.035-1.173-1.788-8.92-2.009-10.042h0a19.772,19.772,0,0,0-3.205,7.173c-.019,1.185.4.986,1.649,1.22C615.132,1112.594,616.613,1115.386,617.911,1114.082Z" transform="translate(-586.092 -1049.154)" fill="#4980ee"/>
        <path id="Path_1991" data-name="Path 1991" d="M666.482,1017.926s7.728-6.809,9.472-12.761a3.9,3.9,0,0,0-.544-3.388,26.227,26.227,0,0,0-3.939-.587,34.73,34.73,0,0,0-11.715.837C656.555,1007.781,666.482,1017.926,666.482,1017.926Z" transform="translate(-624.426 -964.114)" fill="#fff"/>
        <path id="Path_1992" data-name="Path 1992" d="M561.141,1183.368c.871.582,1.819,1.366,2.806,1.917a5.874,5.874,0,0,0,1.107.488,4.593,4.593,0,0,0-.446-1.269c-.425-.964-1.108-2.318-1.826-3.7-1.3-2.515-2.7-5.131-2.883-5.718-.359-1.15.315-5.028.19-6.227-.242-2.283-2.36-1.3-4.05-3.191-.683-.767-1.44-1.537-2.226-2.346-.139,2.013-1.046,3.986-1.244,6C552.254,1172.529,558.709,1181.75,561.141,1183.368Z" transform="translate(-536.434 -1098.103)" fill="#eaaaab"/>
        <path id="Path_1993" data-name="Path 1993" d="M796.676,1207.074c.153,1.133.413,2.238.573,3.365a13.143,13.143,0,0,1,.134,1.488v.078c.021-.016.04-.035.061-.052,2.02-1.753,6.884-8.456,8.2-10.661.934-1.568,2.532-4.334,2.332-6.2a13.118,13.118,0,0,0-2.733,1.457,6.99,6.99,0,0,1-1.42.7c-1.077.349-3.372.422-4.083,1.356C799.092,1199.466,796.544,1206.1,796.676,1207.074Z" transform="translate(-738.004 -1124.336)" fill="#eaaaab"/>
        <path id="Path_1994" data-name="Path 1994" d="M579.312,1424.119c-1.046.159-1.839.976-2.726,1.464a10.03,10.03,0,0,1-5.807.911c-3.151-.338-8.027-1.438-9.153-4.9-.009-.026-.017-.051-.024-.077-.542-1.8,1.363-2.032,2.715-2.22a37.569,37.569,0,0,1,8.42.091c1.568.155,3.092.415,4.659.58C579.175,1420.16,580.651,1420.365,579.312,1424.119Z" transform="translate(-543.824 -1309.303)" fill="#221b41"/>
        <path id="Path_1995" data-name="Path 1995" d="M731.164,1420.733c2.59.828,5,.115,7.613-.462,1.612-.349,3.111-1.07,4.756-1.154,1.84-.094,2.846.563,4.286,1.663s2.266,1.938,1.342,3.637h0a3.424,3.424,0,0,1-1.438,1.412,9.394,9.394,0,0,1-3.721.79c-.349.021-.7.035-1.046.051a43.508,43.508,0,0,1-10.023-.685,5.412,5.412,0,0,1-.871-.439,5.1,5.1,0,0,1-.828-.65,3.49,3.49,0,0,1-.6-.662C729.966,1423.3,729.959,1422.136,731.164,1420.733Z" transform="translate(-683.103 -1309.312)" fill="#221b41"/>
        <path id="Path_1996" data-name="Path 1996" d="M561.141,1183.368c.871.582,1.82,1.366,2.806,1.917a1.464,1.464,0,0,0,.661-.781c.349-1.046-.709-2.452-1.826-3.7-.7-.781-1.406-1.5-1.818-2.022-1-1.271-1.616-2.768-2.532-4.064a25.671,25.671,0,0,1-2.517-3.521,7.28,7.28,0,0,1,.124-5.53c-.683-.767-1.44-1.537-2.226-2.346-.139,2.013-1.046,3.986-1.244,6C552.254,1172.529,558.709,1181.75,561.141,1183.368Z" transform="translate(-536.434 -1098.103)" fill="#e59193"/>
        <path id="Path_1997" data-name="Path 1997" d="M798.55,1211.615a.651.651,0,0,0,.349.312.284.284,0,0,0,.063.026c2.02-1.753,6.884-8.456,8.2-10.661.934-1.569,2.532-4.334,2.332-6.2a13.113,13.113,0,0,0-2.733,1.457,8.7,8.7,0,0,0-.727,1.081c-.467.931-.871,1.9-1.312,2.82a34.568,34.568,0,0,1-2.982,5.023,33.368,33.368,0,0,0-2.977,4.969A1.817,1.817,0,0,0,798.55,1211.615Z" transform="translate(-739.521 -1124.336)" fill="#e59193"/>
        <path id="Path_1998" data-name="Path 1998" d="M554.76,1129.584l.42,1.091a35.944,35.944,0,0,1,3.3,1.537c1.319.835,3.2,1.335,4.223,2.52a23.486,23.486,0,0,0-7.207-6.583Z" transform="translate(-538.253 -1069.062)" fill="#4980ee"/>
        <path id="Path_1999" data-name="Path 1999" d="M819.2,1159.852a10.277,10.277,0,0,1,2.546-2.327,21.471,21.471,0,0,1,3.385-2.593,1.907,1.907,0,0,1,1.38-.162c-.2-.471-.4-.939-.6-1.41a13.771,13.771,0,0,0-2.328.931A7.425,7.425,0,0,0,819.2,1159.852Z" transform="translate(-756.606 -1089.879)" fill="#4980ee"/>
        <path id="Path_2000" data-name="Path 2000" d="M675.892,957.515a6.325,6.325,0,0,0,1.318,4.252c2.309,2.45,4.917,1.917,7.146.42a9.251,9.251,0,0,0,2.363-3.128,6.115,6.115,0,0,0-.174-2.722,20.157,20.157,0,0,1-.181-2.551q-.014-.54-.014-1.084a18.426,18.426,0,0,1,.45-4.367c-9.723.349-9.718-1.091-10.2,1.311-.084.427-.153.856-.218,1.284-.087.579-.174,1.162-.235,1.743A33.777,33.777,0,0,0,675.892,957.515Z" transform="translate(-638.269 -920.489)" fill="#eaaaab"/>
        <path id="Path_2001" data-name="Path 2001" d="M677.35,952.677a2.7,2.7,0,0,0,.312.3c1.891,1.584,4.88,1.518,7.114,1a7.058,7.058,0,0,0,2.773-1.283,18.426,18.426,0,0,1,.45-4.367c-9.723.349-9.718-1.091-10.2,1.311-.084.427-.153.856-.218,1.284C677.5,951.507,677.42,952.091,677.35,952.677Z" transform="translate(-639.478 -920.489)" fill="#e59193"/>
        <path id="Path_2002" data-name="Path 2002" d="M665.767,1267.845c1.473-1.075,2.937-1.954,4.326-3.172,1.7-1.494,3.745-2.6,5.31-4.268,3.031-3.224,6.64-5.79,9.742-8.939,3.66-3.716,7.7-8.08,12.2-10.725,3.55-2.091,9.561-3.806,10.408,2.016.486,3.332-2.18,7.515-3.777,10.323-2.287,4.026-6.072,6.325-9.833,8.768a86.472,86.472,0,0,1-21.052,9.586c-3.785,1.2-7.684,2.091-11.482,3.242-.81.244-1.61.537-2.423.781a4.462,4.462,0,0,1-1.033.349c-.856,0-.544-.1-1.006-.579-1.534-1.588-1.305-3.93.742-4.849C659.118,1269.841,660.551,1269.757,665.767,1267.845Z" transform="translate(-621.974 -1160.412)" fill="#412f94"/>
        <path id="Path_2003" data-name="Path 2003" d="M657.655,850.914a13.473,13.473,0,0,0,1.647,6.6,15.674,15.674,0,0,0,1.4,1.9c2.074,2.395,5.032,4.237,8.017,2.789a12.974,12.974,0,0,0,4.706-3.834,9.012,9.012,0,0,0,1.856-4.606,29.3,29.3,0,0,0,.019-4.183c-.091-1.623-.26-3.233-.371-4.822a45.246,45.246,0,0,0-5.387-3.153c-4.969-2.4-7.717-1.917-9.934-.084a5.772,5.772,0,0,0-1.833,3.641,13.742,13.742,0,0,0-.157,2.044C657.621,848.383,657.6,849.641,657.655,850.914Z" transform="translate(-623.183 -831.111)" fill="#eaaaab"/>
        <path id="Path_2004" data-name="Path 2004" d="M657.662,858.128a3.66,3.66,0,0,1,2.194-1.194c1.743-.239,3.074,1.22,4.678,1.5a8.746,8.746,0,0,0,4.245-.228c1.663-.559,2.924-1.532,4.716-1.614a10.287,10.287,0,0,1,1.818.207c-.091-1.623-.26-3.233-.371-4.822a45.256,45.256,0,0,0-5.387-3.153,21.191,21.191,0,0,0-4.246-.019c-2.191.2-4.441.464-6.2,1.936a5.769,5.769,0,0,0-1.318,1.64,13.742,13.742,0,0,0-.157,2.044C657.628,855.6,657.6,856.856,657.662,858.128Z" transform="translate(-623.19 -838.325)" fill="#e59193"/>
        <path id="Path_2005" data-name="Path 2005" d="M686.524,914.241c-.671,3.876-2.734,7.494-6.487,9.143-3.311,1.457-7.2-.3-9.326-2.991-.206-.26.159-.629.366-.368,2.179,2.75,6.062,4.378,9.336,2.6s4.993-4.955,5.61-8.51c.057-.328.558-.19.5.138Z" transform="translate(-633.946 -892.172)" fill="#fff"/>
        <path id="Path_2006" data-name="Path 2006" d="M759.65,1251.458c-1.091,6.82-6.264,11.757-11.307,15.983-5.4,4.531-11.851,7.494-17.909,11.03-3.458,2.022-7.24,3.24-10.915,4.786-.307.129-.441-.373-.138-.5,2.006-.844,4.059-1.568,6.07-2.4a54.734,54.734,0,0,0,6.136-3.148c3.719-2.114,7.538-4.054,11.154-6.349a58.834,58.834,0,0,0,10.037-8.108c3.092-3.1,5.673-7.041,6.375-11.429.052-.329.552-.188.5.138Z" transform="translate(-674.042 -1170.611)" fill="#2e2264"/>
        <path id="Path_2007" data-name="Path 2007" d="M511.209,1283.763s-43.837-6.689-50.876-29.764a6.18,6.18,0,0,1,.417-4.723c.918-1.715,2.87-3.374,7.024-2.886,8.017.941,27.836,25.668,42.732,32.051C510.5,1278.44,512.381,1280.311,511.209,1283.763Z" transform="translate(-460.046 -1166.624)" fill="#412f94"/>
        <path id="Path_2008" data-name="Path 2008" d="M519.716,1283.245a82.8,82.8,0,0,1-14.319-4.514,122.6,122.6,0,0,1-14.037-6.52c-7.484-4.008-16.046-8.439-19.945-16.431-1.461-3-2.266-6.856,1.013-8.939.282-.174.544.27.263.45-3.395,2.158-1.893,6.372-.31,9.216a27.828,27.828,0,0,0,8.207,8.684,94.339,94.339,0,0,0,11.229,6.677,120.932,120.932,0,0,0,13.507,6.285,83.088,83.088,0,0,0,14.523,4.592c.328.061.19.561-.138.5Z" transform="translate(-468.384 -1167.035)" fill="#221b41"/>
        <path id="Path_2009" data-name="Path 2009" d="M661.291,834.993c-.46-.455-.65-.661-1.323-.591-1.077.112-2.307-.8-3.2-1.309a1.772,1.772,0,0,1-.607-.476c-.382-.537-.134-1.284-.41-1.9a2.557,2.557,0,0,0-1.373-1.323,1.22,1.22,0,0,0-.917-.024c-.851.364-.545,1.394-1.119,1.929-.7.648-1.278-.174-1.718-.688-.566-.664-1.678-.634-1.673.434a1.526,1.526,0,0,1-.01.5.6.6,0,0,1-.349.349c-.582.237-1.1-.138-1.61-.366-1.311-.582-1.337.493-1.138,1.351.241,1.046-.223,1.534-1.288,1.687a1.24,1.24,0,0,0-.894.38c-.277.373-.235.838-.716,1.086a1.394,1.394,0,0,1-.737.113,3.006,3.006,0,0,1-2.825-3.21,7.952,7.952,0,0,1,2.125-4.008,12.1,12.1,0,0,1,6.157-3.867c2.694-.845,5.511-.01,8.006,1.06,1.882.807,3.311,2.36,4.838,3.7a5.1,5.1,0,0,1,1.394,1.9c.272.589.645.934.561,1.644Z" transform="translate(-608.116 -818.507)" fill="#272440"/>
        <path id="Path_2010" data-name="Path 2010" d="M695.591,932.3H688.54s.593,4.009,3.594,3.784S695.591,932.3,695.591,932.3Z" transform="translate(-648.718 -907.345)" fill="#fff"/>
        <path id="Path_2011" data-name="Path 2011" d="M776.293,832.363a.931.931,0,0,0,.106-.024.723.723,0,0,0,.08-.024l.145-.052c.092-.037.174-.078.265-.12a3.7,3.7,0,0,0,.474-.289,3.483,3.483,0,0,0,.765-.734,2.117,2.117,0,0,0,.146-.207,1.958,1.958,0,0,0,.131-.214l.117-.22c.033-.075.063-.15.092-.225a3.567,3.567,0,0,0,.145-.451c.038-.15.059-.3.087-.451-.1.12-.185.239-.284.349a3.372,3.372,0,0,1-.315.3l-.164.132-.174.115a1.449,1.449,0,0,1-.174.1,1.706,1.706,0,0,1-.174.087,2.446,2.446,0,0,1-.729.19,2.2,2.2,0,0,1-.349.009,1.569,1.569,0,0,1-.164-.019.322.322,0,0,1-.073-.016l-.03-.01s-.021,0,0-.012Z" transform="translate(-721.106 -822.338)" fill="#272440"/>
        <path id="Path_2012" data-name="Path 2012" d="M631.952,822.227h-.08l-.1-.021c-.068-.016-.138-.035-.206-.054-.139-.04-.279-.089-.417-.139a5.791,5.791,0,0,1-.816-.383,5.076,5.076,0,0,1-.765-.523,4.894,4.894,0,0,1-.681-.676,5.278,5.278,0,0,0,.322.946,5.814,5.814,0,0,0,.5.9,7.058,7.058,0,0,0,.657.831c.122.131.247.261.382.385.068.063.136.124.207.185.035.031.073.061.112.092l.059.045a.732.732,0,0,0,.075.052Z" transform="translate(-599.464 -814.972)" fill="#272440"/>
        <path id="Path_2013" data-name="Path 2013" d="M619.177,843.94a2.743,2.743,0,0,0-1.515.492,3.035,3.035,0,0,0-1.061,1.262,3.671,3.671,0,0,0-.242.791,3.6,3.6,0,0,0-.047.408,3.49,3.49,0,0,0,0,.4,4.2,4.2,0,0,0,.349,1.544,14.4,14.4,0,0,1,.082-1.527,6.1,6.1,0,0,1,.132-.72,4.466,4.466,0,0,1,.234-.674,3.622,3.622,0,0,1,.824-1.149A4.771,4.771,0,0,1,619.177,843.94Z" transform="translate(-589.073 -834.385)" fill="#4d4b67"/>
        <path id="Path_2014" data-name="Path 2014" d="M623.543,853.5a.892.892,0,0,0-.495.174.939.939,0,0,0-.336.436,1.02,1.02,0,0,0-.042.544,1.391,1.391,0,0,0,.08.251,1.421,1.421,0,0,0,.138.221,2.358,2.358,0,0,0,0-.253v-.237a1.488,1.488,0,0,1,.084-.429A1.687,1.687,0,0,1,623.543,853.5Z" transform="translate(-594.311 -842.279)" fill="#4d4b67"/>
        <path id="Path_2015" data-name="Path 2015" d="M786.674,853.956a2.764,2.764,0,0,0,.725-1.419,3.031,3.031,0,0,0-.145-1.64,3.581,3.581,0,0,0-.387-.732,3.806,3.806,0,0,0-.254-.321,3.435,3.435,0,0,0-.282-.291,4.2,4.2,0,0,0-1.34-.844,14.22,14.22,0,0,1,1.021,1.138,5.685,5.685,0,0,1,.415.6,4.278,4.278,0,0,1,.312.643,3.586,3.586,0,0,1,.23,1.394,4.747,4.747,0,0,1-.295,1.469Z" transform="translate(-728.358 -838.324)" fill="#4d4b67"/>
        <path id="Path_2016" data-name="Path 2016" d="M788.226,860.87a.883.883,0,0,0,.23-.471.937.937,0,0,0-.07-.545,1.014,1.014,0,0,0-.349-.413,1.42,1.42,0,0,0-.234-.122,1.456,1.456,0,0,0-.254-.059c.061.066.124.119.174.174s.115.112.164.174a1.459,1.459,0,0,1,.244.362A1.676,1.676,0,0,1,788.226,860.87Z" transform="translate(-730.472 -847.035)" fill="#4d4b67"/>
        <path id="Path_2017" data-name="Path 2017" d="M759.45,951.64a2.555,2.555,0,0,0,1.607.293,2.962,2.962,0,0,0,1.555-.7,3.4,3.4,0,0,0,.565-.643,3.493,3.493,0,0,0,.213-.364c.03-.063.064-.124.091-.186l.077-.193a3.615,3.615,0,0,0,.228-1.6c-.288.46-.523.9-.809,1.3-.136.2-.279.39-.427.57a5.125,5.125,0,0,1-.481.49,3.938,3.938,0,0,1-1.162.7A5.807,5.807,0,0,1,759.45,951.64Z" transform="translate(-707.269 -920.516)" fill="#4d4b67"/>
        <path id="Path_2018" data-name="Path 2018" d="M630.131,929.84a2.534,2.534,0,0,0-.6,1.52,2.953,2.953,0,0,0,.387,1.661,3.45,3.45,0,0,0,.523.68,3.41,3.41,0,0,0,.315.279,1.714,1.714,0,0,0,.174.125l.174.113a3.64,3.64,0,0,0,1.523.537c-.394-.373-.781-.7-1.119-1.046q-.251-.249-.476-.523a5,5,0,0,1-.387-.566,3.9,3.9,0,0,1-.457-1.277A5.678,5.678,0,0,1,630.131,929.84Z" transform="translate(-599.988 -905.314)" fill="#4d4b67"/>
        <path id="Path_2019" data-name="Path 2019" d="M766.26,954.139a.883.883,0,0,0,.523.052.922.922,0,0,0,.486-.254,1.01,1.01,0,0,0,.267-.476,1.35,1.35,0,0,0,.033-.263,1.582,1.582,0,0,0-.033-.258c-.042.08-.07.157-.1.232a1.6,1.6,0,0,1-.1.213,1.447,1.447,0,0,1-.256.349A1.659,1.659,0,0,1,766.26,954.139Z" transform="translate(-712.892 -924.388)" fill="#4d4b67"/>
        <path id="Path_2020" data-name="Path 2020" d="M661.907,865.51a7.106,7.106,0,0,1-.094.776,1.648,1.648,0,0,1-.234.6,1.487,1.487,0,0,1-.472.427c-.2.125-.439.228-.7.359a1.482,1.482,0,0,0,.854.044,1.274,1.274,0,0,0,.77-.523,1.34,1.34,0,0,0,.221-.9A1.427,1.427,0,0,0,661.907,865.51Z" transform="translate(-625.49 -852.196)" fill="#4d4b67"/>
        <path id="Path_2021" data-name="Path 2021" d="M732.81,857.207a1.521,1.521,0,0,0,.07.382c.023.063.047.125.075.185a1.619,1.619,0,0,0,.1.159,1.3,1.3,0,0,0,.221.249,1.185,1.185,0,0,0,.108.087,1.136,1.136,0,0,0,.106.077,6.756,6.756,0,0,0,.652.349l.1.054.035.021.017.01h0l.021.01h0a.023.023,0,0,1,0-.012h.021s0,0,.009.012-.009.012-.012.019,0,.017-.017.028a2.446,2.446,0,0,1-.457.349,3.007,3.007,0,0,0-.335.253l-.089.082c-.03.031-.059.068-.089.1a1.35,1.35,0,0,0-.155.246,1.045,1.045,0,0,0-.08.6.728.728,0,0,0,.031.146c.017.047.037.1.057.143a.64.64,0,0,0,.073.125.823.823,0,0,0,.085.112,2.142,2.142,0,0,0,.7.462,2.032,2.032,0,0,1,.479.279.265.265,0,0,1,.082.138.311.311,0,0,1,0,.174.992.992,0,0,1-.375.371,4,4,0,0,0-.584.434.851.851,0,0,0-.223.361.72.72,0,0,0,.216.769,1.483,1.483,0,0,0,.3.209c.207.112.418.2.608.314a.685.685,0,0,1,.368.523.73.73,0,0,0-.312-.6c-.174-.15-.383-.265-.563-.4a.767.767,0,0,1-.349-.457.451.451,0,0,1,.04-.247.536.536,0,0,1,.174-.193,3.876,3.876,0,0,1,.568-.3,2.423,2.423,0,0,0,.329-.192,1.08,1.08,0,0,0,.312-.331.884.884,0,0,0,.11-.5.79.79,0,0,0-.016-.129c-.012-.044-.024-.085-.04-.129a.567.567,0,0,0-.056-.119.866.866,0,0,0-.068-.108,2.426,2.426,0,0,0-.622-.523,1.419,1.419,0,0,1-.406-.338c-.019-.045-.026-.063-.016-.094a.436.436,0,0,1,.03-.066,1.5,1.5,0,0,1,.349-.211,3.371,3.371,0,0,0,.7-.4.835.835,0,0,0,.1-.094.873.873,0,0,0,.1-.11,1.183,1.183,0,0,0,.174-.289,1.233,1.233,0,0,0,.066-.682c-.014-.057-.031-.115-.051-.174l-.031-.085c-.012-.026-.026-.049-.04-.075s-.057-.1-.089-.146a.959.959,0,0,0-.1-.117l-.049-.056-.049-.045-.1-.089c-.061-.051-.124-.1-.174-.139-.228-.16-.422-.275-.523-.37a.2.2,0,0,1-.028-.03.182.182,0,0,1-.021-.024c0-.007-.012-.021,0-.014s0,0,.01.012a.046.046,0,0,1,.017.023c0,.019.021.028.016.045Z" transform="translate(-685.272 -845.292)" fill="#272440"/>
        <path id="Path_2022" data-name="Path 2022" d="M646.37,880.566a1.57,1.57,0,0,0,.174.349c.038.054.08.108.122.157a1.588,1.588,0,0,0,.138.127,1.509,1.509,0,0,0,.281.174c.045.024.085.037.129.056a1.165,1.165,0,0,0,.122.044,6.649,6.649,0,0,0,.713.152l.112.026.038.01h.051a.019.019,0,0,1,0-.012s.016,0,.017-.012,0,0,.012,0,0,.014,0,.023a.047.047,0,0,1-.01.031,2.483,2.483,0,0,1-.349.451,3.535,3.535,0,0,0-.254.335l-.063.1c-.019.038-.038.082-.056.122a1.3,1.3,0,0,0-.085.279,1.059,1.059,0,0,0,.087.6.7.7,0,0,0,.07.132c.03.042.061.082.092.122a.724.724,0,0,0,.106.1.931.931,0,0,0,.112.084,2.12,2.12,0,0,0,.8.256,2.084,2.084,0,0,1,.537.139c.051.035.094.058.117.11a.309.309,0,0,1,.042.162.971.971,0,0,1-.258.458,3.906,3.906,0,0,0-.444.577.871.871,0,0,0-.117.408.761.761,0,0,0,.11.411.78.78,0,0,0,.307.27,1.373,1.373,0,0,0,.349.119c.232.052.457.075.671.138a.687.687,0,0,1,.5.406.73.73,0,0,0-.464-.495c-.214-.1-.443-.152-.65-.23a.765.765,0,0,1-.46-.349.467.467,0,0,1-.028-.251.524.524,0,0,1,.106-.23,3.7,3.7,0,0,1,.464-.448,2.342,2.342,0,0,0,.265-.274,1.087,1.087,0,0,0,.213-.4.9.9,0,0,0-.03-.507,1.032,1.032,0,0,0-.051-.12c-.023-.038-.047-.077-.073-.113a.58.58,0,0,0-.085-.1,1.077,1.077,0,0,0-.094-.087,2.465,2.465,0,0,0-.742-.335,1.443,1.443,0,0,1-.483-.214c-.03-.04-.042-.054-.04-.087a.127.127,0,0,1,.01-.071,1.425,1.425,0,0,1,.277-.3,3.451,3.451,0,0,0,.563-.573.922.922,0,0,0,.071-.118.854.854,0,0,0,.066-.132,1.135,1.135,0,0,0,.084-.324,1.232,1.232,0,0,0-.12-.674,1.709,1.709,0,0,0-.1-.152l-.052-.073c-.019-.023-.04-.042-.059-.063s-.082-.078-.124-.117a.8.8,0,0,0-.125-.085l-.063-.042-.059-.03-.117-.059c-.073-.031-.146-.061-.214-.085-.263-.092-.479-.15-.6-.213-.019,0-.023-.016-.035-.023a.114.114,0,0,1-.026-.017s-.019-.017,0-.014,0,0,.012,0a.049.049,0,0,1,.024.017c0,.016.028.021.026.038Z" transform="translate(-613.897 -864.216)" fill="#272440"/>
        <path id="Path_2023" data-name="Path 2023" d="M582.062,1400.425c-1.588-.251-3.165-.568-4.735-.913s-3.137-.729-4.685-1.143q-4.662-1.22-9.2-2.839c-1.511-.546-3.012-1.112-4.491-1.743-.373-.146-.741-.305-1.11-.46s-.739-.31-1.107-.472c-.735-.319-1.473-.631-2.2-.962-2.938-1.288-5.8-2.733-8.641-4.252l-.037.059c1.328.913,2.682,1.8,4.092,2.583l.523.3.523.288,1.068.573c.722.362,1.44.734,2.172,1.075.366.174.73.349,1.1.511l1.108.484c.37.164.748.307,1.121.46s.748.3,1.126.446l1.135.427,1.14.408c.378.139.76.268,1.143.4s.762.265,1.145.387q4.6,1.523,9.3,2.653,2.353.556,4.727,1.011c1.582.3,3.17.575,4.768.779Z" transform="translate(-530.896 -1283.328)" fill="#fff"/>
        <path id="Path_2024" data-name="Path 2024" d="M493.852,1258.019c-.8-.9-1.631-1.76-2.48-2.614s-1.713-1.68-2.6-2.492a60.125,60.125,0,0,0-5.594-4.557c-.983-.7-2-1.359-3.052-1.962a16.486,16.486,0,0,0-3.348-1.466,11.117,11.117,0,0,0-1.809-.382,7.081,7.081,0,0,0-1.861.016,5.091,5.091,0,0,0-1.762.593,4.594,4.594,0,0,0-1.377,1.2l.051.047a4.965,4.965,0,0,1,3.137-1.358,7.147,7.147,0,0,1,1.722.1,10.843,10.843,0,0,1,1.689.437,23.289,23.289,0,0,1,3.231,1.408,32.374,32.374,0,0,1,3.073,1.82,59.807,59.807,0,0,1,5.68,4.357q2.729,2.327,5.256,4.89Z" transform="translate(-468.24 -1165.127)" fill="#fff"/>
        <path id="Path_2025" data-name="Path 2025" d="M822.362,1156.223l.535,5.751a.986.986,0,0,1-.7,1.046l-9.26,2.707a.99.99,0,0,1-1.244-1.157l1.1-5.145a.987.987,0,0,1,.572-.7l7.62-3.311a.988.988,0,0,1,1.37.807Z" transform="translate(-750.392 -1091.511)" fill="#74cdfc"/>
        <path id="Path_2026" data-name="Path 2026" d="M539.061,1134.268l-.535,5.751a.986.986,0,0,0,.706,1.046l9.26,2.7a.99.99,0,0,0,1.244-1.157l-1.1-5.145a.99.99,0,0,0-.573-.7l-7.62-3.311a.988.988,0,0,0-1.379.817Z" transform="translate(-524.844 -1073.372)" fill="#74cdfc"/>
        <path id="Path_2027" data-name="Path 2027" d="M545.334,1133.82c-.671-.378-1.354-.732-2.041-1.082s-1.384-.675-2.112-.96c-.174-.073-.368-.141-.558-.209l-.148-.047a1.206,1.206,0,0,0-.164-.044l-.1-.017H540.1a.948.948,0,0,0-.227.033.971.971,0,0,0-.38.225,1.336,1.336,0,0,0-.237.3,2.265,2.265,0,0,0-.225.626,4.531,4.531,0,0,0-.071,1.22,4.929,4.929,0,0,0,.2,1.166h.068c.08-.385.145-.763.214-1.135a9.065,9.065,0,0,1,.254-1.065,2.453,2.453,0,0,1,.174-.446.568.568,0,0,1,.207-.235c.017,0,.033-.017.056-.017h.071a.782.782,0,0,1,.117.016l.131.024c.174.04.359.085.539.141.361.108.72.234,1.079.362s.72.258,1.077.394c.72.263,1.433.549,2.149.828Z" transform="translate(-525.193 -1071.796)" fill="#fff"/>
        <path id="Path_2028" data-name="Path 2028" d="M847.248,1156.791c.281-.063.554-.136.83-.209l.41-.117.4-.125c.136-.042.275-.073.413-.108a1.375,1.375,0,0,0,.389-.174,1.973,1.973,0,0,0,.65-.62l-.028-.063a2.01,2.01,0,0,0-.9.051,1.42,1.42,0,0,0-.385.174c-.12.077-.237.159-.361.228l-.368.211-.364.22c-.242.152-.483.3-.72.464Z" transform="translate(-779.742 -1091.518)" fill="#fff"/>
        <path id="Path_2029" data-name="Path 2029" d="M613.935,1108.944l.289-1.119c.056-.183.091-.368.15-.547s.1-.364.153-.544.1-.363.15-.544.091-.364.143-.546.091-.366.146-.547.115-.359.174-.539.136-.349.2-.523l.1-.265c.037-.087.078-.174.119-.26l.234-.523.263-.507c.164-.349.371-.667.561-1l.071-.124.08-.12.16-.239.315-.485-.054-.042c-.251.293-.512.58-.749.889s-.476.615-.683.946a14.249,14.249,0,0,0-1.138,2.051,9.043,9.043,0,0,0-.776,2.229c-.016.1-.035.193-.049.293l-.031.294c-.019.2-.03.4-.031.593a4.612,4.612,0,0,0,.122,1.185Z" transform="translate(-586.954 -1046.206)" fill="#fff"/>
        <path id="Path_2030" data-name="Path 2030" d="M624.952,1096.34l-.572,2.8.41.052Z" transform="translate(-595.739 -1042.796)" fill="#fff"/>
        <path id="Path_2031" data-name="Path 2031" d="M786.185,1118.077a3.809,3.809,0,0,0,.138-.852,5.8,5.8,0,0,0,0-.852,6.629,6.629,0,0,0-.42-1.647,7.247,7.247,0,0,0-.711-1.556,4.084,4.084,0,0,0-.533-.678,2.2,2.2,0,0,0-.7-.491l-.031.061a2.9,2.9,0,0,1,.96,1.271,6.046,6.046,0,0,1,.272.76c.082.256.148.523.206.784a7.873,7.873,0,0,1,.127.8,7.772,7.772,0,0,0,.143.8c.061.265.127.523.207.8a7.187,7.187,0,0,0,.275.8Z" transform="translate(-727.483 -1055.727)" fill="#fff"/>
        <path id="Path_2032" data-name="Path 2032" d="M792.168,1108.21l-.518,2.825.413.043Z" transform="translate(-733.857 -1052.598)" fill="#fff"/>
        <path id="Path_2033" data-name="Path 2033" d="M687.758,1224.469a1.654,1.654,0,0,0-.019.246,4.039,4.039,0,0,0,4.774,3.962,3.6,3.6,0,0,0,.5-.143,3.186,3.186,0,0,0,2.018-3.683,2.383,2.383,0,0,0-1.5-1.8c-.755-.148-1.267.474-1.83.854-.831.563-1.283.044-2.008-.39a1.433,1.433,0,0,0-1.016-.234A1.359,1.359,0,0,0,687.758,1224.469Z" transform="translate(-648.056 -1147.408)" fill="#aa9ceb"/>
        <path id="Path_2034" data-name="Path 2034" d="M858.247,1241.979a4.316,4.316,0,0,0-.275-1.568,3.751,3.751,0,0,0-.871-1.358,3.837,3.837,0,0,0-.643-.5,4.052,4.052,0,0,0-.737-.357,5.678,5.678,0,0,0-1.591-.338,7.233,7.233,0,0,0-1.624.068,10.512,10.512,0,0,0-1.577.362,15.621,15.621,0,0,0-1.516.551c-.249.1-.49.216-.735.324s-.484.23-.721.349a26.764,26.764,0,0,0-5.331,3.552,26.243,26.243,0,0,0-2.3,2.236,18.151,18.151,0,0,0-1.955,2.531l.054.042a42.51,42.51,0,0,1,4.639-4.279q1.22-.985,2.5-1.9a26.1,26.1,0,0,1,2.646-1.694c.227-.129.462-.246.7-.368s.467-.235.708-.34a14.639,14.639,0,0,1,1.45-.582,10.108,10.108,0,0,1,1.5-.4,6.738,6.738,0,0,1,1.542-.115,5.46,5.46,0,0,1,1.518.254,4.012,4.012,0,0,1,.7.307,3.566,3.566,0,0,1,.622.448,3.956,3.956,0,0,1,1.22,2.776Z" transform="translate(-772.435 -1159.632)" fill="#fff"/>
        <path id="Path_2035" data-name="Path 2035" d="M691.405,1393.717c-.174-.417-.371-.823-.573-1.22l-.016-.031-.059-.036c-1.046-.661-2.091-1.307-3.149-1.917-.523-.308-1.075-.6-1.61-.9-.27-.148-.535-.3-.8-.458s-.523-.308-.793-.471c-1.058-.629-2.091-1.3-3.114-1.98s-2.02-1.406-3-2.154l-.045.054c.92.824,1.877,1.61,2.86,2.363s2,1.466,3.024,2.154c.254.174.523.349.774.523s.523.349.776.511c.523.349,1.046.676,1.569.988s1.088.594,1.642.871,1.119.523,1.7.765l-.075-.068c.268.359.544.715.835,1.06Z" transform="translate(-640.213 -1280.776)" fill="#fff"/>
        <path id="Path_2036" data-name="Path 2036" d="M642.732,1006.35a8.018,8.018,0,0,0-1.577,1.26,10.662,10.662,0,0,0-2.266,3.371c-.145.31-.249.636-.364.959-.059.16-.1.328-.141.493l-.131.5a.349.349,0,0,0,.235.415h.024a8.447,8.447,0,0,1,.9.324c.3.127.587.27.871.425a7.091,7.091,0,0,1,.807.523,5.755,5.755,0,0,1,.713.633l.037-.444c-.242.207-.464.413-.685.633s-.43.443-.631.683a5.649,5.649,0,0,0-.556.769,2.092,2.092,0,0,0-.331.969.246.246,0,0,0,.1.207h0a14.615,14.615,0,0,1,1.133.943q.549.5,1.06,1.046a19.584,19.584,0,0,1,1.867,2.318,15.882,15.882,0,0,1,1.45,2.6c.1.227.19.462.284.7a7.062,7.062,0,0,1,.242.708,13.7,13.7,0,0,1,.376,1.448l.068-.012a13.513,13.513,0,0,0-.79-2.909,16.153,16.153,0,0,0-1.372-2.7,18.667,18.667,0,0,0-1.825-2.423c-.336-.378-.687-.746-1.046-1.1a14.321,14.321,0,0,0-1.15-1.013l.1.209a1.64,1.64,0,0,1,.281-.715,5.326,5.326,0,0,1,.523-.68c.2-.216.4-.423.619-.624s.443-.4.666-.573a.305.305,0,0,0,.051-.429l-.012-.014h0a6.521,6.521,0,0,0-.765-.739,7.017,7.017,0,0,0-.871-.607,8.578,8.578,0,0,0-.934-.481c-.16-.07-.322-.136-.488-.2s-.326-.113-.511-.164l.258.42a13.554,13.554,0,0,1,.539-1.858,12.373,12.373,0,0,1,1.917-3.381,10.627,10.627,0,0,1,1.356-1.433Z" transform="translate(-607.187 -968.49)" fill="#fff"/>
        <path id="Path_2037" data-name="Path 2037" d="M734.686,1005.815a10.647,10.647,0,0,1,1.358,1.433,11.84,11.84,0,0,1,1.094,1.621,11.694,11.694,0,0,1,.821,1.76,13.555,13.555,0,0,1,.537,1.858l.26-.42c-.185.051-.349.1-.512.164s-.328.125-.488.2a8.6,8.6,0,0,0-.934.481,6.888,6.888,0,0,0-.871.606,6.528,6.528,0,0,0-.767.739h0a.3.3,0,0,0,.023.43l.014.012c.225.174.451.375.666.573s.425.408.619.624a5.186,5.186,0,0,1,.523.68,1.644,1.644,0,0,1,.282.714l.1-.209a14.632,14.632,0,0,0-1.148,1.013q-.549.523-1.046,1.1a18.51,18.51,0,0,0-1.825,2.422,15.943,15.943,0,0,0-1.372,2.7,13.451,13.451,0,0,0-.789,2.911l.068.012a13.69,13.69,0,0,1,.375-1.448c.071-.24.162-.472.244-.708a7.385,7.385,0,0,1,.282-.7,15.773,15.773,0,0,1,1.452-2.6,19.378,19.378,0,0,1,1.867-2.316q.509-.544,1.058-1.046a14.3,14.3,0,0,1,1.135-.941h0a.242.242,0,0,0,.1-.207,2.091,2.091,0,0,0-.329-.969,5.653,5.653,0,0,0-.556-.769c-.2-.24-.413-.465-.633-.683s-.441-.425-.683-.633l.037.444a5.716,5.716,0,0,1,.711-.633,7.247,7.247,0,0,1,.809-.523,9.575,9.575,0,0,1,.871-.425,8.47,8.47,0,0,1,.9-.324h.023a.349.349,0,0,0,.237-.415l-.131-.5a4.645,4.645,0,0,0-.143-.493c-.113-.322-.218-.648-.362-.96a10.758,10.758,0,0,0-.971-1.8,10.374,10.374,0,0,0-1.29-1.569,8.056,8.056,0,0,0-1.569-1.26Z" transform="translate(-683.967 -968.002)" fill="#fff"/>
        <path id="Path_2038" data-name="Path 2038" d="M697.52,1085.07l.62,7.749,1.173-7.686Z" transform="translate(-656.133 -1033.49)" fill="#fff"/>
        <path id="Path_2039" data-name="Path 2039" d="M574.005,1164.463h34.119l6.494-30.383H567.51Z" transform="translate(-548.781 -1073.959)" fill="#2e2264"/>
        <path id="Path_2040" data-name="Path 2040" d="M574.005,1171.073h34.119l6.494-30.383H567.51Z" transform="translate(-548.781 -1079.417)" fill="#7052fa"/>
        <rect id="Rectangle_825" data-name="Rectangle 825" width="4.767" height="4.767" transform="translate(45.654 76.464) rotate(135)" fill="#aa9ceb"/>
        <path id="Path_2041" data-name="Path 2041" d="M692.72,1210.132l3.74-3.742,3.74,3.742-3.74,3.74Zm3.74-3-2.994,3,3,3,3-3Z" transform="translate(-652.169 -1133.666)" fill="#aa9ceb"/>
        <path id="Path_2042" data-name="Path 2042" d="M758.475,1137.6l-16.525.62,16.525.622Z" transform="translate(-692.819 -1076.865)" fill="#fff"/>
      </g>
      <g id="Group_1377" data-name="Group 1377" transform="translate(279.314 133.75)">
        <path id="Path_2043" data-name="Path 2043" d="M1745.555,830.533a1.83,1.83,0,1,0-1.513-2.091A1.83,1.83,0,0,0,1745.555,830.533Z" transform="translate(-1719.382 -816.533)" fill="#fff"/>
        <path id="Path_2044" data-name="Path 2044" d="M1734.32,1127.347c-.423-.575-.95-1.027-1.4-1.569a11.246,11.246,0,0,1-.938-1.506.207.207,0,0,1,.349-.207,8.146,8.146,0,0,0,1.136,1.7,11.992,11.992,0,0,1,1.206,1.37c.157.214-.2.42-.349.209Z" transform="translate(-1709.43 -1061.855)" fill="#6949f9"/>
        <path id="Path_2045" data-name="Path 2045" d="M1700.18,1064.976s8.907-3.433-1.645-12.374c0,0-3.01-2.055-4.964-1.619C1692.951,1051.12,1690.6,1066.537,1700.18,1064.976Z" transform="translate(-1677.142 -1001.514)" fill="#846dfa"/>
        <path id="Path_2046" data-name="Path 2046" d="M1760.641,1191.05s6.034-7.546,11.513,3.208a8.366,8.366,0,0,1,.4,6.684c-.012.03-.023.061-.035.092a1.173,1.173,0,0,0-.066.244,3.481,3.481,0,0,0,.064,1.636.378.378,0,0,1-.3.523c-2.466.323-11.477,1.02-14.051-5.509C1756.024,1192.507,1760.641,1191.05,1760.641,1191.05Z" transform="translate(-1730.591 -1115.096)" fill="#6949f9"/>
        <path id="Path_2047" data-name="Path 2047" d="M1675.854,1149.142s3.276-3.331-1.068-5.309c-4.035-1.837-5.577,1.354-7.78,1.236a.293.293,0,0,0-.3.411C1667.646,1147.486,1671.443,1154.634,1675.854,1149.142Z" transform="translate(-1655.522 -1077.761)" fill="#6949f9"/>
        <path id="Path_2048" data-name="Path 2048" d="M1758.986,1119.808s-2.87-11.144,16.8-9.586C1775.79,1110.234,1776.069,1127.047,1758.986,1119.808Z" transform="translate(-1731.619 -1050.356)" fill="#db3256"/>
        <path id="Path_2049" data-name="Path 2049" d="M1740.274,869.7l-1.675,73.446a1.345,1.345,0,1,0,2.688.021c-.089-10.068-.606-70.828.014-73.467Z" transform="translate(-1714.904 -851.876)" fill="#6949f9"/>
        <path id="Path_2050" data-name="Path 2050" d="M1721.393,785.557c.349.066.545.087.545.087s11.245,1.875,7.494-15.455a10.356,10.356,0,0,1,.27-2.206c.045-.174.094-.336.15-.5,0,0-12.909.26-15.1,8.691C1712.891,783.361,1719.425,785.173,1721.393,785.557Z" transform="translate(-1694.944 -767.471)" fill="#edc73b"/>
        <path id="Path_2051" data-name="Path 2051" d="M1786.4,824.22s-12.337,2.5-11.245,11.557C1775.152,835.777,1780.462,843.116,1786.4,824.22Z" transform="translate(-1745.034 -814.323)" fill="#5d3abb"/>
        <path id="Path_2052" data-name="Path 2052" d="M1718.271,1173.863a8.48,8.48,0,0,0-2.05-3.212c-.871-.753-1.985-.946-2.862-1.64-.209-.164.085-.455.291-.291a9.59,9.59,0,0,0,1.673.805,6.3,6.3,0,0,1,1.429,1.046,9.389,9.389,0,0,1,1.875,3.08c.1.242-.251.453-.349.209Z" transform="translate(-1694.006 -1098.743)" fill="#6949f9"/>
        <path id="Path_2053" data-name="Path 2053" d="M1752.243,1198.074c-.964-1.34-4.139-1.917-5.349-.687a.207.207,0,0,1-.293-.293c1.42-1.448,4.88-.784,6,.772.155.216-.2.422-.349.207Z" transform="translate(-1721.47 -1121.549)" fill="#6949f9"/>
        <path id="Path_2054" data-name="Path 2054" d="M1702.181,1231.416a4.906,4.906,0,0,0-8.16.479c-.145.223-.5.016-.349-.209a5.325,5.325,0,0,1,8.808-.561c.174.2-.12.495-.291.291Z" transform="translate(-1677.778 -1148.602)" fill="#6949f9"/>
        <path id="Path_2055" data-name="Path 2055" d="M1749.824,1062.1a8.209,8.209,0,0,0-1.365.786,6.337,6.337,0,0,1-.978.828.207.207,0,0,1-.208-.357,11.475,11.475,0,0,0,1.082-.918,12.433,12.433,0,0,1,1.26-.7.207.207,0,0,1,.207.357Z" transform="translate(-1721.997 -1010.429)" fill="#6949f9"/>
        <path id="Path_2056" data-name="Path 2056" d="M1727.181,1029.7a8.835,8.835,0,0,0-4.073-2.29c-.249-.087-.143-.488.11-.4a9.265,9.265,0,0,1,4.254,2.4C1727.646,1029.606,1727.354,1029.9,1727.181,1029.7Z" transform="translate(-1701.997 -981.759)" fill="#6949f9"/>
        <path id="Path_2057" data-name="Path 2057" d="M1758.135,930.32c-3.153,2.02-8.7,3.63-10.054,7.581-.087.249-.486.143-.4-.11,1.394-4.085,6.994-5.751,10.244-7.829.225-.143.432.214.209.349Z" transform="translate(-1722.395 -901.609)" fill="#6949f9"/>
        <path id="Path_2058" data-name="Path 2058" d="M1715.712,921.783a13.878,13.878,0,0,0-3.066-4.575,15.668,15.668,0,0,0-3.5-3.161.207.207,0,0,1,.207-.349,16.1,16.1,0,0,1,3.96,3.66,13.171,13.171,0,0,1,2.8,4.331.207.207,0,0,1-.4.11Z" transform="translate(-1690.531 -888.197)" fill="#6949f9"/>
        <path id="Path_2059" data-name="Path 2059" d="M1755.87,887.869a17.2,17.2,0,0,1-2.576,1.781,11.379,11.379,0,0,1-2.679,1.046c-.261.04-.373-.349-.112-.4a12.284,12.284,0,0,0,2.614-1.032,16.667,16.667,0,0,0,2.55-1.759c.219-.152.425.207.209.349Z" transform="translate(-1724.613 -866.549)" fill="#5d3abb"/>
        <path id="Path_2060" data-name="Path 2060" d="M1602.683,941.86a16.7,16.7,0,0,1,11.938-2.818,17.185,17.185,0,0,1,4.93,1.569s-4.373-7.494-11.034-4.793c-.408.174-.79.336-1.142.5C1601.951,938.925,1602.683,941.86,1602.683,941.86Z" transform="translate(-1602.65 -905.986)" fill="#846dfa"/>
        <path id="Path_2061" data-name="Path 2061" d="M1804.15,908.181a22.674,22.674,0,0,1,10.654.349,19.025,19.025,0,0,1,9.643,6.215s3.75-4.995-6.142-10.41c-5.481-3-9.237-1.488-11.492.451a11.254,11.254,0,0,0-2.663,3.4Z" transform="translate(-1769.032 -879.074)" fill="#89f2ff"/>
        <path id="Path_2062" data-name="Path 2062" d="M1607,1015.93a21.424,21.424,0,0,1,22.074-8.745,22.384,22.384,0,0,0-7.146-4.444,10.42,10.42,0,0,0-6.595-.349C1608.666,1004.477,1607.211,1010.725,1607,1015.93Z" transform="translate(-1606.242 -961.121)" fill="#6949f9"/>
        <path id="Path_2063" data-name="Path 2063" d="M1757.54,1034.238c20.821-3.54,31.233,8.54,31.233,8.54a15.054,15.054,0,0,0-.038-3.534c-.036-.279-.078-.552-.127-.819a12.573,12.573,0,0,0-9.4-9.831c-10.457-2.614-16.334.3-19.256,2.825A10.752,10.752,0,0,0,1757.54,1034.238Z" transform="translate(-1730.546 -982.231)" fill="#846dfa"/>
        <path id="Path_2064" data-name="Path 2064" d="M1721.39,975.418a43.486,43.486,0,0,0,9.96-.96c4.1-1.093,5.968,3.592-3.245,12.181,0,0-.643-2.03-9.063-4.256S1711.083,972.474,1721.39,975.418Z" transform="translate(-1693.896 -938.247)" fill="#89f2ff"/>
        <path id="Path_2065" data-name="Path 2065" d="M1664,1240.726s.336.061.894.12c2.663.277,10.372.509,10.2-6.192a2.365,2.365,0,0,0-1.569-2.156,10.441,10.441,0,0,0-2.675-.535,13.377,13.377,0,0,0-4.554.486C1660.877,1233.933,1667.278,1238.382,1664,1240.726Z" transform="translate(-1653.308 -1150.98)" fill="#edc73b"/>
        <path id="Path_2066" data-name="Path 2066" d="M1785.744,1210.231a.565.565,0,0,0,1-.316,6.586,6.586,0,0,0-.908-3.85c-.983-1.771-2.288-3.909-4.205-4.828a1.775,1.775,0,0,0-2.412.387c-.809.718-1.72.523-2.55,1.1-.925.641-.739,2.187-.138,2.982.77,1.021,2.351.887,3.5,1.154A12.11,12.11,0,0,1,1785.744,1210.231Z" transform="translate(-1745.812 -1125.38)" fill="#846dfa"/>
        <path id="Path_2067" data-name="Path 2067" d="M1792.979,1127.92a.4.4,0,0,1,.6.5,25.314,25.314,0,0,1-1.569,2.381,9.47,9.47,0,0,1-4.322,3.432c-1.155.45-4.892,1.474-4.814-.76.075-2.091,2.768-2.325,4.24-2.789A16.831,16.831,0,0,0,1792.979,1127.92Z" transform="translate(-1751.463 -1065.016)" fill="#a02a50"/>
        <path id="Path_2068" data-name="Path 2068" d="M1678.607,1156.676a.549.549,0,0,1,.76-.295c1.53.711,4.158.722,4.368,2.891.148,1.527-1.616,1.269-2.565,1.046S1677.86,1158.869,1678.607,1156.676Z" transform="translate(-1665.25 -1088.546)" fill="#846dfa"/>
        <path id="Path_2069" data-name="Path 2069" d="M1746.9,985.49a20.289,20.289,0,0,1-5,.7c-1.825-.092-3.616-.37-5.422-.551-1.033-.1-4.531-.573-3.364,1.569.777,1.422,3.785,1.917,5.239,2.274.992.247,1.992.4,2.963.723.739.247,1.413.682,2.144.925a5.652,5.652,0,0,1,2.241-2.911C1746.08,987.961,1748.743,986.241,1746.9,985.49Z" transform="translate(-1710.182 -947.486)" fill="#fff"/>
        <path id="Path_2070" data-name="Path 2070" d="M1793.618,849.05a42.758,42.758,0,0,1-2.55,5.734c-.415.667-1.6,2.041-2.372.986-.6-.819.057-1.992.58-2.654A19.34,19.34,0,0,1,1793.618,849.05Z" transform="translate(-1756.074 -834.825)" fill="#846dfa"/>
        <path id="Path_2071" data-name="Path 2071" d="M1721.37,785.515c.4-1.666-2.105-2.708-3.071-3.508a4.163,4.163,0,0,1-1.5-4.416c.917-3.55,4.49-5.542,7.395-7.32,1.786-.728,3.137-1.236,4.531-1.931.281-.138.607-.27.948-.408.045-.174.094-.336.15-.5,0,0-12.909.26-15.1,8.691C1712.869,783.319,1719.4,785.132,1721.37,785.515Z" transform="translate(-1694.921 -767.43)" fill="#e9a527"/>
        <path id="Path_2072" data-name="Path 2072" d="M1804.15,917.122a22.673,22.673,0,0,1,10.654.349,4.785,4.785,0,0,1,.49-.3,2.477,2.477,0,0,1,1.483-.1c1.164.174,2.311.606,3.475.889.4.1,1.384.451,1.272-.254-.059-.349-1.025-1.046-1.3-1.257a16,16,0,0,0-8.068-2.719,26.471,26.471,0,0,0-3.927-.242,6.225,6.225,0,0,0-1.417.247A11.255,11.255,0,0,0,1804.15,917.122Z" transform="translate(-1769.032 -888.015)" fill="#6dc1d5"/>
        <path id="Path_2073" data-name="Path 2073" d="M1643.33,886.933c.556.115,1.169.155,1.568.254a15.221,15.221,0,0,1,5.673,2.464,17.183,17.183,0,0,1,4.931,1.569s-4.373-7.494-11.034-4.793C1644.064,886.6,1643.682,886.767,1643.33,886.933Z" transform="translate(-1636.24 -865.203)" fill="#6949f9"/>
        <path id="Path_2074" data-name="Path 2074" d="M1757.54,1052.48c20.821-3.54,31.233,8.54,31.233,8.54a15.055,15.055,0,0,0-.038-3.535,20.568,20.568,0,0,0-2.813-2.135,42.069,42.069,0,0,0-7.224-3.986,19.912,19.912,0,0,0-7.454-1.169,47.069,47.069,0,0,0-6.893.364c-1.394.209-3.97.722-4.4-.9A10.755,10.755,0,0,0,1757.54,1052.48Z" transform="translate(-1730.546 -1000.472)" fill="#6949f9"/>
        <path id="Path_2075" data-name="Path 2075" d="M1635.67,1014.308a21.02,21.02,0,0,1,17.08-3.634,22.385,22.385,0,0,0-7.146-4.444,1.71,1.71,0,0,1,.54.922c.174.831-.474,1.02-1.2,1.272-1.5.523-3.083.436-4.566,1-1.521.568-2.25,1.776-3.311,2.912A6.463,6.463,0,0,0,1635.67,1014.308Z" transform="translate(-1629.915 -964.611)" fill="#5d3abb"/>
        <path id="Path_2076" data-name="Path 2076" d="M1664,1240.768s.336.061.894.12a8.43,8.43,0,0,0,1.83-1.129,13.659,13.659,0,0,0,2.091-2.586c.629-.788,1.345-1.384,1.021-2.44-.27-.859-.586-1.753.324-2.388a2.788,2.788,0,0,1,.673-.331,13.38,13.38,0,0,0-4.554.486C1660.877,1233.974,1667.278,1238.424,1664,1240.768Z" transform="translate(-1653.308 -1151.021)" fill="#e9a527"/>
        <path id="Path_2077" data-name="Path 2077" d="M1751.867,1161.531c-.492.251-.926.593-1.412.85a8.358,8.358,0,0,0-1.568.939c-.2.174-.5-.118-.293-.293a7.479,7.479,0,0,1,1.476-.915c.549-.281,1.037-.661,1.584-.939.237-.12.446.237.209.349Z" transform="translate(-1723.101 -1092.531)" fill="#6949f9"/>
        <path id="Path_2078" data-name="Path 2078" d="M1678.04,1291.05l7.173,24.807h10.457l2.2-7.627.115-.4,4.855-16.783Z" transform="translate(-1664.901 -1199.792)" fill="#846dfa"/>
        <path id="Path_2079" data-name="Path 2079" d="M1678,1291.05l7.175,24.807h10.457l2.2-7.627c-7.668-2.991-11.374-10.548-13.163-17.181Z" transform="translate(-1664.868 -1199.792)" fill="#5d3abb"/>
        <rect id="Rectangle_826" data-name="Rectangle 826" width="24.807" height="1.743" transform="translate(13.139 90.386)" fill="#221b41"/>
      </g>
      <g id="Group_1378" data-name="Group 1378" transform="translate(5.275 131.526)">
        <path id="Path_2080" data-name="Path 2080" d="M184.938,789.926a67.784,67.784,0,0,0-2.076,14.309c-.174-.155-.336-.3-.5-.458-11.015-10.128-16.829-19.365-19.842-26.81,13.683,9.063,3.372-.066-1.478-4.228-2.367-7.954-1.447-13.132-1.251-14.018.019-.094.028-.141.028-.141s3.447,5.253,6.037,5.865,4.946,1.22,7.348,3.247c2.309,1.942,1.506,7.431,5.631,9.162,0,5.831.253,17.864,2.721,1.22C184.869,780.18,186.5,784.435,184.938,789.926Z" transform="translate(-136.938 -757.898)" fill="#87f0fd"/>
        <path id="Path_2081" data-name="Path 2081" d="M381.775,879s-2.691,18.317-18.77,25.6C363,904.6,349,903.574,381.775,879Z" transform="translate(-302.556 -857.331)" fill="#6949f7"/>
        <path id="Path_2082" data-name="Path 2082" d="M73.959,995.556a15.951,15.951,0,0,1-7.236-12.278s-2.85-6-7.588-5.2-10.84-8.167-16.745-13.054a15.553,15.553,0,0,0-12.13-3.634s7.05-2.287,16.29,3.343a119.379,119.379,0,0,1,13.467,9.192l8.216,5.666S75.474,991.63,73.959,995.556Z" transform="translate(-30.26 -924.985)" fill="#e7a327"/>
        <path id="Path_2083" data-name="Path 2083" d="M151.156,1013.588l-2.762-6.046c-2.762-6.042-2.743-10.25-8.888-13.409-6.048-3.1-15.461-11.112-15.755-11.363,3.069,1.743,8.458,2.36,12.522,3.242.307,2.473,1.311,7.632,3.984,1.255.852.457,1.366,1.018,1.394,1.731.092,3.578,3.55,5.208,3.55,5.208C159.283,1003.039,151.156,1013.588,151.156,1013.588Z" transform="translate(-107.456 -943.016)" fill="#ebc53b"/>
        <path id="Path_2084" data-name="Path 2084" d="M358.574,796.936a43.589,43.589,0,0,1-6.867,8.555c-14,13.768-11.9,17.027-11.9,17.027a16.991,16.991,0,0,1-6.989,10.5s-4.9-15.628,8.4-26.709c2.029-1.689,3.906-3.06,5.631-4.24-.687,3.695-.845,7.348,4.068-2.64,6.98-4.4,10.753-6.755,11.761-19.826C362.669,779.6,364.541,787.068,358.574,796.936Z" transform="translate(-279.363 -775.254)" fill="#826df8"/>
        <path id="Path_2085" data-name="Path 2085" d="M520.457,1018.252a1.834,1.834,0,0,0-.037-.312A1.992,1.992,0,0,1,520.457,1018.252Z" transform="translate(-434.994 -972.056)" fill="#6949f7"/>
        <path id="Path_2086" data-name="Path 2086" d="M329.955,1033.9s-5.966.62-6.274,6.063-3.578,11.971-6.065,11.971c0,0-17.428-24.258,7.773-24.1h.481c-2.626,2.905-7.344,8.5,3.475-.056,17.951-.612,18.908-6.293,18.81-7.912C348.351,1021.885,348.072,1030.5,329.955,1033.9Z" transform="translate(-262.688 -973.65)" fill="#5d3ab9"/>
        <path id="Path_2087" data-name="Path 2087" d="M333.594,1178.274a219.606,219.606,0,0,1-1.7,25,.7.7,0,0,0,.7-.641c.317-3.778,2-23.005,3.738-24.861C341.437,1172.3,333.594,1178.274,333.594,1178.274Z" transform="translate(-279.321 -1102.126)" fill="#5d3ab9"/>
        <path id="Path_2088" data-name="Path 2088" d="M300.44,1110.83s2.766,10.844,1.7,37.993a1.046,1.046,0,1,0,2.083.031c-.091-5.509-.643-31.709-3.118-37.889Z" transform="translate(-253.353 -1048.757)" fill="#6949f7"/>
        <path id="Path_2089" data-name="Path 2089" d="M277.29,1157.18l2.168,30.991a.648.648,0,1,0,1.291-.1l-2.813-30.466Z" transform="translate(-234.237 -1087.029)" fill="#ebc53b"/>
        <path id="Path_2090" data-name="Path 2090" d="M158.2,755.086A49.477,49.477,0,0,0,164.04,766.1c2.9,3.988,5.79,7.928,8.366,12.137a66.2,66.2,0,0,1,6.5,13.32c1.579,4.7,1.971,9.6,3.137,14.37a.35.35,0,0,0,.674-.186c-1.133-4.632-1.528-9.42-3.008-13.969a63.235,63.235,0,0,0-5.824-12.421,136.6,136.6,0,0,0-7.932-11.823,55.211,55.211,0,0,1-7.081-12.628c-.174-.411-.844-.232-.674.186Z" transform="translate(-135.881 -754.666)" fill="#fff"/>
        <path id="Path_2091" data-name="Path 2091" d="M339.784,964.706c.014-4.77.462-9.186,2.945-13.369,2.091-3.529,5.016-6.448,7.843-9.4.312-.326-.174-.821-.495-.495-3.033,3.161-6.178,6.323-8.318,10.187-2.266,4.1-2.656,8.463-2.668,13.071a.349.349,0,0,0,.7,0Z" transform="translate(-285.267 -908.804)" fill="#5d3ab9"/>
        <path id="Path_2092" data-name="Path 2092" d="M256.784,1087.148c-.237-5.249-1.264-10.992-4.789-15.088-.148-.174-.394.077-.247.248,3.456,4.008,4.455,9.7,4.686,14.84.01.223.361.225.349,0Z" transform="translate(-213.109 -1016.696)" fill="#e7a327"/>
        <path id="Path_2093" data-name="Path 2093" d="M384.323,1178.083s-5.255-6.448-9.519-3.336S365,1189.364,365,1189.364s-1.917-9.952,6.475-15.86S385,1176.467,385,1176.467Z" transform="translate(-306.502 -1098.832)" fill="#901c48"/>
        <path id="Path_2094" data-name="Path 2094" d="M433.35,1184.445s.467-16.058-6.53-15.961a10.917,10.917,0,0,1-4.218-.783c-5.762-8.226-5.389-6-3.942-2.422a22.825,22.825,0,0,1-2.789-2.844c0-.014-.023-.028-.037-.047a45.79,45.79,0,0,1-2.789-3.834c-1.945-2.919-7.632-1.45-9.457-.885-.312.092-.512.164-.559.174.368-.392,8.728-9.005,19-3.467-4.706,1.046-9.322,2.691,2.841,3.4a17.825,17.825,0,0,0,7.067,6.611C437.787,1167.184,433.35,1184.445,433.35,1184.445Z" transform="translate(-338.063 -1083.185)" fill="#d93256"/>
        <path id="Path_2095" data-name="Path 2095" d="M353.69,1251.234s-2.154,8.8-2.47,14.075a.438.438,0,0,1-.871-.089c.369-2.423,2.025-12.944,3.337-16.1C355.175,1245.542,353.69,1251.234,353.69,1251.234Z" transform="translate(-294.561 -1161.97)" fill="#901c48"/>
        <path id="Path_2096" data-name="Path 2096" d="M376.946,1169.265c2.029-4.073,11.555-3.74,15.082-1.663,3.337,1.966,5.4,5.307,9.432,6.035.439.08.629-.594.186-.674-5.005-.906-7.435-6.384-12.473-7.187-3.383-.538-11.191-.157-12.831,3.137-.2.4-1.29,2.541-1.089,2.138Z" transform="translate(-315.107 -1093.961)" fill="#fff"/>
        <path id="Path_2097" data-name="Path 2097" d="M239.506,960.874s4.228,7.557,1.664,19a76.425,76.425,0,0,0-13.2-31.341C227.975,948.537,238.432,954.3,239.506,960.874Z" transform="translate(-193.513 -914.743)" fill="#6949f7"/>
        <path id="Path_2098" data-name="Path 2098" d="M147.225,1144.651c-4.974-2.006-6.03-4.652-6.03-4.652s-.523-1.108-8.087-4.406a13.6,13.6,0,0,1-1.609-.823c6.042.279.084-2.051-3.568-3.331a10.127,10.127,0,0,1-1.713-6.07c1.793,1.584,7.538,3.386,7.538,3.386C148.805,1134.335,147.225,1144.651,147.225,1144.651Z" transform="translate(-109.487 -1060.763)" fill="#e7a327"/>
        <path id="Path_2099" data-name="Path 2099" d="M177.756,1172.8c-.746-3.036-3.087-5.166-5.375-7.146a105.974,105.974,0,0,0-9.03-6.485c-.153-.106-.3.145-.146.249,2.839,1.968,5.791,3.8,8.456,6.006,2.421,2.008,5.037,4.273,5.816,7.445a.145.145,0,0,0,.279-.077Z" transform="translate(-139.983 -1088.649)" fill="#fff"/>
        <path id="Path_2100" data-name="Path 2100" d="M275.07,1274.786l2.292,10.108a.328.328,0,0,0,.423.237.324.324,0,0,0,.214-.394c-.4-1.459-2.131-7.906-2.44-10.124C275.232,1272.111,275.07,1274.786,275.07,1274.786Z" transform="translate(-232.404 -1183.113)" fill="#901c48"/>
        <path id="Path_2101" data-name="Path 2101" d="M243.6,1234.64s3.66,11.123,4.008,16.51a.294.294,0,0,0,.34.272.291.291,0,0,0,.253-.336c-.288-1.811-1.931-11.712-4.043-16.208Z" transform="translate(-206.419 -1150.989)" fill="#e7a327"/>
        <path id="Path_2102" data-name="Path 2102" d="M190.154,1244.758c-1.649-7.351-4.8-5.654-4.8-5.654-10.38.185-13.768-3.989-13.969-4.245.174.174,3.121,2.937,9.256,1.365,1.262,1.072,4.5,3.637,1.839-.572.349-.125.7-.26,1.046-.413C191.855,1231.724,190.154,1244.758,190.154,1244.758Z" transform="translate(-146.785 -1150.987)" fill="#901c48"/>
        <path id="Path_2103" data-name="Path 2103" d="M250.61,1327.32l6.621,22.89h9.65l1.891-6.539,4.727-16.351Z" transform="translate(-212.207 -1227.517)" fill="#826df8"/>
        <path id="Path_2104" data-name="Path 2104" d="M250.61,1327.32l6.623,22.89h9.653l1.891-6.539c-6.8-3.362-10.682-9.934-12.9-16.351Z" transform="translate(-212.207 -1227.517)" fill="#5d3ab9"/>
        <rect id="Rectangle_827" data-name="Rectangle 827" width="22.888" height="2.344" transform="translate(38.403 98.876)" fill="#221b41"/>
      </g>
      <path id="Path_2105" data-name="Path 2105" d="M709.414,1490.279l-15.928-.295-15.929-.27-31.855-.425-7.965-.122-7.963-.146q-7.965-.136-15.929-.014l-7.963.174c-2.656.084-5.31.141-7.965.255-5.309.2-10.619.448-15.928.852v.282c5.309.406,10.619.657,15.928.854,2.654.113,5.309.174,7.965.253l7.963.174q7.966.122,15.929-.014l7.963-.146,7.965-.122,31.855-.423,15.929-.272,15.928-.295Z" transform="translate(-480.559 -1229.451)" fill="#221b41"/>
      <path id="Path_2106" data-name="Path 2106" d="M176.483,1450.7l-15.685-.293-15.685-.272-31.371-.424-7.843-.124-7.843-.146q-7.843-.134-15.685-.014l-7.843.174c-2.614.084-5.228.139-7.843.253-5.228.2-10.457.448-15.685.852v.284c5.228.4,10.457.655,15.685.852,2.614.113,5.228.174,7.843.255l7.843.174q7.843.124,15.685-.014l7.843-.146,7.843-.122,31.371-.425,15.685-.27,15.685-.294Z" transform="translate(-42.111 -1196.773)" fill="#221b41"/>
      <path id="Path_2107" data-name="Path 2107" d="M1340.627,1092l19.5,20.74-9.219,7.932s-10.234-4.93-10.283-5.619S1340.627,1092,1340.627,1092Z" transform="translate(-1106.961 -901.683)" fill="#4980ee"/>
      <path id="Path_2108" data-name="Path 2108" d="M1295.31,1212.813l32.765-29.122s20.59,5.357,43.888,42.4h-10.48s-23.528-13.747-27.84-24.7l-17.822,20.5Z" transform="translate(-1069.56 -977.393)" fill="#2e2264"/>
      <path id="Path_2109" data-name="Path 2109" d="M1198.69,1338.685s-6.989,17.474,25.163,17.474,85.013-.682,85.013-.682v-6.989l-91.77-13.768Z" transform="translate(-989.249 -1102.101)" fill="#412f8f"/>
      <path id="Path_2110" data-name="Path 2110" d="M1283.77,897.613l11.618-2.053.678,7.3-10.084,3.282Z" transform="translate(-1060.031 -739.479)" fill="#272440"/>
      <path id="Path_2111" data-name="Path 2111" d="M1252.02,965.428a11.017,11.017,0,0,0-1.173,3.486,4.245,4.245,0,0,0,.748,3.39,5.332,5.332,0,0,0,3.283,1.568,16.808,16.808,0,0,0,3.871.03,16.985,16.985,0,0,1-3.9.286,5.7,5.7,0,0,1-3.719-1.45,4.152,4.152,0,0,1-1.033-1.835,6.5,6.5,0,0,1-.193-2.074,12.058,12.058,0,0,1,.988-3.968Z" transform="translate(-1032.051 -796.701)" fill="#272440"/>
      <path id="Path_2112" data-name="Path 2112" d="M1239.734,904.73a5.29,5.29,0,0,0-4.294,2.761,5.113,5.113,0,0,0,.261,5.037,37.469,37.469,0,0,0,2.567,2.865,7.3,7.3,0,0,1,1.556,3.606,9.4,9.4,0,0,0,.455,2.754,3.169,3.169,0,0,0,4.326,1.3,5.088,5.088,0,0,0,1.917-3.182,21.6,21.6,0,0,0,.314-9.493,8.424,8.424,0,0,0-2.009-4.449,4.064,4.064,0,0,0-4.591-.99Z" transform="translate(-1019.678 -746.928)" fill="#272440"/>
      <path id="Path_2113" data-name="Path 2113" d="M1289.907,914.877c-.019.1-.051.2-.075.307a20.664,20.664,0,0,1-4.3,8.191,11.488,11.488,0,0,1-2.112,2.01c-2.008,1.377-6.394,1.356-8.608.235a8.829,8.829,0,0,1-4.118-4.967,19.3,19.3,0,0,1-.887-6.407,3.208,3.208,0,0,1-2.869-3.763c.443-1.71,1.793-2.6,4.284-1.638a1.462,1.462,0,0,0,.248.019c5.037.375,9.45-2.107,14.323-2.614.861-.089,3.4-.61,3.97.117a3.693,3.693,0,0,1,.453,1.22,9.411,9.411,0,0,1,.349,2.572,16.666,16.666,0,0,1-.289,3.137C1290.17,913.817,1290.046,914.354,1289.907,914.877Z" transform="translate(-1046.067 -748.088)" fill="#eaaaab"/>
      <path id="Path_2114" data-name="Path 2114" d="M1278.7,983.271l-2.346,6.576-9.16-4.589,4.39-8.038Z" transform="translate(-1046.341 -806.907)" fill="#eaaaab"/>
      <path id="Path_2115" data-name="Path 2115" d="M1350.934,910.992a22.5,22.5,0,0,1-8.336-2.471,14.376,14.376,0,0,0-2.6-.927,38.212,38.212,0,0,1,6.178-1.384c.861-.089,3.4-.61,3.97.117a3.69,3.69,0,0,1,.453,1.22,9.41,9.41,0,0,1,.349,2.572A8.68,8.68,0,0,1,1350.934,910.992Z" transform="translate(-1106.461 -748.055)" fill="#eaaaab"/>
      <path id="Path_2116" data-name="Path 2116" d="M1289.91,995.41l5.7,8.045,1.046-3A9.481,9.481,0,0,1,1289.91,995.41Z" transform="translate(-1065.101 -821.927)" fill="#e59193"/>
      <path id="Path_2117" data-name="Path 2117" d="M1283.48,953.693c.023,4.076.7,9.284,4.847,11.368a7.823,7.823,0,0,0,5.453.828,10.223,10.223,0,0,0,4.739-2.13c.228-.22-.1-.6-.329-.376a9.646,9.646,0,0,1-4.369,1.99,7.552,7.552,0,0,1-5.533-.882c-3.707-2-4.282-7.055-4.3-10.753C1283.984,953.425,1283.478,953.378,1283.48,953.693Z" transform="translate(-1059.792 -787.304)" fill="#fff"/>
      <path id="Path_2118" data-name="Path 2118" d="M1311.749,914.885a70.171,70.171,0,0,1-14.826-3.12,6.045,6.045,0,0,1-3.613-2.891c5.037.375,9.45-2.107,14.323-2.614.861-.089,3.4-.61,3.97.117a3.69,3.69,0,0,1,.453,1.22,9.416,9.416,0,0,1,.349,2.572,16.666,16.666,0,0,1-.289,3.137C1312.012,913.825,1311.889,914.362,1311.749,914.885Z" transform="translate(-1067.909 -748.096)" fill="#e59193"/>
      <path id="Path_2119" data-name="Path 2119" d="M1386.862,889.182a.328.328,0,1,0-.279-.35A.328.328,0,0,0,1386.862,889.182Z" transform="translate(-1144.925 -733.674)" fill="#272440"/>
      <path id="Path_2120" data-name="Path 2120" d="M1320.3,980.772l6.466.556a.291.291,0,0,1,.256.39c-.394,1-1.764,3.724-4.829,3.109-3.193-.64-2.471-3.153-2.189-3.876A.286.286,0,0,1,1320.3,980.772Z" transform="translate(-1089.725 -809.839)" fill="#fff"/>
      <path id="Path_2121" data-name="Path 2121" d="M1258.826,968.174l.455-.837.063-4.214-3.062-4.054S1253.814,966.726,1258.826,968.174Z" transform="translate(-1036.832 -791.92)" fill="#272440"/>
      <path id="Path_2122" data-name="Path 2122" d="M1240.555,903.538c0,.071.01.052.017.064s.01,0,.017,0,.024-.017.037-.03a.306.306,0,0,0,.052-.094.479.479,0,0,0,.016-.267,1.166,1.166,0,0,0-.511-.638,3.8,3.8,0,0,0-1-.476,9.158,9.158,0,0,0-1.183-.286,9.621,9.621,0,0,1,1.208-.349,4.781,4.781,0,0,1,1.349-.1,2.83,2.83,0,0,1,1.527.554,2.59,2.59,0,0,1,.654.734,2.517,2.517,0,0,1,.223.474,2.356,2.356,0,0,1,.078.267c.01.051.021.091.028.15a1.118,1.118,0,0,1,.016.213Z" transform="translate(-1022.238 -744.26)" fill="#272440"/>
      <path id="Path_2123" data-name="Path 2123" d="M1294.65,916.444a9.829,9.829,0,0,0-.474,1.358,9.328,9.328,0,0,0-.295,1.447,4.524,4.524,0,0,0,.458,2.911,3.914,3.914,0,0,1-.932-1.3,6.746,6.746,0,0,1-.479-1.568,10.844,10.844,0,0,1-.174-1.644,11.575,11.575,0,0,1,.054-1.689Z" transform="translate(-1067.441 -756.324)" fill="#272440"/>
      <path id="Path_2124" data-name="Path 2124" d="M1297.229,830.035c-2.973,4.46-6,6.112-9.586,5.978a22.473,22.473,0,0,1-8.216-2.428,14.271,14.271,0,0,0-2.553-.91,9.99,9.99,0,0,0-8.017,1.171h0a1.51,1.51,0,0,1-.237-.017,4.018,4.018,0,0,0-2.64-.274l-2.18-2.358c3.358-16.447,13.789-8.048,13.789-8.048l3.674-4.035C1292.734,808.163,1302.212,822.558,1297.229,830.035Z" transform="translate(-1043.542 -673.079)" fill="#272440"/>
      <path id="Path_2125" data-name="Path 2125" d="M1260.33,889.6a13.75,13.75,0,0,1-.5-1.579,12.722,12.722,0,0,1-.316-1.595,7.238,7.238,0,0,1-.052-1.624,3.5,3.5,0,0,1,.45-1.52,3.263,3.263,0,0,0,.026,1.492,6.5,6.5,0,0,0,.493,1.394,11.427,11.427,0,0,0,.715,1.3,11.941,11.941,0,0,0,.838,1.183Z" transform="translate(-1039.938 -729.339)" fill="#272440"/>
      <path id="Path_2126" data-name="Path 2126" d="M1293.179,896.187a11.973,11.973,0,0,1,4.723-.537,8.488,8.488,0,0,1,4.439,1.7l.469.376.389.331q.4.319.833.61a13.319,13.319,0,0,0,1.833,1.02,14.313,14.313,0,0,0,4.036,1.208,13.338,13.338,0,0,0,2.11.108,11.488,11.488,0,0,0,2.091-.293,10.549,10.549,0,0,0,3.826-1.826,16.876,16.876,0,0,0,5.021-6.989,17.2,17.2,0,0,1-4.725,7.362,11.1,11.1,0,0,1-3.932,2.142,12.052,12.052,0,0,1-2.226.436,14.282,14.282,0,0,1-2.266.009,15.446,15.446,0,0,1-4.406-1.061,15.01,15.01,0,0,1-2.055-1c-.331-.2-.655-.406-.973-.634l-.467-.349-.4-.288a6.908,6.908,0,0,0-3.712-1.192,9.712,9.712,0,0,0-2.006.136,9.853,9.853,0,0,0-1.9.511l-.037.016a.954.954,0,0,1-.709-1.771Z" transform="translate(-1067.265 -736.457)" fill="#272440"/>
      <path id="Path_2127" data-name="Path 2127" d="M1310.449,835.85a7.506,7.506,0,0,1,2.881,4.474,9.015,9.015,0,0,1-.676,5.352,8.456,8.456,0,0,1-1.462,2.332,7.469,7.469,0,0,1-1.035.927c-.19.132-.373.279-.57.4l-.617.326a10.606,10.606,0,0,1-5.413.9,23.1,23.1,0,0,1-5.38-1.067c-.871-.293-1.743-.575-2.574-.929a22.893,22.893,0,0,0-2.5-.931l-.626-.174c-.209-.052-.423-.08-.634-.122a8.976,8.976,0,0,0-1.271-.145,6.713,6.713,0,0,0-2.44.389,6.62,6.62,0,0,0-3.5,3.365l-1.128-.586a7.278,7.278,0,0,1,7.119-4.209,10.24,10.24,0,0,1,1.412.2c.23.052.464.092.7.157l.669.211c.889.289,1.743.7,2.545,1.033.812.373,1.652.669,2.487.981a22.322,22.322,0,0,0,5.18,1.187,10.036,10.036,0,0,0,5.162-.7l.589-.288c.188-.112.363-.242.546-.362a7.092,7.092,0,0,0,1-.844,8.124,8.124,0,0,0,1.461-2.191,8.782,8.782,0,0,0,.812-5.194A7.44,7.44,0,0,0,1310.449,835.85Z" transform="translate(-1059.816 -690.175)" fill="#504c65"/>
      <path id="Path_2128" data-name="Path 2128" d="M1198.153,1038.719a15.121,15.121,0,0,0-3.85-.509,9.247,9.247,0,0,0-7.358,3c-3.9,4.674-11,24.018-3.707,57.206l28.6-6.82,1.956-11.027S1215.285,1041.213,1198.153,1038.719Z" transform="translate(-974.414 -857.268)" fill="#74cdfc"/>
      <path id="Path_2129" data-name="Path 2129" d="M1262.632,1021.385a18.873,18.873,0,0,1,2.067-2.348l-11.271-6.168-3.538,5.908Z" transform="translate(-1032.056 -836.344)" fill="#74cdfc"/>
      <path id="Path_2130" data-name="Path 2130" d="M1215.831,1138.08s-9.509,45.993,11.5,37.122c15.807-6.675-7.583-25.933-7.583-25.933Z" transform="translate(-1002.161 -939.732)" fill="#4980ee"/>
      <path id="Path_2131" data-name="Path 2131" d="M1834,1386.648l8.855-1.063,12.24-4.566a1.25,1.25,0,0,1,1.685,1.169v.2a6.249,6.249,0,0,1-2.319,4.859l-8.648,7-11.813-.606Z" transform="translate(-1514.366 -1140.266)" fill="#2e2264"/>
      <path id="Path_2132" data-name="Path 2132" d="M1239.644,1117.655s1.673-26.161-8.526-25.677-9.2,16-6.52,31.2Z" transform="translate(-1009.683 -901.66)" fill="#74cdfc"/>
      <path id="Path_2133" data-name="Path 2133" d="M1250.119,1184.821s-.124,14.83,7.3,15.037,36.343-26.616,36.343-26.616h12.374s-3.012-5.3-10.968-5.3L1262.8,1183.9l-.586-3.515Z" transform="translate(-1032.245 -964.388)" fill="#eaaaab"/>
      <path id="Path_2134" data-name="Path 2134" d="M1486.84,1045.435h25.867a.784.784,0,0,0,.739-.523l11.764-33.009-1.478-.523-11.579,32.49H1486.84Z" transform="translate(-1227.71 -835.114)" fill="#412f8f"/>
      <path id="Path_2135" data-name="Path 2135" d="M1262.383,1241.116l-12.275,5.528a14.3,14.3,0,0,1-.188-3.353l12.189-4.531Z" transform="translate(-1032.046 -1022.865)" fill="#e59193"/>
      <path id="Path_2136" data-name="Path 2136" d="M1367.338,1381.769h.065v-.871c-.242,0-24.748.012-48.942-1.352-42.262-2.386-48.625-6.905-48.649-9.385h-.871c.017,1.569,1.5,2.909,4.531,4.12a58.526,58.526,0,0,0,11.212,2.809,317.208,317.208,0,0,0,33.739,3.311C1342.023,1381.746,1365.917,1381.769,1367.338,1381.769Z" transform="translate(-1047.786 -1131.365)" fill="#2e2264"/>
      <path id="Path_2137" data-name="Path 2137" d="M1275.776,1117.2l3.611-1.324.031-.268a71.914,71.914,0,0,0,.291-9.646c-.281-6.971-1.647-11.8-4.059-14.387a6.47,6.47,0,0,0-5.211-2.128l.038.871a5.54,5.54,0,0,1,4.531,1.851c5.068,5.424,3.782,20.854,3.566,23.077l-3.1,1.138Z" transform="translate(-1049.024 -899.567)" fill="#fff"/>
      <rect id="Rectangle_828" data-name="Rectangle 828" width="19.98" height="0.871" transform="translate(226.404 221.138) rotate(-26.41)" fill="#fff"/>
      <path id="Path_2138" data-name="Path 2138" d="M1076.849,1450.62l-51.762-.565-51.762-.425-25.881-.268-12.942-.072-6.469.012-6.471.045-12.94.174c-4.313.085-8.627.141-12.94.254-8.627.2-17.254.448-25.881.852v.282c8.627.406,17.254.657,25.881.854,4.313.113,8.627.174,12.94.253l12.94.174,6.471.044,6.469.014,12.942-.073,25.881-.268,51.762-.423,51.762-.567Z" transform="translate(-718.209 -1196.704)" fill="#221b41"/>
    </g>
  </g>
</svg>
