<svg xmlns="http://www.w3.org/2000/svg" width="46.426" height="36.806" viewBox="0 0 46.426 36.806">
  <g id="Hover_After_Login" data-name="Hover After Login" transform="translate(-192 -71)">
    <g id="avatar" transform="translate(199.598 74)">
      <g id="Group_3" data-name="Group 3" transform="translate(10.073)">
        <path id="Path_4" data-name="Path 4" d="M144.265,18.215h.224a6.46,6.46,0,0,0,4.935-2.135c2.7-3.038,2.247-8.247,2.2-8.744-.175-3.731-1.939-5.516-3.4-6.35A7.784,7.784,0,0,0,144.461,0h-.119a7.8,7.8,0,0,0-3.766.959c-1.47.833-3.262,2.618-3.437,6.378-.049.5-.5,5.705,2.2,8.744A6.434,6.434,0,0,0,144.265,18.215Zm-5.257-10.7c0-.021.007-.042.007-.056.231-5.019,3.794-5.558,5.32-5.558h.084c1.89.042,5.1.812,5.32,5.558a.137.137,0,0,0,.007.056c.007.049.5,4.809-1.729,7.316a4.588,4.588,0,0,1-3.605,1.5h-.07a4.573,4.573,0,0,1-3.6-1.5C138.525,12.335,139,7.554,139.008,7.512Z" transform="translate(-130.01)" fill="#4a5f73"/>
        <path id="Path_5" data-name="Path 5" d="M64.826,267.95v-.021c0-.056-.007-.112-.007-.175-.042-1.386-.133-4.627-3.171-5.663l-.07-.021a20.2,20.2,0,0,1-5.81-2.646.945.945,0,0,0-1.085,1.547,21.805,21.805,0,0,0,6.392,2.919c1.631.581,1.813,2.324,1.862,3.92a1.407,1.407,0,0,0,.007.175,12.709,12.709,0,0,1-.147,2.163,25.764,25.764,0,0,1-12.342,2.87A25.912,25.912,0,0,1,38.1,270.141a12.031,12.031,0,0,1-.147-2.163c0-.056.007-.112.007-.175.049-1.6.231-3.339,1.862-3.92a22.006,22.006,0,0,0,6.392-2.919.945.945,0,1,0-1.085-1.547,19.98,19.98,0,0,1-5.81,2.646c-.028.007-.049.014-.07.021-3.038,1.043-3.129,4.284-3.171,5.663a1.408,1.408,0,0,1-.007.175v.021a10.735,10.735,0,0,0,.357,3.171.9.9,0,0,0,.364.441c.21.14,5.243,3.346,13.665,3.346s13.455-3.213,13.665-3.346a.938.938,0,0,0,.364-.441A11.263,11.263,0,0,0,64.826,267.95Z" transform="translate(-36.073 -241.096)" fill="#4a5f73"/>
      </g>
    </g>
    <g id="Ellipse_132" data-name="Ellipse 132" transform="translate(224 71)" fill="#0ed900" stroke="#fff" stroke-width="2">
      <circle cx="5.5" cy="5.5" r="5.5" stroke="none"/>
      <circle cx="5.5" cy="5.5" r="4.5" fill="none"/>
    </g>
    <path id="Polygon_1" data-name="Polygon 1" d="M4.186,1.139a1,1,0,0,1,1.627,0l3.057,4.28A1,1,0,0,1,8.057,7H1.943a1,1,0,0,1-.814-1.581Z" transform="translate(202 98) rotate(180)" fill="#4a5f73"/>
  </g>
</svg>
