<svg id="wallet-filled-money-tool" xmlns="http://www.w3.org/2000/svg" width="14.327" height="13.753" viewBox="0 0 14.327 13.753">
  <g id="Group_122" data-name="Group 122">
    <path id="Path_1515" data-name="Path 1515" d="M160.282,20.458l5.712-1.559-.3-.611a.8.8,0,0,0-1.078-.364L159.5,20.458Z" transform="translate(-156.934 -17.84)" fill="#fff"/>
    <path id="Path_1516" data-name="Path 1516" d="M327.652,86.46a.8.8,0,0,0-.212.029l-1.342.367L322,87.974h6.678l-.251-.92A.8.8,0,0,0,327.652,86.46Z" transform="translate(-316.819 -85.356)" fill="#fff"/>
    <path id="Path_1517" data-name="Path 1517" d="M12.7,215.56H.806a.805.805,0,0,0-.777.594.833.833,0,0,0-.029.211v8.963a.8.8,0,0,0,.8.8H12.7a.8.8,0,0,0,.8-.8v-2.244H8.727a1.368,1.368,0,0,1-1.368-1.368v-1.789a1.365,1.365,0,0,1,1.366-1.366H13.5v-2.2A.8.8,0,0,0,12.7,215.56Z" transform="translate(0 -212.379)" fill="#fff"/>
    <path id="Path_1518" data-name="Path 1518" d="M498.543,436.972a.8.8,0,0,0-.282-.167.821.821,0,0,0-.261-.043h-4.8a.8.8,0,0,0-.8.8v1.791a.8.8,0,0,0,.8.8H498a.819.819,0,0,0,.261-.043.779.779,0,0,0,.282-.167.8.8,0,0,0,.262-.594v-1.791A.8.8,0,0,0,498.543,436.972Zm-3.659,1.649a.4.4,0,0,1-.4.4h-.267a.4.4,0,0,1-.4-.4v-.267a.394.394,0,0,1,.154-.315.406.406,0,0,1,.248-.087h.267a.4.4,0,0,1,.4.4v.267Z" transform="translate(-484.478 -430.021)" fill="#fff"/>
  </g>
</svg>
