<?xml version="1.0" standalone="no"?>
<!DOCTYPE svg PUBLIC "-//W3C//DTD SVG 20010904//EN"
 "http://www.w3.org/TR/2001/REC-SVG-20010904/DTD/svg10.dtd">
<svg version="1.0" xmlns="http://www.w3.org/2000/svg"
 width="700.000000pt" height="700.000000pt" viewBox="0 0 700.000000 700.000000"
 preserveAspectRatio="xMidYMid meet">
<metadata>
Created by potrace 1.11, written by Peter Selinger 2001-2013
</metadata>
<g transform="translate(0.000000,700.000000) scale(0.100000,-0.100000)"
fill="#000000" stroke="none">
<path d="M3377 6824 c-1 -1 -63 -4 -137 -8 -131 -7 -154 -8 -270 -21 -177 -19
-400 -68 -560 -123 -225 -78 -421 -183 -625 -338 -115 -87 -129 -98 -263 -220
l-82 -76 37 -27 c80 -58 166 -171 209 -274 l21 -48 64 61 c347 328 747 511
1241 566 29 3 64 7 78 10 130 20 677 21 786 0 11 -2 42 -7 69 -10 100 -14 122
-18 251 -47 122 -28 262 -68 309 -89 11 -5 47 -18 80 -30 33 -12 74 -28 90
-35 161 -72 218 -102 394 -205 62 -36 187 -125 283 -201 101 -80 332 -304 395
-384 115 -143 143 -181 208 -281 217 -327 387 -764 440 -1129 3 -23 7 -52 10
-65 20 -104 28 -535 12 -680 -74 -680 -388 -1316 -885 -1791 -181 -173 -407
-341 -607 -450 -69 -37 -214 -109 -220 -109 -2 0 -28 -11 -57 -24 -83 -37
-106 -45 -213 -81 -87 -29 -197 -61 -245 -70 -8 -2 -33 -8 -55 -13 -22 -6 -74
-16 -115 -22 -41 -7 -84 -14 -95 -16 -134 -26 -639 -25 -773 1 -11 2 -42 7
-69 11 -26 5 -50 9 -53 9 -3 1 -25 5 -50 9 -401 69 -872 287 -1227 566 -96 76
-327 296 -393 375 -225 268 -384 533 -503 835 -40 103 -89 251 -102 305 -2 11
-11 49 -20 85 -18 71 -40 188 -50 263 -4 27 -8 57 -10 66 -22 117 -22 445 1
631 50 410 238 986 427 1307 l35 61 -22 89 c-26 99 -105 273 -159 346 l-35 49
-40 -54 c-90 -119 -247 -404 -339 -613 -150 -341 -262 -759 -308 -1145 -13
-110 -14 -568 -1 -630 2 -14 12 -74 21 -135 8 -60 18 -126 21 -145 19 -125
156 -588 184 -625 4 -5 11 -21 15 -35 17 -58 169 -355 241 -470 185 -296 451
-603 694 -800 30 -25 57 -47 60 -50 3 -3 30 -24 60 -46 471 -353 993 -569
1568 -649 237 -33 601 -37 822 -10 657 82 1252 335 1744 743 115 96 341 321
433 432 159 191 311 424 421 645 173 347 264 648 326 1077 28 189 28 598 1
813 -16 123 -30 203 -50 293 -8 34 -17 75 -20 91 -14 83 -111 374 -168 507
-202 470 -506 890 -877 1207 -52 45 -100 86 -106 92 -6 5 -23 19 -38 30 -15
11 -51 38 -79 59 -243 183 -582 359 -893 465 -110 37 -363 104 -443 117 -18 3
-43 7 -54 10 -11 2 -55 8 -97 14 -42 6 -85 12 -96 14 -61 12 -535 29 -547 20z"/>
<path d="M255 6282 c-83 -39 -127 -117 -121 -217 4 -61 16 -91 51 -133 45 -54
83 -64 245 -68 206 -4 260 -12 368 -50 90 -32 203 -105 259 -167 69 -75 135
-191 149 -260 2 -10 5 -26 8 -35 7 -25 15 -111 22 -242 3 -63 7 -144 9 -180 2
-36 7 -112 10 -170 3 -58 7 -143 10 -190 3 -47 7 -128 10 -180 3 -52 7 -131
10 -175 2 -44 7 -120 10 -170 2 -49 7 -137 10 -195 3 -58 8 -141 10 -185 3
-44 7 -125 10 -180 3 -55 7 -131 10 -170 2 -38 7 -126 11 -195 9 -188 10 -200
34 -270 101 -301 323 -560 602 -701 141 -71 241 -103 393 -124 140 -20 2100
-18 2227 2 103 17 230 56 328 101 61 29 176 98 206 125 8 7 42 37 77 67 211
184 362 487 382 770 5 69 6 1542 1 1570 -3 14 -7 45 -10 69 -18 142 -113 361
-215 497 -112 150 -265 275 -436 355 -97 46 -234 86 -324 97 -36 4 -588 7
-1226 7 -1271 0 -1177 4 -1247 -57 -58 -50 -93 -177 -74 -265 13 -61 58 -112
121 -139 37 -16 135 -17 1205 -19 641 -1 1179 -5 1195 -9 247 -55 443 -209
550 -431 56 -115 68 -184 70 -407 1 -140 -1 -195 -9 -191 -6 4 -40 28 -76 53
-135 95 -292 160 -445 185 -94 16 -886 19 -975 4 -30 -4 -68 -11 -85 -14 -74
-12 -188 -50 -280 -94 -381 -183 -640 -570 -662 -987 -6 -118 2 -164 40 -218
27 -38 110 -76 167 -76 132 0 210 71 225 206 14 134 70 287 142 392 111 162
303 284 488 310 64 9 799 9 845 0 124 -24 204 -58 295 -123 150 -106 252 -277
281 -465 5 -36 5 -170 -1 -200 -50 -266 -206 -468 -447 -580 -143 -66 -90 -64
-1188 -64 -547 0 -1020 3 -1051 7 -189 22 -385 139 -486 287 -33 49 -77 147
-87 195 -13 59 -14 73 -20 156 -4 46 -9 107 -11 134 -2 28 -7 91 -10 140 -4
50 -8 108 -10 130 -2 22 -6 81 -10 130 -4 50 -8 108 -10 130 -2 22 -6 81 -10
130 -3 50 -8 115 -10 145 -3 30 -7 89 -10 130 -3 41 -7 100 -10 130 -2 30 -7
89 -10 130 -3 41 -8 98 -10 125 -2 28 -7 88 -10 135 -7 103 -13 183 -20 270
-6 73 -10 130 -20 275 -25 358 -270 715 -610 888 -190 97 -327 127 -600 133
-189 4 -214 2 -250 -14z"/>
<path d="M2510 1833 c-183 -27 -346 -177 -395 -363 -21 -78 -13 -210 16 -280
92 -221 306 -343 539 -306 64 10 177 67 232 118 166 153 204 377 101 583 -52
102 -199 215 -312 240 -39 8 -144 13 -181 8z"/>
<path d="M4358 1824 c-183 -43 -334 -197 -367 -377 -52 -284 160 -554 449
-570 334 -19 594 336 473 645 -88 225 -327 355 -555 302z"/>
</g>
</svg>
